<svg width="50" height="50" viewBox="0 0 50 50" fill="none" xmlns="http://www.w3.org/2000/svg">
<path d="M34.1191 20.8953C34.1191 20.3076 33.9095 19.7744 33.6295 19.454C33.5025 19.3086 33.3516 19.1929 33.1568 19.1063C32.9626 19.0199 32.6385 18.9241 32.1216 18.9241C30.6991 18.9242 30.032 19.3001 29.784 19.5136C29.6215 19.6537 29.3632 19.9452 29.3315 20.7311L29.3282 20.8953V35.3455L29.3224 35.5655C29.2063 37.8212 27.3157 39.6149 25.0003 39.615C22.6101 39.615 20.6724 37.7034 20.6724 35.3455V20.8953C20.6724 19.985 20.3894 19.6631 20.2159 19.5136C19.968 19.3001 19.3009 18.9241 17.8783 18.9241C17.3615 18.9241 17.0373 19.0199 16.8432 19.1063C16.6485 19.193 16.4974 19.3086 16.3705 19.454C16.0905 19.7744 15.8808 20.3077 15.8808 20.8953C15.8807 23.2532 13.9431 25.1649 11.5529 25.1649C9.16274 25.1649 7.22512 23.2532 7.22498 20.8953C7.22498 18.5268 8.0141 15.9392 9.81484 13.8784C11.7021 11.7188 14.4937 10.385 17.8783 10.385C20.4036 10.385 22.9201 10.9702 25.0003 12.3851C27.0805 10.9704 29.5972 10.385 32.1223 10.385C35.5069 10.3851 38.2986 11.7194 40.1858 13.879C41.9864 15.9398 42.775 18.5269 42.775 20.8953C42.775 23.2533 40.8373 25.1649 38.4471 25.1649C36.057 25.1647 34.1191 23.2532 34.1191 20.8953Z" fill="#6F674C" fill-opacity="0.4"/>
</svg>
