<svg width="50" height="50" viewBox="0 0 50 50" fill="none" xmlns="http://www.w3.org/2000/svg">
<path d="M34.1191 20.8951C34.1191 20.3074 33.9095 19.7741 33.6295 19.4537C33.5025 19.3084 33.3516 19.1927 33.1568 19.106C32.9626 19.0197 32.6385 18.9239 32.1216 18.9239C30.6991 18.9239 30.032 19.2998 29.784 19.5134C29.6215 19.6534 29.3632 19.9449 29.3315 20.7309L29.3282 20.8951V35.3452L29.3224 35.5652C29.2063 37.8209 27.3157 39.6147 25.0003 39.6148C22.6101 39.6147 20.6724 37.7032 20.6724 35.3452V20.8951C20.6724 19.9848 20.3894 19.6628 20.2159 19.5134C19.968 19.2999 19.3009 18.9239 17.8783 18.9239C17.3615 18.9239 17.0373 19.0197 16.8432 19.106C16.6485 19.1927 16.4974 19.3084 16.3705 19.4537C16.0905 19.7742 15.8808 20.3074 15.8808 20.8951C15.8807 23.253 13.9431 25.1646 11.5529 25.1646C9.16274 25.1646 7.22512 23.253 7.22498 20.8951C7.22498 18.5266 8.0141 15.9389 9.81484 13.8782C11.7021 11.7185 14.4937 10.3848 17.8783 10.3848C20.4036 10.3848 22.9201 10.97 25.0003 12.3848C27.0805 10.9702 29.5972 10.3847 32.1223 10.3848C35.5069 10.3849 38.2986 11.7191 40.1858 13.8788C41.9864 15.9395 42.775 18.5266 42.775 20.8951C42.775 23.2531 40.8373 25.1646 38.447 25.1646C36.057 25.1645 34.1191 23.253 34.1191 20.8951Z" fill="#E64528" stroke="#E92300" stroke-linecap="round" stroke-linejoin="round"/>
</svg>
