<svg width="50" height="50" viewBox="0 0 50 50" fill="none" xmlns="http://www.w3.org/2000/svg">
<path d="M17.9134 32.3181C16.0799 34.094 13.5809 35.187 10.8268 35.187C5.20061 35.187 0.639771 30.6262 0.639771 25C0.639771 19.3738 5.20061 14.813 10.8268 14.813C13.5809 14.813 16.0799 15.906 17.9134 17.6819C19.7469 15.906 22.2459 14.813 25 14.813C27.7542 14.813 30.2531 15.906 32.0866 17.6819C33.9201 15.906 36.4191 14.813 39.1732 14.813C44.7994 14.813 49.3602 19.3738 49.3602 25C49.3602 30.6262 44.7994 35.187 39.1732 35.187C36.4191 35.187 33.9201 34.094 32.0866 32.3181C30.2531 34.094 27.7542 35.187 25 35.187C22.2459 35.187 19.7469 34.094 17.9134 32.3181Z" fill="#6F674C" fill-opacity="0.4"/>
</svg>
