<svg width="50" height="50" viewBox="0 0 50 50" fill="none" xmlns="http://www.w3.org/2000/svg">
<path d="M39.173 15.313C44.5228 15.313 48.8602 19.6497 48.8605 24.9995C48.8605 30.3495 44.523 34.687 39.173 34.687C36.5539 34.6869 34.1786 33.6476 32.4347 31.9585L32.087 31.6216L31.7384 31.9585C29.9944 33.6477 27.6192 34.687 25.0001 34.687C22.381 34.687 20.0049 33.6477 18.2609 31.9585L17.9132 31.6216L17.5656 31.9585C15.8216 33.6477 13.4455 34.687 10.8263 34.687C5.47649 34.6867 1.13977 30.3494 1.13977 24.9995C1.14003 19.6499 5.47665 15.3133 10.8263 15.313C13.4455 15.313 15.8216 16.3523 17.5656 18.0415L17.9132 18.3784L18.2609 18.0415C20.0049 16.3523 22.381 15.313 25.0001 15.313C27.6192 15.313 29.9944 16.3523 31.7384 18.0415L32.087 18.3784L32.4347 18.0415C34.1786 16.3524 36.5539 15.3131 39.173 15.313Z" fill="#058DA4" stroke="#048AA1"/>
</svg>
