<svg width="37" height="37" viewBox="0 0 37 37" fill="none" xmlns="http://www.w3.org/2000/svg">
<g clip-path="url(#clip0_384_1719)">
<path d="M7.68062 10.7528H9.21673C10.0315 10.7528 10.813 10.4291 11.3891 9.85294C11.9653 9.27679 12.289 8.49535 12.289 7.68055C12.289 7.27315 12.4508 6.88243 12.7389 6.59436C13.0269 6.30628 13.4177 6.14444 13.8251 6.14444H23.0417C23.4491 6.14444 23.8398 6.30628 24.1279 6.59436C24.416 6.88243 24.5778 7.27315 24.5778 7.68055C24.5778 8.49535 24.9015 9.27679 25.4777 9.85294C26.0538 10.4291 26.8353 10.7528 27.6501 10.7528H29.1862C30.001 10.7528 30.7824 11.0765 31.3586 11.6526C31.9347 12.2288 32.2584 13.0102 32.2584 13.825V27.65C32.2584 28.4648 31.9347 29.2462 31.3586 29.8224C30.7824 30.3985 30.001 30.7222 29.1862 30.7222H7.68062C6.86582 30.7222 6.08438 30.3985 5.50823 29.8224C4.93208 29.2462 4.6084 28.4648 4.6084 27.65V13.825C4.6084 13.0102 4.93208 12.2288 5.50823 11.6526C6.08438 11.0765 6.86582 10.7528 7.68062 10.7528Z" stroke="black" stroke-width="2" stroke-linecap="round" stroke-linejoin="round"/>
<path d="M13.825 19.9694C13.825 21.1917 14.3105 22.3638 15.1747 23.228C16.0389 24.0923 17.2111 24.5778 18.4333 24.5778C19.6555 24.5778 20.8276 24.0923 21.6919 23.228C22.5561 22.3638 23.0416 21.1917 23.0416 19.9694C23.0416 18.7472 22.5561 17.5751 21.6919 16.7109C20.8276 15.8466 19.6555 15.3611 18.4333 15.3611C17.2111 15.3611 16.0389 15.8466 15.1747 16.7109C14.3105 17.5751 13.825 18.7472 13.825 19.9694Z" stroke="black" stroke-width="2" stroke-linecap="round" stroke-linejoin="round"/>
</g>
<defs>
<clipPath id="clip0_384_1719">
<rect width="36.8667" height="36.8667" fill="white"/>
</clipPath>
</defs>
</svg>
