<svg width="212" height="66" viewBox="0 0 212 66" fill="none" xmlns="http://www.w3.org/2000/svg">
<path d="M117.681 0H108.348V36.15H117.681V0Z" fill="#FBD600"/>
<path d="M113.91 42.2341C110.025 41.7458 106.758 44.991 107.245 48.8497C107.579 51.4769 109.713 53.5985 112.359 53.9312C116.243 54.4195 119.51 51.1744 119.024 47.3157C118.689 44.6885 116.556 42.5668 113.91 42.2341Z" fill="#FBD600"/>
<path d="M88.7791 8.81928H80.0242C75.2752 4.0661 68.5102 1.99199 61.7974 2.5883C51.8389 3.03337 42.5452 9.26435 40.5683 20.4689C37.6963 36.742 50.5832 48.5731 64.8258 47.5706C72.4554 47.091 79.203 43.0162 83.0569 36.9149H88.7791V51.304H97.4646V1.05432H88.7791V8.81928ZM64.2913 39.676C56.1143 40.2205 49.0495 34.0759 48.502 25.9566C47.9546 17.8373 54.1373 10.8156 62.3101 10.2712C70.4828 9.7267 77.5519 15.8713 78.0994 23.9862C78.6469 32.1098 72.4641 39.1316 64.2913 39.676ZM88.7791 26.6437H86.3938C86.5589 24.2325 86.346 21.7004 85.6856 19.0905H88.7791V26.6437Z" fill="#FBD600"/>
<path d="M165.258 7.75635C158.558 -1.19691 144.163 -2.47162 135.648 4.61061C123.56 14.6571 128.461 34.547 143.898 37.5026V43.323H129.356V51.3041H168.643V43.323H153.666V37.7186C167.287 34.9834 173.657 18.9782 165.258 7.75635ZM148.925 29.8845C142.925 29.8845 138.059 25.0536 138.059 19.0905C138.059 13.1274 142.925 8.29648 148.925 8.29648C154.926 8.29648 159.788 13.1274 159.788 19.0905C159.788 25.0536 154.926 29.8845 148.925 29.8845Z" fill="#FBD600"/>
<path d="M211.214 24.7856H197.319V20.6893H209.91V13.7885H183.858V7.96373H209.91V1.06299H178.649C176.607 1.06299 174.956 2.70931 174.956 4.7359V17.012C174.956 19.0429 176.611 20.685 178.649 20.685H187.986V24.7813H174.091V32.5463H184.349C182.92 33.1901 181.568 34.0154 180.352 35.0266C176.046 38.6044 174.074 43.5434 174.091 48.4089C174.074 53.2744 176.046 58.2134 180.352 61.7956C183.745 64.6172 188.151 66 192.557 66C198.375 66 204.197 63.5931 207.72 58.8832C210.14 55.651 211.231 51.9911 211.214 48.4089C211.231 44.8268 210.14 41.1668 207.72 37.939C205.922 35.5321 203.523 33.7389 200.829 32.5463H211.214V24.7813V24.7856ZM192.622 58.3863C187.078 58.3863 182.585 53.9183 182.585 48.4132C182.585 42.9082 187.078 38.4402 192.622 38.4402C198.166 38.4402 202.667 42.9082 202.667 48.4132C202.667 53.9183 198.17 58.3863 192.622 58.3863Z" fill="#FBD600"/>
<path d="M23.3407 34.2661L33.1645 34.279C35.2066 34.279 36.862 32.6413 36.8664 30.6104L36.9055 4.95194C36.9055 2.92103 35.2544 1.27039 33.2123 1.27039H4.34489C2.30714 1.27039 0.651733 2.91671 0.651733 4.94329V30.5888C0.651733 32.6197 2.30714 34.2617 4.34489 34.2617H14.0036V43.3187H0V51.2997H37.3443V43.3187H23.3407V34.2617V34.2661ZM9.33282 26.285V9.03534H28.2287V26.285H9.33282Z" fill="#FBD600"/>
</svg>
