<svg width="60" height="119" viewBox="0 0 60 119" fill="none" xmlns="http://www.w3.org/2000/svg">
<foreignObject x="-19.2297" y="-19.2297" width="98.4594" height="157.459"><div xmlns="http://www.w3.org/1999/xhtml" style="backdrop-filter:blur(9.61px);clip-path:url(#bgblur_0_384_2005_clip_path);height:100%;width:100%"></div></foreignObject><g data-figma-bg-blur-radius="19.2297">
<path d="M30 0.431641C46.3304 0.431641 59.5684 13.6696 59.5684 30V89C59.5684 105.33 46.3304 118.568 30 118.568C13.6696 118.568 0.431642 105.33 0.431641 89V30C0.431641 13.6696 13.6696 0.431641 30 0.431641Z" fill="#EDEDED" fill-opacity="0.1"/>
<path d="M30 0.431641C46.3304 0.431641 59.5684 13.6696 59.5684 30V89C59.5684 105.33 46.3304 118.568 30 118.568C13.6696 118.568 0.431642 105.33 0.431641 89V30C0.431641 13.6696 13.6696 0.431641 30 0.431641Z" stroke="url(#paint0_linear_384_2005)" stroke-width="0.862319"/>
<g filter="url(#filter1_di_384_2005)">
<rect x="54" y="6" width="48" height="48" rx="24" transform="rotate(90 54 6)" fill="#F0EAD6" shape-rendering="crispEdges"/>
<g clip-path="url(#clip1_384_2005)">
<path d="M18.3586 23.5327L26.1195 19.6522L33.8804 23.5327L41.6413 19.6522V36.4674L33.8804 40.3479L26.1195 36.4674L18.3586 40.3479V23.5327Z" stroke="black" stroke-width="1.72464" stroke-linecap="round" stroke-linejoin="round"/>
<path d="M26.1196 19.6522V36.4674" stroke="black" stroke-width="1.72464" stroke-linecap="round" stroke-linejoin="round"/>
<path d="M33.8804 23.5326V40.3478" stroke="black" stroke-width="1.72464" stroke-linecap="round" stroke-linejoin="round"/>
</g>
</g>
<path d="M35.1738 74.8805L35.1738 98.1631" stroke="white" stroke-width="1.72464" stroke-linecap="round" stroke-linejoin="round"/>
<path d="M24.8262 74.8805L24.8262 98.1631" stroke="white" stroke-width="1.72464" stroke-linecap="round" stroke-linejoin="round"/>
<path d="M41.6414 81.3478L18.3587 81.3478" stroke="white" stroke-width="1.72464" stroke-linecap="round" stroke-linejoin="round"/>
<path d="M41.6414 91.6957L18.3587 91.6957" stroke="white" stroke-width="1.72464" stroke-linecap="round" stroke-linejoin="round"/>
</g>
<defs>
<clipPath id="bgblur_0_384_2005_clip_path" transform="translate(19.2297 19.2297)"><path d="M30 0.431641C46.3304 0.431641 59.5684 13.6696 59.5684 30V89C59.5684 105.33 46.3304 118.568 30 118.568C13.6696 118.568 0.431642 105.33 0.431641 89V30C0.431641 13.6696 13.6696 0.431641 30 0.431641Z"/>
</clipPath><filter id="filter1_di_384_2005" x="3.24058" y="4.1029" width="53.5188" height="53.5188" filterUnits="userSpaceOnUse" color-interpolation-filters="sRGB">
<feFlood flood-opacity="0" result="BackgroundImageFix"/>
<feColorMatrix in="SourceAlpha" type="matrix" values="0 0 0 0 0 0 0 0 0 0 0 0 0 0 0 0 0 0 127 0" result="hardAlpha"/>
<feOffset dy="0.862319"/>
<feGaussianBlur stdDeviation="1.37971"/>
<feComposite in2="hardAlpha" operator="out"/>
<feColorMatrix type="matrix" values="0 0 0 0 0 0 0 0 0 0 0 0 0 0 0 0 0 0 0.23 0"/>
<feBlend mode="normal" in2="BackgroundImageFix" result="effect1_dropShadow_384_2005"/>
<feBlend mode="normal" in="SourceGraphic" in2="effect1_dropShadow_384_2005" result="shape"/>
<feColorMatrix in="SourceAlpha" type="matrix" values="0 0 0 0 0 0 0 0 0 0 0 0 0 0 0 0 0 0 127 0" result="hardAlpha"/>
<feOffset dx="2" dy="2"/>
<feGaussianBlur stdDeviation="2.15"/>
<feComposite in2="hardAlpha" operator="arithmetic" k2="-1" k3="1"/>
<feColorMatrix type="matrix" values="0 0 0 0 0 0 0 0 0 0 0 0 0 0 0 0 0 0 0.14 0"/>
<feBlend mode="normal" in2="shape" result="effect2_innerShadow_384_2005"/>
</filter>
<linearGradient id="paint0_linear_384_2005" x1="34.184" y1="-291.068" x2="265.247" y2="-95.6201" gradientUnits="userSpaceOnUse">
<stop offset="0.153811" stop-color="white"/>
<stop offset="1" stop-color="white" stop-opacity="0.1"/>
</linearGradient>
<clipPath id="clip1_384_2005">
<rect width="31.0435" height="31.0435" fill="white" transform="translate(14.4783 14.4783)"/>
</clipPath>
</defs>
</svg>
