<?xml version="1.0" encoding="UTF-8"?>
<svg id="Layer_2" data-name="Layer 2" xmlns="http://www.w3.org/2000/svg" viewBox="0 0 368.48 276.4">
  <defs>
    <style>
      .cls-1 {
        fill: #efead8;
      }
    </style>
  </defs>
  <g id="Layer_1-2" data-name="Layer 1">
    <g id="uoe8su">
      <path class="cls-1" d="M141.32,1.33l-.1,2.72-1.7.46.31,41.89,2.13.17c-.1.78.16,1.81,0,2.53-.07.3-1.36.2.03,1.55-.5,1.41.28,2.53-1.56,2.43l-4.17,18.63-15.29,19.05-24.93,10.38.37,3.11,1.76.37c.34.35-.25,2.6-.23,3.17.04,1.08.95,2.88.39,3.8-.4.65-1.48.42-1.69,1.96-.68,5.17.26,12.6.33,17.93.08,6.22.06,12.35.3,18.53.06,1.63-.36,5.9.27,7.02.61,1.06,1.74.87,1.86,2.7s-.62,1.66-.88,2.5c-.2.67.06,1.48-.19,2.24s-1.01.84-1.23,1.2c-.83,1.34.38,13.97.47,16.54l.59,24.32c.2,1.03,1.94.82,2.01,3.39.05,1.82-.87,2.51-1.09,3.61-.11.57.12,1.26,0,1.75-.08.31-.62.29-.76.51-.96,1.45,2,7.1,3.17,8.29.32.33,5.59,3.16,6.02,3.22.7.09.93-.58,1.68-.52s.8.83,1.04.87c.95.18,1.95-.25,3.22.6.41.28.09.94.51,1.39.14.15,3.39,1.56,3.79,1.68,2.54.78,8.06.74,10.42-.56,1.05-.58.73-1.02,1.18-1.56.2-.24,5.24-2.24,5.82-2.39,1.65-.41,2.67.01,4.17-1.61.32-.34,2.85-3.89,2.9-4.14.08-.36.36-3.3.31-3.57-.13-.83-1.05-.98-1.22-1.85-.12-.63-.12-3.32,0-3.94.24-1.23,1.26-.88,1.46-1.12.1-.12.08-1.53.59-2.3.37-.56,1.11-.82,1.24-1.19.72-2.08-.59-7.17.37-9.66-.76-10.25.97-21.84-.01-31.92-.18-1.82-.66-1.04-1.38-1.64-.79-.67-.28-1.74-.44-2.6-.11-.61-.67-.84-.73-1.06-.09-.35-.17-2.23-.04-2.44.28-.46,1.76-.99,2.16-1.97.09-.23.13-4.22.14-4.85.27-12.35-.24-24.74.01-37.09l-1.86-1.24v-2.95s2.74-1.13,2.74-1.13l.06-4.2,2.35-.84c.35-7.01-.32-14.26.03-21.24.52-10.49,3.72-19.61,8.62-28.75l8.86-10.89-.12-2.08,2.25-1.86c.72.58,1.18,1.68,2.28,1.51l-.87-3.6c1.42-1.2,1.92-.6,3.17-.64,1.16-.03,7.48-5.55,9.35-6.45l25.35-7.17,12.36.55c.85-2.79,2.74-1.26,4.44-.78,1.6.45,3.05-.06,3.22,2.01l18.71,6.45c7.43,5.35,13.53,12.66,20.45,18.75,2.59,5.39,4.26,11.23,6.74,16.66.67,1.48.78,1.8,2.55,1.55,0,.93.23,2.28.62,3.11.15.32.64.3.91.99.19.47.43,1.93.31,2.38-.08.32-.73.29-.88.7-.5,1.43.45,6.33.56,8.17.43,7.51.7,14.92.29,22.45l2.09.84c-.17,1.25.32,3.03.27,4.12-.02.45-.46.73-.51,1.16-.09.82.17,2-.06,2.67-.28.82-1.61.68-1.74.84-.09.11-.32,2.4-.35,2.84-.47,7.13-.07,14.98-.28,22.21-.16,5.67-.57,11.28-.61,17.01-.01,1.91-.94,2.58,1.81,3.19l-.66,7.38-1.79,1-.58,26.11c.09,4.51-1.06,10.57-.64,14.89.2,2,1.19,1.45,1.68,2.27.68,1.13-.17,4.8-.52,6.15-.29,1.14-1.02.97-.77,2.73.45,3.21,4.41,7.21,7.53,7.99,1.12.28,1.66-.25,2.51-.12,1.02.16,2.78,1.68,4.17,1.63l.62,2.27c1.7-.42,2.99,1.07,4.75,1.48,4.12.98,7.4-.11,11.36-.88l.3-1.68,5.61-1.99.36.65c1.72.26,5.51-4.1,6.22-5.63.41-.88,1.2-4.6,1.16-5.5-.04-.98-1.01-1.3-1.17-2.11-.11-.56.18-5.41.3-6.06.22-1.18,2.17-1.73,2.14-3.03.53-15.92.83-31.85,1.78-47.74-.05-1.05-1.8-1.35-2.05-2.16-.56-1.85-.01-3.23,1.76-3.9,1.93-.73,6.73-.97,8.96-1.07,9.55-.42,23.95-.14,33.11,2.17.43.11,3.1,1.07,3.34,1.22,1.14.72,1.54,3.34.82,4.33-.34.47-1.89.18-2.15,1.57-.11,16.34-1.58,32.59-1.83,48.91.16.83,1.84,1.21,1.84,3.63,0,1.37-.88,2.07-.91,2.2-.23,1.06.2,2.59-.48,3.72-.42.71-1.22.55-1.65,1.69-1.83,4.77-1.61,11.99-3.42,16.94l-14.83,21.02-17.12,10.16c-.39.33-.1.93-.25,1.34-.3.83-4.8,2.3-5.85,2.65l-.51-1.2c-.55-.39-10.74,2.85-12.57,3.02-5.18.48-11.97-.67-17.33-.94-2.27-.11-5.07.31-7.23-.06-.6-.1-7.96-2.99-8.54-3.33-.42-.25-.48-.85-.68-.88-.75-.12-1.26.9-2.04.86-.43-.02-4.06-.97-4.58-1.17-2.41-.94-1.99-2.24-3.23-3.45-3.34-3.26-11.14-5.75-14.72-9.28-3.94-6.59-10.05-13.08-13.78-19.65-2.81-4.95-2.05-13.56-4.08-19.01-.32-.87-.95-1.23-1.2-1.83-.76-1.83-2.34-5.13-1.29-6.89.36-.6,1.66-.62,1.68-1.37.11-5.28.13-10.54.27-15.82s.22-10.32.3-15.5c.03-1.81.85-9.35.16-10.47-.21-.35-.92-.41-1.31-1.13-.93-1.75-.14-3.47.22-5.13.12-.54-.1-1.22.07-1.75.19-.62,1.12-.61,1.48-.95.23-.22.57-4.6.61-5.46.55-11.98.49-24.76.58-36.79,0-.65.48-1.48.18-1.96-.26-.42-1.31-.65-1.6-1-.94-1.13.07-2.45-.11-3.07-.11-.39-.81-.36-.9-.7-.12-.45-.08-3.02,0-3.6.17-1.42,1.07-.99,2.15-1.5l.6-18.08-1.19-.03c-.27-.57-.19-2.03-.47-2.42-.31-.42-1.15-.15-1.54-.59-.11-.13-.93-2.64-.93-2.9-.01-.83,1.05-.4.77-2.09-.66-3.89-4.62-9.24-8.72-9.85-.72-.11-1.23.55-2.04.57-1.65.03-4.09-1.18-5.93-.93l-.15-1.22c-3.39-.63-8.43-.48-11.53,1.27-.36.2-4.3,3.21-4.47,3.44-.62.84.07,1.61.02,1.68s-1.25.33-1.64.65c-.53.44-.68,1.27-1.39,1.95-.9.85-2.08.91-2.59,1.36-.68.61-1.01,3.38-1.08,4.39-.5,7.19.4,14.95,0,22.2l.3.61,1.82.46-.36,4.79-2.54.95-.28,2.46-1.64.63-.67,42.36c.05.62.8.64,1.25,1.2.99,1.24.74,4.74.93,6.41l-.07.39c-.97.13-1.76.67-1.79,1.7l-.62,41.35c.06.52,1.37,1,1.7,2.26.52,1.99.13,2.88-1.36,4.13-.41.34-1.12.41-1.18.48-.15.18,0,.97-.21,1.46-.36.79-1.27,1.36-1.58,2.07-1.75,3.98-1.08,12.27-2.67,16.77l-14.11,22.05c-4.93,3.11-10.81,6.17-15.44,9.86-.26.2-.84.19-.95.35-.19.3.12,1.07-.32,1.66-.31.42-1.89.76-2.53,1.33-.46.41-.68,1.29-.92,1.44-.12.08-2.58.7-2.81.7-.75,0-1.21-.54-1.84-.62-2.47-.31-7.77,2.59-10.6,2.68-5.32.18-11.07-.39-16.41-.57-2.48-.08-5.52.3-7.89-.01-3.12-.41-7.39-3.25-10.64-3.94-.45,1.26-1.56.93-2.68.55-.42-.14-.64-.61-.86-.69-.92-.32-2.49-.31-3.33-1.21-.42-.45-.17-1.14-.36-1.33-.12-.12-.59.03-.76-.12-.19-.17-.08-.7-.57-1.12-3.72-3.18-11.14-5.48-15.03-8.99l-14.51-19.83c-1.89-5.26-2.08-12.76-4.11-17.77-.45-1.11-1.6-1.16-1.73-3.16-.05-.77.27-1.32.26-1.81-.03-1.05-.56-2.08-.21-3.25.2-.67,1.35-1.17,1.6-1.74.66-1.46-.38-9.76-.46-11.98-.33-8.97-.25-18.14-.89-27.06-.21-2.95-.99-1.87-1.8-3.37-.51-.94-.16-1.63-.39-2.34-.17-.53-1.01-.42-1.17-1.26-.18-.94-.04-3.5.75-4.13.29-.23.79-.19,1-.36.27-.21.1-5.85.07-6.76-.1-3.49-.52-7.13-.62-10.62-.22-7.92.34-16.87-.28-24.63-.04-.52-.26-2.27-.46-2.57-.31-.46-1.5-.43-1.64-.64-.08-.12-.35-2.62-.33-2.83.04-.56.55-.99.59-1.55.06-.84-.6-2.25-.31-3.29l1.81-.52.05-3.12-26.57-10.56-16.37-19.18-4.8-18.22c-.2-.55-1.31-.37-1.48-.57-.47-.57.11-4.79-.61-5.86l.46-.43,1.63-.04c.28-1.68-.27-3.43-.32-5-.27-9.02-.17-18.06-.58-27.07-.17-3.68-.84-7.38-.62-11.08H.01s-.01-2.53-.01-2.53C.1.78,3.15.42,3.8.38c13.09-.83,26.69-.03,39.84,0,14.49.04,29.22-.36,43.77,0,3.02.08,6.4.85,9.4.62C109.53-.02,124.53-.16,137.23.68c1.26.08,2.81.47,4.08.65Z"/>
    </g>
  </g>
</svg>