<?xml version="1.0" encoding="UTF-8"?>
<svg id="Layer_2" data-name="Layer 2" xmlns="http://www.w3.org/2000/svg" viewBox="0 0 175.16 216">
  <defs>
    <style>
      .cls-1 {
        fill: #3d8bbb;
      }
    </style>
  </defs>
  <g id="Layer_1-2" data-name="Layer 1">
    <g id="_15Dinc" data-name="15Dinc">
      <path class="cls-1" d="M123.83,8.07c1.58.37.83-1.47,2.09-1.47.51,0,2.9,1.11,3.18,1.44.47.54,0,1.33.37,1.97.19.32,1.99,1.26,2.5,1.61,6.41,4.42,13.21,8.68,19.62,13.37l16.99,27.83c1.54,6.57,1,15.13,2.73,21.46.35,1.3,1.88,1.91,2.12,2.72.26.87-.15,3.62.11,3.92.11.13.9.06,1.28.49.66.76.12,3.39.3,4.48-.11.47-2.26.76-2.55,2.67l-.51,51.4c3.01,2.62,2.05,5.55,2.08,9.13-.91.88-2.41,1.9-2.59,3.28-.61,4.59.12,11.55.03,16.48-.12,7.13-.57,14.45-.67,21.58-.03,2.07-.33,10.15.19,11.45.28.69,1.84,1.9,2.02,2.5.73,2.42-.42,5.63-2.54,7-6.82,4.42-22.45,4.76-30.46,4.4-5.21-.24-16.72-1.78-21.08-4.4-.35-.21-3.3-3.12-3.41-3.36-.43-.97-.44-4.43,0-5.48.49-1.2,1.29-1.27,2.27-1.92l.18-49.84c-.09-.81-2-1.25-2.23-1.97-.18-.57.07-1.3-.07-1.87-.16-.69-.57-.94-.65-1.93-.16-1.86.61-4.53,2.44-5.34-.05-17.51.95-35.19.19-52.68-3.13-.86-1.68-3.39-1.67-5.56,0-1.56-.75-3.38.1-5.07.26-.52.84-.34.92-1.01.5-4.03-1.17-8.98-3.89-11.95-.2-.22-3.25-2.62-3.46-2.68-1.11-.32-1.56.52-2.04.45-1.62-.25-3.6-1.86-2.89-3.73h-.97s0,.97,0,.97l-4.19-.97c.37-.57.47-1.93-.24-2.25-3.94-.95-7.05-1.96-11.22-1.63-1.79.14-5.36,1.26-7.02,2.02-.54.25-.92,1.38-2.14,1.23l.3,1.59-3.95.98c-.83,1.36-2.49,1.24-3.7,2.2l-1.81-1.19c-.37.03-6.21,3.03-6.64,3.36-2.75,2.08-4.71,7.6-4.58,10.94.05,1.26.93,2.01,1.02,3.53.14,2.48-1.15,5.09-.65,7.69l-2.3,1.66c.94,17.36-.23,34.83.66,52.19,3.07,1.58,1.86,4.32,2.02,6.76s1.46,2.55-1.85,4.11l.15,49.52c-.16,1.34,1.44,1.05,1.88,1.99.59,1.25,1,4.51.47,5.81-.16.41-2.62,2.8-3.06,3.06-4.01,2.39-14.35,4.39-19.11,4.76-8.42.66-19.16.04-27.32-2.03-1.64-.41-5.85-2.26-6.84-3.48-1.47-1.81-1.96-3.74-1.26-6.05.35-1.16,1.67-1.83,1.74-3.1l-.32-48.72c-.27-2.03-3.27-2.25-2.59-5.09.07-.3.89-.09.64-1.02-.03-.13-.59-.12-.65-.38-.12-.53-.09-2.58.06-3.1.28-.96,2.3-1.68,2.21-2.95.08-10.85-.49-21.77-.68-32.57-.1-6.13.54-12.63-.01-18.69-.15-1.61-1.83-1.37-2.42-2.73.11-2.55-1.1-6.42.04-8.73.4-.81,1.78-1.07,2.02-1.85.93-3.02,1.34-7.31,2.09-10.49,1.4-5.96,3.06-11.87,4.4-17.85l19.36-25.79,21.25-11.8c.3-.5-.31-1.72.36-2.38.14-.14,3.35-1.59,3.56-1.64.71-.17.96.54,1.73.52s1.98-.91,2.3-.88c.43.04.52,1.1,2.17.82,3.4-.57,8.69-4.27,12.04-4.75,9.82-1.41,21.57.22,31.59-1.01,4.41.49,9.16,2.92,13.28,3.81,2.58.56,3.01-.93,4.08-.89.98.04,2.32,1.08,3.44,1.13l-.33,4.03Z"/>
    </g>
  </g>
</svg>