<?xml version="1.0" encoding="UTF-8"?>
<svg id="Layer_2" data-name="Layer 2" xmlns="http://www.w3.org/2000/svg" viewBox="0 0 234.85 343.64">
  <defs>
    <style>
      .cls-1 {
        fill: #3d8bbb;
      }
    </style>
  </defs>
  <g id="Layer_1-2" data-name="Layer 1">
    <g>
      <path class="cls-1" d="M172.28,11.22c9.3,8.84,21.1,38.23,12.1,49.25-2.99,3.66-7.18,3.11-10.82,5.96-9.76,7.66-7.52,21.46-10.16,24.03-8.52,8.33-57.94-4.67-59.07-15.85-.59-5.81,3.33-6.5,4.62-9.51,12.37-28.82,18.92-37.94,44.58-56.12,7.54-5.34,12.4-3.79,18.74,2.24Z"/>
      <path class="cls-1" d="M100.48,190.12c2.81-.31,3.75,2.39,6.12,3.54,15.11,7.33,43.49,6.9,55.8-6.13.2,3.63-2.22,5.96-2.61,9.64-.92,8.79-.94,28.73-.03,37.53.83,8.02,6.68,12.31-1.19,19.31-10.92,9.71-47.21,10.07-56.83-1.3-5.74-6.78-.69-10.56.06-16.75,1.65-13.57-.4-32.11-1.32-45.84Z"/>
      <path class="cls-1" d="M63.03,279.14c-.97,4.84,3.69,4.45,7.17,7.69,15.09,14.09,7.09,61.71-20.44,55.26-3.1-.73-4.5-3.4-7.05-4.56-15.33-6.96-27.95-15.62-34.8-32.3-3.12-7.58-1.78-18.22-5.5-26.1,16.42,12.82,43.74,12.16,60.63,0Z"/>
      <path class="cls-1" d="M27.93,149.21c7.35-.63,31.59,1.32,28.47,12.87-3.08,11.41-45.3,12.34-48.66,0-2.55-9.36,13.95-12.34,20.19-12.87Z"/>
      <path class="cls-1" d="M162.41,124.31c-.38,3.5-2.21,5.93-2.57,9.67-.9,9.2-1.08,29.73-.09,38.8.69,6.37,6.05,11.28.13,18.01-9.63,10.94-49.64,11.02-58.86-.58-4.99-6.27.07-11.57.79-17.48,1.01-8.35.93-30.33,0-38.79-.43-3.92-3.26-6.77-2.61-10.93,14.3,16.34,47.61,15.59,63.21,1.29Z"/>
      <path class="cls-1" d="M63.03,214.62c-.95,14.93-2.84,33.58-1.32,48.43.36,3.47,2.62,5.78,2.68,8.96.13,7.92-7.27,12.54-13.97,14.51-11.46,3.36-39.57,3.71-47.64-6.46-4.73-5.96.28-12.82.94-18.3,1-8.24.87-29.11,0-37.5-.38-3.68-2.81-6.01-2.61-9.64,15.81,14.86,45.99,13.68,61.92,0Z"/>
      <path class="cls-1" d="M188.74,59.04c-1.07.63-2.79,3.4-5.66,3.33-.25-3.34,3.2-3.73,3.83-7.12,2.87-15.31-5.98-35.55-17.39-45.78l-9.68-5.14c6.96.18,13.8-3.21,19.99-3.89,13.26-1.46,46.69.18,52.93,14.19,8.13,18.25-8.66,50.22-29.53,48.61-6.25-.48-9.57-7.07-14.49-4.2Z"/>
      <path class="cls-1" d="M113.38,326.86c.6-1.73,2.24-2.46,2.6-4.57,1.89-11.09-19.39-39.82-29.8-43.84-3.17-1.22-6.69,2.66-6.35-1.24,10.02-5.38,22.53-11.56,20.64-25.16,5.12,2.23,9.46,6.01,15.16,7.41,14.34,3.53,34.63,2.25,45.48-8.71l-5.81,27.08c-6.88,17.44-15.76,26.23-28.29,38.81-3.8,3.81-4.53,10.4-13.64,10.22Z"/>
      <path class="cls-1" d="M2.79,154.38c9.86-10.83,51.61-11.59,59.03,1.47,4.07,7.16-.66,11.28-1.43,16.78-.69,4.95-.69,22.27,0,27.23.6,4.32,3.39,5.74,2.74,11.59-1.9,17.11-49.71,17.59-60,5.66-6.11-7.08-1.39-10.16-.68-17.25.76-7.49.47-20.76-.06-28.46-.41-6.07-5.42-10.63.39-17.01ZM26.62,149.18c-5.39.57-19.52,3.77-19.84,10.58,3.57,14.28,34.48,13.32,44.26,7.39,20.14-12.2-13.21-19.15-24.43-17.97Z"/>
      <path class="cls-1" d="M162.41,90.76c-1.05,5.45-3.34,10.34-2.64,16.17.86,7.2,8.51,11.22.58,19.82-10.25,11.12-54.3,12.3-60.49-2.47-3.01-7.19,1.17-10.29,1.83-14.89,1.74-12.14,2.22-24.55,1.38-36.69,2.19-.16,1.14,2.86,2.51,4.56,9.53,11.89,42.58,17.78,56.83,13.5Z"/>
      <path class="cls-1" d="M115.67,325.32c-1.08,1.87-14.51,9.04-17.49,10.23-13.2,5.25-27.43,7.49-41.58,8.09.95-2.32,5.09-1.86,7.64-3.31,14.94-8.52,17.97-39.38,7.24-52.2-1.96-2.34-4.76-2.87-5.84-5.11,7.67,4.13,12.44-4.86,17.51-5.16,11.83-.72,38.53,37.07,32.53,47.46Z"/>
    </g>
  </g>
</svg>