<?xml version="1.0" encoding="UTF-8"?>
<svg id="Layer_2" data-name="Layer 2" xmlns="http://www.w3.org/2000/svg" viewBox="0 0 218.07 280.46">
  <defs>
    <style>
      .cls-1 {
        fill: #efead8;
      }
    </style>
  </defs>
  <g id="Layer_1-2" data-name="Layer 1">
    <g>
      <path class="cls-1" d="M216.06,101.44c-4.41,8.88-3.75,20.26-7.86,29.08-1.66,3.56-22.79,29.42-26.01,31.94-6.09,4.78-34.94,13.36-36.08,14.94,11.74,34.19-68.39,32.83-75.15,9.98-1.55-5.25,1.49-9.57,1.19-9.98-1.37-1.93-32.19-11.06-42.01-20.99-16.89-17.09-21.92-33.29-27.94-55.98l16.45,7.53c13.2,4.82,28.19,4.19,41.61.53,4.45-1.21,12.84-6.87,14.56-6.72,2.43.21,11.68,5.53,17.21,6.76,10.68,2.39,25.6,2.7,36.2,0,4.89-1.25,13.26-6.97,16.55-6.67,7.79.7,22.68,9.59,36.29,9.54,11.5-.05,24.53-5.58,34.98-9.95Z"/>
      <path class="cls-1" d="M173.68,4.07c9.41-.88,39.89,2.11,36.09,16-7.56,15.27-52.52,14.67-58.67,1.41-5.41-11.67,14.09-16.61,22.58-17.4Z"/>
      <path class="cls-1" d="M107.8,4c10.83-.28,24.91,2.21,31.41,11.57.1,16.11-27.66,17.1-39.54,15.39-33.63-4.82-20.7-26.22,8.13-26.97Z"/>
      <path class="cls-1" d="M41.21,4.66c42.61.93,33.59,30.66-7.98,26.81C-3.9,28.02,6.21,3.89,41.21,4.66Z"/>
      <path class="cls-1" d="M179.74,0c9.66-.16,34.68,4.21,37.91,14.93l.42,81.42c-12.36,19.59-44.69,17.15-64.55,10.66-3.44-1.12-7.68-5.67-10.04-5.29-2.9.46-13.05,7.49-21.24,8.79-22.55,3.59-39.67-8.01-48.92-7.1-3.79.37-12.25,6.51-18.61,7.52-14.94,2.37-56.25,1.18-54.66-20.51.32-4.42,3.62-7.06,4.29-11.86,1.31-9.32.76-32.19,0-42.17s-7.61-14.63-.98-24.76C10.35.93,41.33.16,53.02,1.7c6.19.82,18.35,7.69,21.83,7.39,3.81-.33,12.85-6.42,20.53-7.33,6.96-.83,18.85-.93,25.84-.3,8.23.74,20.63,7.9,23.58,7.64C152.42,8.4,165.93.24,179.74,0ZM67.61,22.92c1.34-1.49,2.17-3.6,1.64-5.59C63.72.69,11.39,3.09,10.09,16.56c-1.63,16.86,47.27,17.77,57.53,6.36ZM99.68,6.04c-6.31.92-15.17,3.66-19.3,8.79-6.78,20.72,68.04,20.51,56.82-1.34-9.92-8.39-25.02-9.26-37.52-7.44ZM207.45,22.92c1.31-1.48,2.64-4.17,2.23-6.1-8.69-13.64-30.9-13.15-45.2-9.94-5.89,1.33-14.41,4.72-14.26,11.68,1.13,14.32,48.35,14.4,57.23,4.36Z"/>
      <path class="cls-1" d="M70.18,191.35c6.86,2.08,9.99,7.06,17.56,9.4,13.73,4.24,35.6,3.53,48.83-1.97,5.06-2.1,7.66-6.41,11.52-9.43-2.87,17.95-2.47,36.75-2.07,55.03.13,6.21,2.72,12.32,2.28,17.9-1.95,24.72-76.72,23.85-78.12-.18-.24-4.06,3.48-9.61,4.1-15.72,1.07-10.58,1.05-33.53-.06-44.11-.47-4.53-1.88-7.16-4.04-10.92Z"/>
    </g>
  </g>
</svg>