<?xml version="1.0" encoding="UTF-8"?>
<svg id="Layer_2" data-name="Layer 2" xmlns="http://www.w3.org/2000/svg" viewBox="0 0 332.42 341.47">
  <defs>
    <style>
      .cls-1 {
        fill: #3d8bbb;
      }
    </style>
  </defs>
  <g id="Layer_1-2" data-name="Layer 1">
    <g>
      <path class="cls-1" d="M271.77,20.74c3.09,3.29,14.64,9.24,19.55,13.37,15.6,13.15,19.63,22.01,29.05,39,.79,1.43,3.1,1.53,4.57,4.81,8.88,19.83-34.51,31.65-48.95,29.58-13.63-1.96-8.84-10.43-11.78-17.9-2.54-6.48-19.65-20.36-27.7-18.12,15.62-13.25,31.31-34.32,30.98-55.46,3.75-.87,3.05,3.41,4.29,4.72Z"/>
      <path class="cls-1" d="M138.42,88.28c-.52,2.78-3.83,1.76-5.25,3.45-1.3,1.55-5.33,12.17-5.78,14.54-2.34,12.56,6.85,22.26-8.28,29.15-12.08,5.5-37.2,5.9-48.26-2.18-10.22-7.47-3.85-12.34-2.45-21.43,2.96-19.24,4.06-31.51,14.31-48.92,2.52-4.29,6.71-7.7,8.52-10.84,1.48-2.59.82-6.82,3.97-8.94,2.62,20.33,24.15,39.83,43.23,45.17Z"/>
      <path class="cls-1" d="M137.52,131.72c6.16,4.37,16.99,8.32,22.19,13.32,12.42,11.94,20.89,33.29,23.8,49.74,1.62,9.18-1.12,13-9.09,16.56-12.26,5.47-51.11,6.82-52.36-11.64-.13-1.99,1.12-4.18.99-6.29-.47-7.98-10.45-6.95-10.41-9.02,12.75-14.53,18.6-37.03,20.63-56.12,3.17-.85,2.95,2.53,4.25,3.45Z"/>
      <path class="cls-1" d="M3.3,209.14c13.94,10.5,48.42,10.87,60.26-3.46.2,3.63-2.23,5.96-2.61,9.64-.91,8.79-.94,28.75-.03,37.53.83,7.96,6.35,11.59-1.36,19.15-11.44,11.23-59.67,11.27-59.38-8.92.06-3.85,2.35-5.96,2.82-10.2.93-8.56.84-28.93-.05-37.55-.38-3.68-2.81-6.01-2.61-9.64,1.86.03,1.97,2.72,2.95,3.46Z"/>
      <path class="cls-1" d="M329.04,205.27c.98-.74,1.09-3.43,2.95-3.46.29,3.3-2.18,4.99-2.64,8.32-1.01,7.45-.86,29.88-.02,37.58.67,6.23,6.38,13.46-.31,19.5-10.44,9.44-46.07,9.54-56.25-.37-7.27-7.08-1.98-10.24-1.44-17.94.73-10.42,1.08-28.58.08-38.76-.41-4.12-1.75-5.94-2.63-9.61,11.36,14.91,46.32,15.25,60.26,4.75Z"/>
      <path class="cls-1" d="M267.13,15.06c4.97,5.37-5.96,26.08-9.31,31.95-3.16,5.55-14.13,23.09-20.67,23.1-5.04,0-5.66-4.67-8.05-6.4-7.19-5.22-30.88-6.26-39.38-3.73-.66.2-2.4,4.72-5.99,2.33-2.6-1.72-9.44-58.94-7.78-61.65,3.69-2.02,5.34,1.27,9.54,1.31,36.3.37,37.01-1.27,71.65,10.85,2.23.78,6.92-1.08,9.99,2.24Z"/>
      <path class="cls-1" d="M330.39,139.5c.65-.62.66-8.58,1.66-.25-2.94,12.49-4.48,33.74-2.69,46.49.86,6.18,6.29,12.25.1,19.32-10,11.42-58.92,10.93-60.68-6.6-.41-4.04,2.27-7.43,2.58-11.49.77-10.1,1.07-28.91.06-38.79-.48-4.71-2.89-7.59-2.64-12.18,2.17.64,2.23,3.4,4.47,5.19,13.12,10.43,44.95,10.03,57.14-1.7Z"/>
      <path class="cls-1" d="M183.62,266.33l2.58.66c-.83,2.86-2.31,4.46-2.64,7.68-1.02,9.86-.77,28.71-.02,38.8.55,7.34,5.8,11.92-.69,18.55-10.29,10.51-46.24,10.65-56.93.99-6.81-6.16-.99-14.47-.31-20.79.9-8.3.82-27.9-.05-36.26-.38-3.68-2.81-6.01-2.61-9.64,10.87,14.45,45.97,14.84,58.76,3.88,1.17-1,1.73-2.37,1.9-3.87Z"/>
      <path class="cls-1" d="M60.55,271.02c.23-.17,4.33-6.47,3.04-1.46-.56,2.16-2.31,3.38-2.67,6.37-.99,8.3-.98,31.82.03,40.11.76,6.27,5.8,9.98.06,16.75-9.81,11.59-45.79,11.12-56.83,1.3-8.15-7.25-2.01-11.58-1.17-19.29.86-7.93,1.02-31.19-.02-38.87-.45-3.33-2.93-5.02-2.64-8.32,12.68,15.08,45.06,14.68,60.21,3.41Z"/>
      <path class="cls-1" d="M84.72,183c-1.1.55-1.77,4.28-6.95,1.37-6.22-3.5-23.12-53.69-19.37-57.4,7.92-1.95,7.63,2.61,11.97,5.46,13.62,8.93,51.67,11.08,57.74-8.03,2.44,1.05,4.6,1.66,5.16,4.51,1.75,8.85-10.93,46.88-17.55,53.46-5.37,5.34-8.42-1.16-13.07-2.23-7.05-1.62-11.86-.21-17.95,2.86Z"/>
      <path class="cls-1" d="M175.84.52l7.75,61.27c-2.38,3.61-2.9-.65-6.72-.42-7.18.44-25.96,10.71-30.15,16.47-3.71,5.09-1.58,11.46-11.18,10.16-12.34-1.67-39.85-28.83-39.82-41.69.02-7.74,4.11-5.13,8.52-8.35,16.69-12.2,25.14-22.65,46.42-29.71,6.4-2.12,13.16-2.54,18.83-4.45,3.17-1.07,2.05-4.42,6.35-3.28Z"/>
      <path class="cls-1" d="M79.05,186.32c-4.05-.52-10.79.72-13.61,3.81-5.39,5.9,3.59,16.11-10.91,22.64-12.39,5.57-40,6.31-50.62-3.2-7.85-7.04-1.4-12.9.68-19.63,5.84-18.93,10.49-34.5,27.37-47.47,7.72-5.93,19.13-7.56,25.81-15.48,2.28,17.18,7.29,34.87,15.62,50.17.88,1.61,6.71,8.32,5.66,9.17Z"/>
      <path class="cls-1" d="M122.95,204.39c1.99.41,1.91,2.63,4.15,4.22,13.67,9.7,40.68,8.1,54.26-1.59l3.51-9.08c3.13,6.25-.96,9.82-1.32,14.79-.78,10.87-.82,27.96-.01,38.8.57,7.63,6.12,12.47-1.34,19.2-10.72,9.67-50.52,10.79-58.04-2.41-3.95-6.93.68-10.16,1.43-15.49.95-6.77.94-32.06,0-38.84-.49-3.55-3.46-5.71-2.64-9.6Z"/>
      <path class="cls-1" d="M331.99,263.74c-.3,4.08-2.2,6.53-2.64,10.9-.77,7.7-1.03,28.92,0,36.26.77,5.5,5.5,9.62,1.43,16.78-7.42,13.05-49.38,12.08-59.03,1.47-5.81-6.39-.81-10.94-.39-17.01.71-10.41,1.07-28.64.06-38.79-.44-4.37-2.34-6.82-2.64-10.9,14.55,16.03,47.63,16.06,63.21,1.29Z"/>
      <path class="cls-1" d="M270.46,139.48c-4.26-6.02.33-9.45.83-13.22.79-5.98,1.12-16.37-2.52-21.21,16.22,6.25,34.53.03,48.4-9.04l10.96-12.9c-1.35,11.79,1.76,23.56,2.64,35.54.16,2.2-1.16,4.36-.97,6.23.41,4.11,3.78,5.61,1.63,12.49-4.75,15.21-52.02,14.74-60.96,2.11Z"/>
    </g>
  </g>
</svg>