<?xml version="1.0" encoding="UTF-8"?>
<svg id="Layer_2" data-name="Layer 2" xmlns="http://www.w3.org/2000/svg" viewBox="0 0 204.59 199.14">
  <defs>
    <style>
      .cls-1 {
        fill: #efead8;
      }
    </style>
  </defs>
  <g id="Layer_1-2" data-name="Layer 1">
    <g>
      <path class="cls-1" d="M98.46,107.89c-5.5,11.82-5.47,33.73-4.1,47.04,1.11,10.79,9.55,21.41-.04,31.71-15.8,16.96-79.81,17.56-91.88-3.74-6.11-10.79,1.04-15.71,2.2-23.98,2.24-15.97.07-39.52-4.09-55.04,7.64,2.87,10.98,8.41,19.42,11.53,19.9,7.36,45.51,5.7,65.03-2.02,4.16-1.64,6.65-7.66,13.46-5.51Z"/>
      <path class="cls-1" d="M163.89,61.28c51.92-10.76,33.23,74.48-8.48,73.53-41.55-.95-26.62-66.26,8.48-73.53Z"/>
      <path class="cls-1" d="M124.06,18.42c11.41-.6,20.33,5.31,28.44,12.45,3.14,2.76,4.48,6.9,8.02,9.96,11.92,10.3,28.23,9.84,37.87,24.07,24.35,35.93-28.35,97.92-66.63,70.61-5.82-4.15-6.98-8.96-11.25-12.73-15.15-13.4-36.88-10.74-43.93-32-9.8-29.54,15.9-70.71,47.47-72.36ZM139.05,127.22c26.59,24.01,74.72-32.79,49.19-58.16-28.51-28.33-76.57,33.44-49.19,58.16Z"/>
      <path class="cls-1" d="M134.42,17.98l-19.6,3.35c-26.13,7.79-47.3,42.83-37.83,69.04,3.66,10.13,18.01,11.1,21.47,19.52-20.58,11.12-53.41,15.4-75.92,8.96-10.48-3-19.8-6.61-21.98-14.97-.87-3.32,1.42-8.27,2.11-12.89C6.94,62.4,17.09,35.5,36.82,13.27,43.85,5.34,54.81.07,65.5,0c7.93-.05,40.28,5.44,47.42,8.5,6.57,2.82,12.02,11.42,21.5,9.48Z"/>
    </g>
  </g>
</svg>