<?xml version="1.0" encoding="UTF-8"?>
<svg id="Layer_2" data-name="Layer 2" xmlns="http://www.w3.org/2000/svg" viewBox="0 0 491.55 125.56">
  <defs>
    <style>
      .cls-1 {
        fill: #3d8bbb;
      }
    </style>
  </defs>
  <g id="Layer_1-2" data-name="Layer 1">
    <g>
      <path class="cls-1" d="M92.74,4.29v60.64c-13.1-4.78-30.36,9.74-32.14,22.69-1.11,8.04,2.88,23.88-.79,28.89-9,12.3-57.16,13.92-59.81-7.08,3.62-17.25,5.61-33.72,13.11-49.94C27.72,27.86,58.59,8.76,92.74,4.29Z"/>
      <path class="cls-1" d="M245.03,1.71c4.38-.58,6.5,2.55,10.94,2.73,13.07.52,47.12.26,59.48-1.34,2.21-.29,2.4-4.4,7.01-2.69l-1.29,63.24c-4.09,1.31-3.13-2.4-5.72-2.69-11.08-1.26-22.68,1.06-33.58,1.44-9.21.33-21.22-1.27-29.82-.15-2.22.29-2.39,4.4-7.01,2.68V1.71Z"/>
      <path class="cls-1" d="M397.32,62.35V3.65c0-1.38,2.62-1.9,4.19-1.72,7.89.92,24.89,6.79,32.41,10.29,38.1,17.75,49.35,47.76,55.1,86.84.76,5.13,4.6,5.99,1.05,12.81-7.42,14.25-48.83,14.21-57.9,1.45-5.61-7.9.23-11.15.03-19.29-.48-19.58-14.81-35.37-34.88-31.67Z"/>
      <path class="cls-1" d="M245.03,63c-.4,1.42-2.93,2.35-4.48,1.98-.97-1.3-.33-2.44-2.53-2.73-11.57-1.49-51.85-1.49-63.41,0-2.22.29-2.39,4.4-7.01,2.68V1.71c4.62-1.72,4.8,2.39,7.01,2.68,10.95,1.42,54.08.97,64.4-1.4,1-.23.87-2.5,1.54-2.61,1.34-.56,4.48.93,4.48,1.98v60.64Z"/>
      <path class="cls-1" d="M91.46,6.23c-.03-.57-1.78-1.89-1.3-3.22,4.32-2.49,5.96,1.09,9.62,1.36,15.45,1.11,47.19,1.71,62.09.02,2.59-.29,1.63-4,5.73-2.68v63.22c-4.1,1.32-3.13-2.39-5.73-2.68-12.52-1.42-38.76-.88-51.76.05-6.21.44-12.22,1.76-17.99,3.93-2.93-1.74-.67-2.73-.67-3.23,0-18.43,1.09-38.59,0-56.77Z"/>
      <path class="cls-1" d="M321.17.42c3.33-.3,4.98,2.18,8.32,2.65,10.22,1.44,49.17,1.38,59.5,0,3.01-.4,4.58-2.3,7.66-2.67,4.06-.49.66,1.51.66,1.96v61.29c-4.1,1.32-3.13-2.39-5.73-2.68-12.52-1.42-51.13-1.59-63.41,0-2.22.29-2.39,4.4-7.01,2.68V.42Z"/>
    </g>
  </g>
</svg>