<?xml version="1.0" encoding="UTF-8"?>
<svg id="Layer_2" data-name="Layer 2" xmlns="http://www.w3.org/2000/svg" viewBox="0 0 359.42 140.46">
  <defs>
    <style>
      .cls-1 {
        fill: #3d8bbb;
      }
    </style>
  </defs>
  <g id="Layer_1-2" data-name="Layer 1">
    <g>
      <g>
        <path class="cls-1" d="M158.47,6.04c15.47-2.44,52.16-2.93,54.2,18.08-11.14,19.49-60.65,19.27-73.71,4.42-10.46-11.9,9.25-20.88,19.51-22.5Z"/>
        <path class="cls-1" d="M220.33,14.13c7.11,8.95-.45,18.08-1.46,26.33-1.42,11.67-1.62,48.71-.04,60.1,1.3,9.37,9.59,16.01.14,27.34-14.1,16.9-74.34,16.26-89.41.98-9-9.13-1.22-20.32-.47-30.33,1.09-14.42,1.66-44.24-.02-58.09-.65-5.36-3.96-9.03-4.21-13.95-1.66-32.72,79.04-33.09,95.47-12.38ZM139.6,28.97c11.11,13.29,72.73,11.86,72.66-6.43-.05-14.66-33.65-17.64-44.26-16.94-10.53.7-41.12,8.15-28.4,23.37Z"/>
      </g>
      <g>
        <path class="cls-1" d="M33.64,6.04c15.47-2.44,52.16-2.93,54.2,18.08-11.14,19.49-60.65,19.27-73.71,4.42C3.67,16.64,23.38,7.66,33.64,6.04Z"/>
        <path class="cls-1" d="M95.5,14.13c7.11,8.95-.45,18.08-1.46,26.33-1.42,11.67-1.62,48.71-.04,60.1,1.3,9.37,9.59,16.01.14,27.34-14.1,16.9-74.34,16.26-89.41.98-9-9.13-1.22-20.32-.47-30.33,1.09-14.42,1.66-44.24-.02-58.09C3.59,35.1.27,31.43.03,26.51-1.63-6.21,79.07-6.57,95.5,14.13ZM14.77,28.97c11.11,13.29,72.73,11.86,72.66-6.43-.05-14.66-33.65-17.64-44.26-16.94-10.53.7-41.12,8.15-28.4,23.37Z"/>
      </g>
      <g>
        <path class="cls-1" d="M294.46,6.04c15.47-2.44,52.16-2.93,54.2,18.08-11.14,19.49-60.65,19.27-73.71,4.42-10.46-11.9,9.25-20.88,19.51-22.5Z"/>
        <path class="cls-1" d="M356.32,14.13c7.11,8.95-.45,18.08-1.46,26.33-1.42,11.67-1.62,48.71-.04,60.1,1.3,9.37,9.59,16.01.14,27.34-14.1,16.9-74.34,16.26-89.41.98-9-9.13-1.22-20.32-.47-30.33,1.09-14.42,1.66-44.24-.02-58.09-.65-5.36-3.96-9.03-4.21-13.95-1.66-32.72,79.04-33.09,95.47-12.38ZM275.59,28.97c11.11,13.29,72.73,11.86,72.66-6.43-.05-14.66-33.65-17.64-44.26-16.94-10.53.7-41.12,8.15-28.4,23.37Z"/>
      </g>
    </g>
  </g>
</svg>