<?xml version="1.0" encoding="UTF-8"?>
<svg id="Layer_2" data-name="Layer 2" xmlns="http://www.w3.org/2000/svg" viewBox="0 0 105.96 273.33">
  <defs>
    <style>
      .cls-1 {
        fill: #3d8bbb;
      }
    </style>
  </defs>
  <g id="Layer_1-2" data-name="Layer 1">
    <g id="ykbDEx">
      <path class="cls-1" d="M98.19,43.61c.1.17.56.13.7.88.7,3.62.8,7.32,1.27,10.97,1.05,8.11,2.41,16.07,2.86,24.22.21,1.11,2.7,1.6,2.92,3.19.1.71-.21,5.36-.37,6.07-.4,1.78-1.96.94-2.23,3.01-1.07,8.37.33,18.06-.31,26.49.61,6.94-.85,15.35-.04,22.14.16,1.33,1.76,1.61,2.06,2.08.48.75-.35,2.49.25,3.45-.75,1.84.11,4.58-1.57,6.25-.57.57-1.29-.06-1.28,1.85.11,15.16-.09,30.67-.04,46.06,0,1.07,1.73,2.06,1.99,2.96.08.26.39,4.17.37,4.59-.05,1.14-1.32,4.54-2.66,4.68-.05,11.55.12,23.1.03,34.65-.02,2.99-.79,7.78.05,10.7.19.68,1.78,2.28,1.92,2.74.57,1.91-.58,5.87-2.13,7.07-8.63,6.7-30.71,6.58-40.98,4.06-2.37-.58-4.52-2.21-6.94-2.66-.68-1.22-3.35-2.65-3.83-3.74-.31-.71-.61-5.4-.29-6.11.37-.82,2.44-1.83,2.45-2.45-.82-14.88.26-30.05-.55-44.9-2.81-1.37-1.19-2.48-1.46-4.01-.04-.22-.54-.06-.61-.61-.1-.74-.1-4.62.08-5.21.32-1.06,2.06-.5,2.29-2.95.89-9.58-.21-21.68-.33-31.46-.05-4.23.07-8.37-.01-12.54-.02-.95.65-2-.12-2.76-.49-.49-1.59-.36-1.84-1.07l-.36-9.24c.11-.39,1.83,0,2.07-1.77v-48.96c-.33-.87-1.2-1.16-2.02-1.33.17-.77-.33-1.88-.3-2.46.06-.9.54-2.41.49-3.7-.02-.61-.58-1.28-.39-1.98.34-1.29,2.25-.44,2.51-2.45-.78-4.33,0-10.22-1.13-14.33-.28-1-2.78-5.73-3.42-6.77-.81-1.32-2.6-2.29-4.11-2.58-1.17-.22-12,.73-13.24,1.1-.23.07-2.63,2.22-4.03,2.73-2.34.85-7.98,1.39-10.21.39s-6.5-4.71-7.91-6.64C.39,43.13-1.12,30.8.7,18.55c.28-1.89,2.64-8.49,3.63-10.06.6-.95,5.03-5.96,5.87-6.36C11.93,1.32,17.25,0,19.13,0c2.21,0,5.08,2.03,7.56,2.06,3.47.04,8.06-.97,11.63-1.16s4.14.43,7.11,1.32c10.63,3.18,21.04,7.4,31.57,10.9,1.55,1.82,3.34,3.82,4.74,5.74,5.28,7.22,12.09,17.04,16.44,24.75Z"/>
    </g>
  </g>
</svg>