<?xml version="1.0" encoding="UTF-8"?>
<svg id="Layer_2" data-name="Layer 2" xmlns="http://www.w3.org/2000/svg" viewBox="0 0 144.99 333.74">
  <defs>
    <style>
      .cls-1 {
        fill: #efead8;
      }
    </style>
  </defs>
  <g id="Layer_1-2" data-name="Layer 1">
    <g id="YGzIEd">
      <path class="cls-1" d="M4.17,0c.3.5.38,1.6.82,1.9.7.47,6.35.16,7.78.17,5.45.06,11.08-.07,16.64.12l36.54,12.05,23.97,27.99,6.52,36.23c.64,2.03,2.43,1.79,2.74,2.7l-.35,3.91c1.63.09,3.17-.51,4.69-.96,2.06-.6,9.28-3.65,10.59-3.65h24.92v-2.1c4.62-.6,4.59.85,5.02,4.83,1.26,11.81,1.44,31.89-.81,43.19-.21,1.07.14,3.04-.65,3.96-.71.83-4.9.31-6.3.4-9.56.59-19.18.39-28.8.52-.83,1.22-3.72,1.85-4.37,2.55-.46.51-1.4,2.87-1.95,3.71-3.17,4.82-5.2,7.49-3.94,13.9.27,1.38,1.39,1.1,1.58,2.16s.1,9.66-.21,10.29-1.39.78-1.68,1.25c-.56.91-.11,5.79-.19,7.35-.41,8.18-.24,16.03-.18,24.22.02,2.78-.94,11.73-.04,13.69.29.62,1.38,1.08,1.69,2.08.2.63.26,6.08.13,6.84-.2,1.2-1.49,1.71-1.82,2.41-.64,1.4-.11,6.6-.2,8.6-.18,4.22-1.15,33.87-.21,35.4.17.28.84.35,1.05.71.68,1.15,1.23,5.67,1.18,7.06s-1.35,1.88-1.72,2.81c-.87,2.16-.2,9-.3,11.86-.31,9.19-1.17,19.31-.45,28.5.2,2.54,1.05,1.85,1.5,3.1.4,1.12.87,4.1.53,5.19-.1.34-2.66,3.72-3.13,3.97-9.84,5.31-24.68,5.89-35.4,3.32-2.9-.7-3.28-1.39-5.24-2.41-1.38-.71-2.46-.7-3.9-1.86-3.11-2.51-3.82-5.51-2-9.16.27-.55,1.03-.56,1.17-1,.64-2.04-.03-3.96-.01-5.75.07-9.94,1.18-24.55.03-33.98-.32-2.66-2.66-4.37-2.54-7.94.07-2.22,1.91-3.7,2.14-5.86,1.36-12.81-1.09-28.05,0-41.12-1.77-3.34-3.37-6.57-2.13-10.48.37-1.16,1.66-1.94,1.72-2.48.81-7.02-.35-15.25-.46-22.22-.06-3.59.62-20.64-.2-22.43-.25-.54-1.21-1.01-1.56-1.79-1.11-2.51.51-2.26.57-3.02.07-1.08-.47-2.02-.47-2.95,0-1.56.94-3.15-.03-4.96l2.55-1.83c.94-20.62-.33-41.29-.39-61.96l-2.13-2.71,1.26-.22c.18-.97-2.18-2.66-1.21-5.4.35-.97,1.83.13,2.05-2.56.16-1.97-.43-11.27-1.09-12.74-.37-.81-5-8.13-5.39-8.44-.48-.39-9.91-4.66-10.67-4.83l-25.74-.21c-.54,2.07-1.95,2.37-3.97,2.06-.83-1.62-.32-3.46-.48-5.18C-.03,35.51-.49,18.38.65,4.98c.14-1.7.15-3.45,1.01-4.98h2.51Z"/>
    </g>
  </g>
</svg>