<?xml version="1.0" encoding="UTF-8"?>
<svg id="Layer_2" data-name="Layer 2" xmlns="http://www.w3.org/2000/svg" viewBox="0 0 427.73 405.41">
  <defs>
    <style>
      .cls-1 {
        fill: #efead8;
      }
    </style>
  </defs>
  <g id="Layer_1-2" data-name="Layer 1">
    <g id="_6jpI4T" data-name="6jpI4T">
      <path class="cls-1" d="M72.32,142.42h3.29c.48.48-.69,5.29-1.25,5.88-.74.77-7.59,3.44-9.03,3.84-13.1,3.61-42.01,3.36-55.57,1.11-.95-.16-6.66-2.16-7.63-2.63-1.53-.74-2.49-4.53-1.98-6.17s3.21-1.53,3.73-6.68l.12-65.58c4.26-5.63,9.71-10.22,14.48-15.36,6.98-7.52,13.51-15.47,20.72-22.81,2.21-2.26,5.61-6.18,8.2-7.68,3.39-1.97,7.55-2.66,10.76-4.55,8.4-4.93,21.44-10.08,30.56-13.81,3.65-1.49,6.68-3.88,10.97-3l.65-3.19c1.47-.34,3.11.2,4.57-.08,1.6-.31,1.56-1.94,4.39-1.68,3.41.32,3.58,3.56,4.44,3.85s1.89-.48,2.7-.45c.95.03,1.72.88,2.74,1,11.13,1.39,24.28.53,34.82,4.05,13.32,4.45,27.27,10.91,40.29,16.11,2.61,1.04,6.73,1.56,9.5,3.09,2.3,1.28,8.31,10.74,10.09,10.75,2.85-1.86,4.9-5.65,7.37-7.98,4.31-4.07,23.47-9.63,30.08-12.08,6.57-2.45,19.04-8.71,25.12-9.92,10.76-2.15,23.35-1.08,34.17-2.47.63-.08,4.59-.86,4.76-1.04.2-.21-.03-1.56.57-2.44,1.84-2.69,7.65-.07,10.45-.78l.51,3.05c4.51-.06,8.29,1.79,12.36,3.52,14.04,5.96,27.69,13.12,41.61,19.17l41.02,43.85,1.45,2.94c.14,12.05-.25,24.13-.05,36.18.15,8.52-.1,20.32.58,28.44.07.84.55,4.23.81,4.67.65,1.1,3.07.5,3.07,3,0,1.51-1.58,3.26-1.23,5.12-2.13.37-4.54,2.13-6.48,2.56-1.74.38-3.13.04-4.64.29-16.15,2.65-30.49,2.74-46.69.1-5.65-.92-19.11-2.14-16.47-10.7.48-1.54,2.44-1.29,2.93-2,1.13-1.64-.27-11.35-.32-13.96-.18-8.35-.01-16.75.45-25.08-1.25-2.99-3.96-4.85-5.88-7.27-1.17-1.47-2.34-3.8-3.3-4.94-1.77-2.12-15.82-10.19-18.6-10.94-1.39-.38-2.9-.41-4.31-.16-.86,3.22-1.91,4.22-5.33,2.66l.04-2.76c-2.31-.53-1.12,1.91-1.36,3.29l-3.82-.02-.26-2.19c-1.19-1.76-12.85.36-15.37.57-5.6.46-13.11.33-18.48,1.23-1.47.25-17.35,8.6-17.96,9.42s-.47,2.07-.95,2.88c-1.54,2.6-7.33,10.73-7.74,13.07-.93,5.3.56,12.9-.52,18.5.26.93,2.18,1.09,2.57,2.37.34,1.1.25,10.96-.17,11.67s-2.23,1.11-2.73,2.2v71.71c2.77,1.66,3.1,6.1,2.45,8.95-.13.56-1.5.1-1.1,1.73.06.25,1.09.03,1.17,1.07.38,4.89-2.9,2.69-3.37,6.02-.04,19.18.12,38.36.05,57.54,0,1.44-.62,2.79-.62,4.35,0,2.28,1.16,5.03.57,7.58.19.79,1.85.54,2.13,1,.11.17.91,3.73.93,4,.1,1.31-1.01,3.27-.87,4.32.06.43,1.09-.12,1.17,1.67.19,4.37-3.14,3.57-3.36,4.51v66.73c-.21,1.53,1.33,2.01,1.9,3.02.99,1.78,1.46,7.52.35,9.03-.27.37-4.95,4-5.56,4.3-13.72,6.59-46.28,6.95-60.77,2.26-1.05-.34-1.65-1.43-2.52-1.86-3.25-1.64-7.9-2.86-9.25-6.63-1.64-4.58.21-6.84,3.05-10.14l-.31-66.52c-.55-.99-2.69-2.83-2.91-3.71-.31-1.22.59-2.19.5-3.09-.04-.39-1.02-.07-1.17-1.12s-.06-3.19.19-4.29c.38-1.69,2-2.06,2.52-2.92,1.22-2.02.73-37.22.64-42.68-.02-1.29-.57-2.49-.59-3.79-.13-6.55,1.1-18.39.01-24.1-.32-1.68-2.26-2.17-2.61-3.41s-.88-9.61-.55-10.73c.27-.91,1.55-1.49,2.01-2.37,1.36-2.59.69-32.25.64-37.73-.1-10.33-.73-20.78-.6-31.21.01-1,.57-2.05.53-2.76-.07-1.37-2.48-2.41-3-4.03-.2-.64-.75-4.12-.72-4.72.04-.97.85-1.6.92-2.25.15-1.48-2.22-2.95,1.58-5.07,1.48-.83,1.92,1.08,2.3-2.57s1.18-13.42.35-16.65c-.34-1.36-7.55-13.27-8.75-14.79-1.48-1.86-16.39-10.71-18.77-11.34-2.62-.7-6.47-.39-9.17-.69-4.97-.55-9.97-1.54-14.76-2.21-2.77-.39-6.36.35-9.25,0l-.91,3.31-6.83-1.66-.32,1.59c-4.2,1.57-4.35-2.91-7.45-3.06-1.11-.05-3.53,1.13-4.68,1.64-2.34,1.04-11.27,5.55-12.78,6.93-1.25,1.13-1.5,2.5-2.43,3.59-3.06,3.57-6.16,6.94-9.07,10.7-.68.77.3,1.61.3,1.89v38.6Z"/>
    </g>
  </g>
</svg>