<?xml version="1.0" encoding="UTF-8"?>
<svg id="Layer_2" data-name="Layer 2" xmlns="http://www.w3.org/2000/svg" viewBox="0 0 110.36 128.46">
  <defs>
    <style>
      .cls-1 {
        fill: #3d8bbb;
      }
    </style>
  </defs>
  <g id="Layer_1-2" data-name="Layer 1">
    <g id="_6Ut0VE" data-name="6Ut0VE">
      <path class="cls-1" d="M110.36,114.74c-.72,2.12-1.18,4.32-2.9,5.91-8.52,7.87-27.53,8.47-38.28,7.42-7.32-.71-15.2-2.08-21.28-6.28-.54-.38-1.27-.79-1.74-1.15-1.39-1.04-3.05-3.89-3.31-5.6-.53-3.56,1.79-6.19,2.06-9.52.35-4.48.2-9.43-.21-13.88-.5-5.4-1.79-14.36-5.18-18.65-.59-.74-1.81-1.33-2.5-2.07-.56-.24-1.06.27-1.64.42-5.54,1.35-9.72,1.52-14.9-1.27C9.75,64.3,2.78,49.81.84,38.14c-.36-2.19-.12-3.8-.23-5.76-.03-.56-.58-1.4-.6-2.28C-.16,20.71,3.19,7.44,11.87,2.45,15.14.57,20.45-.31,24.17.1c1.65.18,3.97,1.2,5.74,1.51,2.89.51,6.11.56,9.04,1.11,5.36,1,10.66,3.13,15.91,4.6.83.23,1.06,1,1.37,1.11s.79-.02,1.16.08c4.04,1.1,11.07,7.22,14.92,9.62,5.43,3.38,6.93,5.75,10.91,10.53,3.32,3.98,9.78,10.79,11.08,15.64.25.93-.31,1.43.82,1.66,1.62,5.25,4.75,10.37,6.42,15.54.55,1.71.82,3.79,1.25,5.59.89,3.77,1.79,7.77,2.69,11.6,1.56,6.62,2.15,15.41,2.58,22.28.19,3.1-.58,6.64,1.27,9.3l1.01,4.06v.41Z"/>
    </g>
  </g>
</svg>