<?xml version="1.0" encoding="UTF-8"?>
<svg id="Layer_2" data-name="Layer 2" xmlns="http://www.w3.org/2000/svg" viewBox="0 0 509.72 254.36">
  <defs>
    <style>
      .cls-1 {
        fill: #efead8;
      }
    </style>
  </defs>
  <g id="Layer_1-2" data-name="Layer 1">
    <g id="iz9YZt">
      <path class="cls-1" d="M298.05,2.71l28.06.02c13.56,4.2,26.76,8.21,40.24,12.57,1.64.53,4.37.71,5.68,1.8.86.71,1.5,2.27,2.11,3.04,8.85,11.13,17.82,22.45,26.25,33.87.47.63,2.8,3.32,2.92,3.72.26.89-.08,1.98.08,2.9.09.5.54.85.63,1.36.71,3.78,1.09,7.68,1.71,11.24.42,2.38,1.63,10.94,2.62,12.32.53.74,1.61,1,1.69,1.65-.45,4.51.98,9.85.29,14.27-.3,1.91-2.29,2.13-2.57,3.07-.4,1.31-.65,5.34-.73,6.91-.1,1.93.06,3.88,0,5.81.96-.1,3.54.57,4.26-.06.38-.33-.02-2.28,1.56-2.59.72-.14,2.86-.11,3.63.01.83.13,1.64.84,2.42.9.86.07,1.73-.37,2.88-.24,2.16.25,6.26,2,8.7,2.6,7.6,1.85,16.98,3.86,24.12,7.03.75.33,2.57,2.05,3.47,2.57,3.84,2.24,8.11,4.33,11.79,6.74,5.28,3.46,8.59,8.17,12.91,12.74,1.77,1.87,4.8,3.84,6.26,6.03.63.94.82,2.16,1.32,3,5.26,9,9.59,16.76,12.66,26.86,3.68,12.11,4.26,20.64,5.01,33.18.31,5.15,3.31,8.12.53,13.45-1.5,2.87-5.5,5.3-8.42,6.52-12,5.01-31.5,3.79-43.01-2.22-2.3-1.2-5.4-3.34-7.22-5.49-1.95-2.31-2.84-5.22-2.32-8.27.3-1.74,1.84-3.86,2.16-5.81.94-5.85.5-16.76-1.68-22.26-2.28-5.76-9.48-10.95-14.67-13.88-2.15-1.21-5.14-2.04-7.6-1.76-.63.07-.61.81-1.48,1.2-.93.41-3.48.42-3.62.54-.12.1-.04.86-.52,1.3-.72.67-2.24.61-3.16.68l-.2.98-2.44-.06-1.57-3.24c-2.4-.41-4.97.25-7.25.3-8.92.21-17.72-.22-26.58.66l-26.58.3-.36,1.04c-1.82.35-1.73-.64-2.29-.71-1.59-.21-3.63.21-5.28.01l-.88,2.51c-1.3,1.06-2.93.19-4.16.22-1.54.05-3.31.5-4.95.29l-.73-2.36c-1.74.25-3.63-.04-5.27,0-14.84.44-29.72,1.04-44.52,1.36-5.92.12-13.67-.66-19.29-.02-2.56.29-1.37,1.35-1.98,2.66-.42.9-2.75.79-3.64.65-.51-.08-.91-.64-1.34-.64-.93,0-3.99,2.06-5.68.69l-.61-2.04c-.6-.89-4.24,0-5.32.03-8.76.25-17.51.14-26.27.3-1.83.03-3.57.57-5.62.33-.62-.07-1.19-.66-1.69-.65-.63.01-.89.94-1.98,1.03-1.03.08-2.98-.05-4.31-.02-6.09.15-11.24-.37-17.28.33-2.79.32-5.95-.37-8.81.33l-.38,2.61c-2.93-.24-6.13.84-9,.28-2.41-.47-1.23-1.94-1.9-2.42-7.77.19-15.63.32-23.46.51-10.32.25-20.61.7-30.87,1.02-4.03.13-8.32-.29-12.3-.01-.53.04-3.32.38-3.5.49-.95.56-.66,3.46-3.96,2.53l-.18.97-1.13-.06-.08-.88c-1.57.31-3.28-1.4-4.18-1.65-.78-.22-1.69.05-2.52-.14-1.71-.38-1.38-1.69-4.69-1.23-2.73.38-11.15,6.64-13.34,8.73-7.25,6.92-7.74,18.53-6.11,27.91.2,1.15.47,2.82.72,3.93.27,1.23,2.27,3.84,2.51,4.79.29,1.13.37,5.22-.03,6.3-.02.07-.38.13-.52.37-1.15,2.12-2.82,4.5-4.81,5.91-12.46,8.81-40.02,14.01-53.76,6.32-.86-.48-4.73-3.65-5.17-4.3-.7-1.05-1.57-5.74-1.45-7.07.14-1.57,1.32-2.51,1.38-2.95.37-3.13-.58-6.31-.56-9.26.09-11.48,2.01-22.7,4.62-33.83,1.58-6.74,5.19-13.21,8.12-19.45,2.46-5.23,3.49-7.44,7.51-12.07,2.74-3.15,5.85-6.78,8.84-10.09,3.67-4.07,7.53-6.6,12.24-9.75,7.94-5.31,14.49-8.61,23.48-11.99,5.1-1.91,10.54-2.69,15.87-4.39,1-.32,2.07-1.3,3.15-1.5,1.2-.22,2.5.12,3.57-.09.72-.14,1.17-.95,2.14-1.18s4.58-.6,5.24-.04c.4.34.76,1.33.76,1.89l1.18-.3c.17-.01-.01.58.62.66,4.79.59,11.08-.33,15.96-.38,15.93-.16,32.37.11,48.19-.98,1.06-.07,4.14.3,4.65-.33.29-.35.22-1.11.59-1.57.99-1.23,3.35-.55,4.7-.77.53-.09.92-.56,1.66-.66.47-.07,3.25-.05,3.45.07l1.1,2.55,40-.6c.79-.02,1.51-.34,2.3-.36,9.58-.23,19.2-.1,28.75-.65.18-.18-.4-2.07.55-2.28.76-.25,3.7.04,4.53.31.34.11.25.99,1.24.64l.54-2.02,3.79.16.85,2.54c4.09-.08,8.19.04,12.29,0,6.07-.07,12.19-.57,18.24-.69,13.46-.26,26.97-.14,40.38-.65l.19-2.36c.51-.36,8.37-.81,9.11-.46s1.04,1.7,1.01,2.48l4.31-.32-.31-14.43c-.08-.37-.81.02-1.04-.4-1.35-2.46-1.92-6.79-1.63-9.56.07-.63.56-1.18.66-2,.15-1.25-.2-2.75.01-3.97.3-1.71,1.97-2.12,1.57-4.27-.11-.58-1.51-2.04-1.85-2.8-.17-.4.05-1.1-.12-1.36-.14-.22-1.16-.15-1.64-.61-1.06-1.02-2.36-3.92-3.3-5.24-1.17-1.65-2.25-3.26-3.67-4.63-.4-.38-.61-1.04-1-1.32-.32-.23-6.98-1.73-7.81-1.82-6.54-.78-15.81.51-22.56.66-.94.02-4.17-.81-4.75.05-.19.28,0,.99-.37,1.45-.5.65-5.28.96-5.77-.27l-1.24-66.82c.34-1.82,4.31-1.04,5.77-1.12l.5.5.04,2.11Z"/>
    </g>
  </g>
</svg>