<?xml version="1.0" encoding="UTF-8"?>
<svg id="Layer_2" data-name="Layer 2" xmlns="http://www.w3.org/2000/svg" viewBox="0 0 227.2 208.81">
  <defs>
    <style>
      .cls-1 {
        fill: #3d8bbb;
      }
    </style>
  </defs>
  <g id="Layer_1-2" data-name="Layer 1">
    <g id="HLXwUo">
      <path class="cls-1" d="M119.86,7.36l.71-.14c-.06-.57.75-1.17,1.23-1.14.19.01,2.59,1.21,2.83,1.41.74.63.28,1.82.76,2.32,3.39,2.24,6.89,4.38,10.25,6.66,3.55,2.41,7.16,5.06,10.77,7.51l16.1,26.49,2.96,22.32,1.87,1.52.12,3.96c2.19.71.89,2.75,1.1,4.55l-2.23,2.32v9.91c2.08-.2,4.06.56,6.02,1.15,9.39,2.8,18.28,6.27,27.69,8.99,2.27,2.53,4.08,5.44,6.15,8.13,4.61,5.98,9.87,12.18,14.22,18.41,2.81,4.02,3.01,10.08,4.06,14.84.09.39.58,2.36.67,2.52.23.44.64.28.88.54.54.59,1.11,1.87,1.14,2.68.04,1.14-.53,2.88-.48,3.86,0,.14.41.11.46.28.1.41.06,2.19-.05,2.65-.32,1.43-1.99,1.1-2.23,3.47-.74,7.38-.12,15.54-.68,23.01-.07,1.93-.95,9.96-.25,11.11.14.22.57.28.8.62.67.98,1.16,4.19.69,5.22-.35.78-1.61,1.17-1.87,1.44-.14.15-.06.55-.29.73-.2.16-4.42,1.56-4.93,1.68-9.58,2.3-22.81,1.12-32.26-1.4-.61-.16-.77-.72-1.03-.83-1.76-.77-3.22-.73-4.72-2.29-1.71-1.78-2.01-3.58-.81-5.82.39-.72,1.49-1.43,1.6-2.04.14-8.68.41-17.3.22-25.95-.05-2.18.4-6.56,0-8.39-.04-.2-1.75-1.35-1.8-2.08.63-2.22.06-5.36.49-7.48.15-.71,1.8-2.71,1.76-2.98-1.26-1.4-2.68-2.65-3.97-4.01-.59-.62-3.13-3.77-3.53-3.98-.6-.32-6.03-.89-6.36-.56-.27,1.13-.1,4.84-.51,5.73-.45.98-1.59,1.94-2.23,2.79v13.45c0,.54-.22,1.04-.24,1.58-.12,4.95-.08,9.85-.46,14.8.56,5.37-.85,11.62-.22,16.87.26,2.15,2.63,2.57,2.29,5.93-.1.97-1.21,3.28-1.9,3.9-.22.2-4.83,2.35-5.35,2.51-10.19,3.24-26.14,2.69-36.54.45-1.37-.3-7.9-2.24-8.64-2.99-.21-.21,0-.67-.26-.97-.38-.44-1.98-1.31-2.32-1.9-.61-1.05-.05-1.86-.16-2.57-.06-.37-.5-.65-.54-.95-.03-.23.35-2.44.47-2.62.36-.57,1.94-.69,2.12-1.3.38-15.97.52-32.01.51-48.01.01-.65-1.85-1.02-2.02-1.28-.21-.33.09-1.74-.04-2.31-.04-.19-.42-.17-.52-.43-.44-1.08-.21-4.95.76-5.75.72-.6,1.22.05,1.5-1.41-.1-16.6.53-33.27.33-50.03l-2.03-.86-.05-.3c-.19-1.44.24-2.96.25-4.33.02-1.15-.57-3.58.1-4.45.2-.25.61-.2.79-.35.7-.54-.32-6.06-.27-7.24-.07-.3-2.89-4.98-3.15-5.27-.16-.17-3.19-2.46-3.39-2.53-1.21-.38-1.96.3-2.3.25-.13-.02-2.1-1.04-2.26-1.16-.8-.59-.05-1.28-.23-2.16-.75-.26-1.3.45-1.9.45-.84,0-2.13-.79-3.1-.69l-.04-2.01c-1.66-.49-3.33-.9-5.03-1.23-2.2-.44-5.52-.64-7.83-.4-1.74.18-3.82,1.59-5.29,2.27-.29.14-2.01.63-2.08.73l.21,1.8-4.1.69.22.9-3.3,1.32-1.26-1.21c-1.92,1.25-4.89,2.08-6.67,3.36-.51.36-3.94,4.69-4.02,5.09.13,2.1-.85,4.3-.71,6.38.07.99.54,1,.78,1.74.3.92,0,2.86-.09,3.94-.03.33-.4.56-.42.91-.05.9.71,2.83-.12,3.56-.43.38-1.71.44-1.91,1.05-.09,1.2-.02,2.4-.04,3.6-.26,15.64.46,31.42.23,47.14l.12.34c1.83.74,2.69,3.28,2.38,5.11-.08.47-.64.88-.44,1.49l.7.13c.47,2.51-.58,2.65-2.3,3.91.2.92-.2,2.17-.16,2.96.07,1.45.38,3.32.4,4.95.17,13.31-.24,26.68.1,39.97,1.39.66,2.09,2.62,2.34,4.04.08.44-.03,2.96-.19,3.29-.08.17-2.44,2.45-2.69,2.61-.84.55-6.42,2.67-7.54,2.94-10.66,2.52-29.31,3.26-39.51-.84-1.25-.5-2.24-1.41-3.65-1.59-2.56-3.37-3.2-6.59-.12-9.88-.25-8.23-.29-16.56-.42-24.83-.05-3.26-.22-6.86-.29-10.24-.04-1.96.32-11.64-.21-12.55-.79-1.36-2.51-1.9-2.29-4.08.04-.39.52-.66.46-1.13-.01-.12-.42-.1-.47-.28-.09-.37-.07-2.74.04-3.1.21-.69,1.82-1.74,2.11-2.45.36-.9-.09-1.52-.11-2.37-.06-2.81.01-5.67,0-8.43-.07-13.35-.29-26.67-.79-39.97-.61-.55-1.93-1.17-2.11-1.98-.06-.28-.27-2.46-.25-2.7.03-.35.43-.59.44-.9,0-.29-.4-.57-.45-.92-.17-1.32.09-1.71.39-2.79.07-.25-.14-.57-.05-.74.17-.32,1.55-.95,1.87-1.76.48-1.2.67-3.39.99-4.71,1.55-6.5,3.13-13.11,4.71-19.66.94-3.88,1.21-3.89,3.47-7,5.32-7.3,10.94-14.32,16.2-21.62l20.46-11.31-.1-2.03c.94-.24,2.77-1.55,3.52-1.72.33-.07.74.35,1.26.36.8.01,1.93-.62,2.74-.48.65.11.27,1,1.81.68,3.34-.69,8-3.69,11.41-4.76,2.42-.11,4.87.11,7.29,0,5.53-.25,11.41-.74,17.07-.93,4.33-.14,7.58-.09,11.75,1.02,2.8.75,5.95,2.1,8.77,2.62,1.88.35,1.99-1.1,2.68-1.08.21,0,3.29.98,3.65,1.14.15.06.3.09.32.28l-.39,3.32Z"/>
    </g>
  </g>
</svg>