<?xml version="1.0" encoding="UTF-8"?>
<svg id="Layer_2" data-name="Layer 2" xmlns="http://www.w3.org/2000/svg" viewBox="0 0 253.81 282.97">
  <defs>
    <style>
      .cls-1 {
        fill: #efead8;
      }
    </style>
  </defs>
  <g id="Layer_1-2" data-name="Layer 1">
    <g>
      <path class="cls-1" d="M160.44,92.41c-.44-7.1-1.15-18.25-4.55-24.66-.16-.3-1.09-1.17-1.4-1.45-1.59.07-3.57-.13-4.88,1.06-.4.36-.5,1.22-1.13,1.43-2.13.73-5.01.98-7.21,1.37-5.2.91-10.92,1.43-16,2.68-2,.49-5.83,2.4-7.88,3.22-1.15.46-4.45,2.05-5.41,2.73-.03.85-.06,1.71-.08,2.56h0c.02-.85.05-1.71.08-2.56-.07-3.55-1.3-2.06-2.7-4.36-.63-1.04-1.02-3.78-1.25-5.1-1.09-6.28-2.24-12.55-3.44-18.81-.42-2.28-1.75-11.16-2.74-12.73-1.65-2.62-6.91-7.75-9.13-10.34-3.8-4.43-7.8-8.63-11.61-13.04-.71-.82-2.65-2.94-3.58-3.28-4.67-1.73-10.22-3.14-15.03-4.5l-11.39-3.22c-2.75-.79-7.27-2.25-9.99-2.42-1.87-.12-5.53.09-7.48.18l-14.22.61c-2.59.12-5.34.27-7.92.33C9.8,2.13,8.62-.07,6.05,0c-.96.03-2.47.28-3.07,1.1C.22,4.94-.16,18.69.05,22.81c.25,4.38.17,11.26,1.03,15.39.22,4.79,1.75,11.12,3.79,15.48,1.94,1.26,2.65,1.07,4.99.96,1-.79,1.5-1.32,2.39-2.26l17.49-.74c4.25-.21,9.2-.61,13.43-.31,1.66.11,9.03,3.09,10.23,4.26.95.93,4.66,6.52,4.96,7.8.74,3.14.7,8.1.74,11.48-1.93,2.67-2.3,3.61-1.94,6.9,0,0,0,0,0,0,.05,2.71.14,2.8,2.08,4.73v60.4c0,2.49-1.4,3.46-1.92,5.48-.48,1.88-.03,5.49.14,7.52.66,1.3,3.34,2.08,4.72,2.52,10.09,3.26,34.82,3.86,46.1-.45-11.28,4.31-36.02,3.71-46.1.45-1.38-.45-4.06-1.22-4.72-2.52-.11,2.4.28,3.19,1.68,5.11.24,2.68-.06,6.69-.09,9.54l-.11,21.97c0,3.92-.09,11.72.5,15.39-2.97,2.08-2.47,4.04-2.09,7.38h0l.02.41c.12,2.27.52,2.86,2.03,4.5v47.32c-.35.26-.95.67-1.24.96-.7.71-1.07,1.68-1.02,2.68.05,1.06.29,2.84,1.14,3.56,5.64,4.81,28.7,4.48,36.21,3.95,4.24-.3,14.11-1.16,16.82-4.47.87-1.07,1.03-2.43.85-3.76-.19-1.44-1.22-2.05-2.28-2.88v-30.77c.01-5.44-.09-11.15.14-16.57,1.83-2.31,1.93-2.62,2.04-5.53h0c.67-3.33.33-4.49-2.18-6.57.22-5.47.11-11.59.11-17.1l.04-30c1.54-1.82,2.21-2.86,2.02-5.31h0c.68-2.54.07-7.98-1.78-10.08.05-6.63-.47-8.52,3.29-14.36.66-1.03,2.18-3.98,2.93-4.81,1.77-1.99,9.32-6.75,11.62-7.63,2-.77,8.85-1.54,11.27-1.98,3.22-.58,6.92-1.1,10.19-1.67,1.6-.28,1.21.2,2.28.95,1.49,1.06,3.83.63,5.48.33,3.56-5.05,3.52-21.63,3.12-28.04ZM89.72,86.83c-.14,0-.27.02-.4.02.14,0,.27-.02.4-.02ZM108.11,83.9c-2.28.78-5.29,1.45-8.69,1.96,3.41-.51,6.41-1.18,8.69-1.96,1.27-.44,2.55-1.44,3.58-2.36-1.03.92-2.31,1.92-3.58,2.36Z"/>
      <path class="cls-1" d="M253.7,268.41c-.22-1.28-1.22-1.83-2.23-2.49-.07-9.17-.09-18.33-.06-27.5,0-5.95-.03-11.92.06-17.87.04-2.61,1.31-3.46,2.08-5.79.1-.31.04-1.82.03-2.24h0c.24-1.72.16-2.7-.1-4.41-.4-.37-.81-.74-1.2-1.12-1.43-1.37-.9-5.56-.86-7.57.04-2.71.05-5.42.03-8.13v-34.66c.33-.36.66-.73.97-1.11,1.4-1.71,1.37-3.09,1.16-5.11-.05.03-.12.08-.17.12.05-.04.12-.08.17-.12-.22-1.2-.32-2.8-.43-4.04-.93-1.39-1.25-1.55-2.67-2.31-.96-3.25-1.67-7.76-2.32-11.16l-2.52-12.67c-.45-2.3-1.5-9.41-2.74-10.91-5.77-6.93-12.48-13.85-18.46-20.67-1.07-1.22-3.71-4.31-4.84-5.16-2.09-1.59-6.47-2.79-9.06-3.74-4.9-1.8-9.82-3.58-14.74-5.33-3.56-1.27-9.46-3.58-12.95-4.46-1.38-.35-8.96-.78-10.54-.86-3.01-.17-9.16-.84-11.93-.61-.8-1.31-1.13-1.53-2.3-2.44-1.24.15-2.28.02-3.58.27.3.28,1.24,1.15,1.4,1.45,3.4,6.41,4.11,17.56,4.55,24.66.39,6.41.44,23-3.12,28.04,1.14,0,1.61-.05,2.74-.23l1.8-1.8,14.79,1.08c1.28.09,6.57.39,7.55.72,2.75.92,8.53,4.05,10.53,6.3,1.1,1.23,2.03,3.23,2.85,4.41,3.56,5.18,2.27,7.32,2.86,12.75-1.33,1.89-2.48,3.22-2.06,5.73.1.57.23,1.12.4,1.67,11.45,6.49,37.41,5.65,50.34,1.83.53-.16,1.13-.45,1.74-.79-.61.34-1.21.63-1.74.79-12.93,3.82-38.9,4.66-50.34-1.83.03,2.49.51,3.56,1.89,5.55l.08.11c.52,7.84.13,19.12.14,27.2l.02,13.99c0,2.51.1,5.8-.12,8.21l-1.64,1.5c-.65,2.04-.47,3.66-.21,5.79h0c.15,2.21.47,3.17,1.88,4.86.57,11.92-.21,24.32.14,36.29.1,3.42.11,7.5-.15,10.89-2.47,2.06-2.71,4.58-1.27,7.35,7.88,5,30.32,4.94,39.51,3.71,3.55-.48,11.76-1.41,14.02-4.48.79-1.07.86-2.36.64-3.64Z"/>
    </g>
  </g>
</svg>