<?xml version="1.0" encoding="UTF-8"?>
<svg id="Layer_2" data-name="Layer 2" xmlns="http://www.w3.org/2000/svg" viewBox="0 0 245.22 322.35">
  <defs>
    <style>
      .cls-1 {
        fill: #3d8bbb;
      }
    </style>
  </defs>
  <g id="Layer_1-2" data-name="Layer 1">
    <g id="klPIMK">
      <path class="cls-1" d="M239.07,55.84c4.19,7.45,1.08,29.13,3.29,37.78.31,1.2,2.42,1.05,2.69,2.13.48,1.87-.32,5.04,0,7.18-7.05,6.03-46.54,6.99-50.91,1.19-3.56-4.72.41-7.43.98-10.49.45-2.38.41-11.59-.02-14.02-.48-2.74-3.7-5.92-4.24-8.03-.65-2.57.73-3.93-1.2-8.2-3.62-8.03-8.06-7.34-15.59-8.86-3.03-.61-3.3-2.95-7.71-.95-2.62,1.19-7.4,8.5-11.15,10.49-1.9,1.01-3.81.66-5.16,1.43-7.75,4.38-9.81,8.97-8.58,17.88.28,2.06,1.53,3.08,1.85,4.74.97,5.04-.74,8.53-.82,14-.16,10.44-1.39,27.14-.09,36.82.54,4.02,4.47,5.23,2.85,12.01-4.16,17.46-.53,33.14,1.03,50.96.43,4.93-1.5,5.95-2,9.43s.67,40.88,1.49,42.86c3.76,9.05,1.47,5.02.39,12.69s-.6,26.89.01,34.93c.8,10.39,8.3,15.13-4.81,18.66-7.98,2.14-36.22,3.33-42.57-1.36-3.7-2.73,0-5.78.43-8.81,1.03-7.31.11-34.76-.94-42.47-.38-2.8-3.02-6.11-2.61-9.27.23-1.78,2.32-2.94,2.63-5.73.33-3-.98-5.62-1.05-8.45-.16-6.79,1.32-30.07-.46-34.38-3.88-9.36-1.23-5.61-.37-13.62,1.03-9.58.38-31.84-.96-41.55-.34-2.46-1.92-3.62-2.04-6.52-.15-3.63,1.64-4.71,2.04-7.51.74-5.18-.95-10.34-1.03-15.08-.2-11.48,1.55-20.38-2.35-31.07-1.68-4.61,1.42-6.17,2.3-9.55,1.37-5.27.98-11.26,1.05-16.67-4.25-1.77-9-9.94-12.27-11.56-1.98-.99-2.5,2.18-5.57,1.03-5.04-1.88-8.17-10.94-13.7-10.94-3.37,0-4.91,3.3-7.1,4.3-3.17,1.44-5.96-.14-7.29,5.87-.91,4.1,1.43,8.99-3.93,11.13-9.86,3.93-36.74-2.74-43.69-10.92-4.34-5.11-.22-6.34,1.37-10.72,5.69-15.59,12.32-25.03,25.03-35.68,4.1-3.44,3.56-6.16,10.86-7.57,16.51-3.19,31.95-6.12,48.48,1.1,3.74,1.63,10.63,7.99,14.79,10.65,1.03.66,2.45-.05,3.27.44,4.28,2.54,9.12,6.21,5.88,11.14,6.27,8.56,12.51-4.6,18.7-8.3,15.29-9.13,30.89-12.78,48.39-12.69,2.24.01,4.44-1.23,6.59-1.11,1.44.08,24.1,11.45,25.91,12.75,13.15,9.46,20.48,25.34,27.86,38.47Z"/>
    </g>
  </g>
</svg>