<?xml version="1.0" encoding="UTF-8"?>
<svg id="Layer_2" data-name="Layer 2" xmlns="http://www.w3.org/2000/svg" viewBox="0 0 418.81 270.85">
  <defs>
    <style>
      .cls-1 {
        fill: #efead8;
      }
    </style>
  </defs>
  <g id="Layer_1-2" data-name="Layer 1">
    <g id="PBcuyM">
      <path class="cls-1" d="M229.76,93.49l1.56.13.15,2.97-1.72.29c.28,12.37-.36,24.8-.01,37.16.08,2.78.62,5.72.3,8.59l1.83.53c-.06,1.36.65,3.22-.9,3.84l.28,2.56-1.83.53c.09,4-.05,8,0,12,.01.73.32,1.4.33,2.13.14,10.5-.22,21.01.27,31.47.08.68,1.19.83,1.58,1.52.74,1.29.04,2.94-.04,4.33-.04.72.34,1.78.27,2.13-.12.59-.98.66-1.1.87-.19.32.39,6.36.63,7.11.47,1.51,3.65,6.03,5.18,6.54.81.27,1.5.05,2.23.24.58.15,1.23.96,1.86,1.22,1.07.45,3.14.9,4.03,1.52s.53,1.62,1.34,2.05c3.09,1.65,8.63,2.58,11.78.82.87-.48.9-1.56,2-2.01.98-.4,1.89-.12,2.73-.35,1.15-.32,3.01-1.4,4.12-1.48.64-.04.09.88,1.43.56,3.58-.85,6.82-5.57,6.96-9.12.04-1.08-2.36-3.24.36-3.47v-.91c-1.24.12-2.62-.36-2.78-1.67-.29-2.3.19-2.59,2.2-3.45l.6-47.75c-.04-1.05-1.44-.68-1.98-1.04l-.16-6.8,2.16-.51c.04-5.54-.12-11.09-.03-16.62.13-8.36.43-16.89.64-25.25.03-1.14.19-6.32-.31-6.8-.4-.39-1.42-.37-1.52-.49-.09-.1-.1-2.24-.05-2.6.1-.69.54-1.06.62-1.54.19-1.24-.15-2.68.06-3.95l2.35-.89c.8-.9.23-12.03.39-14.26.39-5.47,1.58-11.46,2.15-16.97.01-1.53-1.07-1.42-1.2-1.88-.09-.34.61-3.61.87-3.94.24-.3.71-.04.96-.4.86-1.29.04-3.2,2.62-3.49l8.35-18.47,19.71-18.22c6.19-3.08,14.96-3.88,21.01-6.75.79-.38.78-.94,1.38-1.39,1.05-.78,1.96-.55,2.86-.85.44-.15.39-.8.72-.88,1.02-.25,5.76-.53,6.66-.31.37.09.49,1.33,1.61,1.54,3.35.64,8.4-.52,11.95.08,7.32,3.64,20.19,4.83,26.73,9.04,1.87,1.21,5.1,4.75,6.81,5.53.9.41,1.51-.1,2.19.02.19.03,2.59,1.47,2.83,1.67.57.47.6,1.75,1.01,2.46.48.81,2.15,1.83,2.44,2.49.39.87-.05,1.79.51,2.89,1.54,3.01,6.2,7.3,8.23,10.58,1.62,2.61,4.09,7.98,5.14,10.89,3.69,10.21,3.21,21.45,3.29,32.17l.24.37,2.18.6v4.47l-6,.63c-16.03-.35-32.15.8-48.1-.9l-.14-4.15,2.29-.79c.03-.88.35-1.88.42-2.69.27-3.51.39-10.49.03-13.82-.09-.8-.58-2.66-1.25-3.07-.35-.21-.93-.15-1.39-.46-1.29-.88-1.76-2.33-2.6-3.25-.55-.6-2.14-1.32-2.5-1.82-.52-.73-.1-1.5-.35-1.97-.07-.13-1.99-1.73-2.25-1.91-1.72-1.21-6.25-2.42-8.33-2.17-1.83.22-3.39,1.81-5.27,1.82-.89,0-1.67-.52-2.46-.55-1.76-.07-1.84.33-4-.02-1.27-.21-4.95,2.76-5.61,3.92-.41.72-2.3,5.53-2.18,6.01.13.52.79.79.79,1.56,0,.23-.89,2.86-.99,2.99-.37.49-1.15.27-1.7.3.04.96-.24,2.61-.61,3.48-.18.42-1.24-.09-1.52,1.95l-.05,18.13,2.48.95v4.47h-1.24s0,4.01,0,4.01c-2.97-.12-1.72,1.01-1.82,2.62-.29,4.46-.57,9.09-.66,13.55-.21,11.21.04,22.4-.31,33.6l2.13.53-.4,7.07-1.73.42-.93,49,2.03,1.11c.56,1.17-.19,6.22-1.06,7.21-.27.31-.8.04-.96.39-1.48,3.49-2.22,12-3.16,16.21-1.4,6.23-4.05,8.02-7.57,12.76s-6.88,9.53-10.56,14.12c-3.78,3.02-12.52,5.25-15.8,8.17-1.05.94-.69,2.12-3,3.25-2,.99-2.09.28-3.52.47-.45.06-.84.53-1.55.64-1.42.21-2.83-.39-3.99-.31-2.33.16-6.01,2.26-8.66,2.47-7.7.61-18.34-2.28-26.33-2.07-3.37-.29-7.74-3.56-10.78-4.05-.98-.16-1.84.32-2.96.23-.68-.06-3.59-1.1-4.01-1.49-.35-.32-.13-.96-.48-1.44-.39-.54-1.73-.72-2.03-1.36s.06-1.5-.45-2.01c-.24-.24-.87-.34-1.22-.63-4.94-3.95-9.91-7.92-15.04-11.63l-12.91-23.01-2.61-17.97c-2.29-1.04-1.31-1.93-1.62-4.02-.16-1.08-.8-1.14-.86-1.6-.22-1.64-.13-3.43,1.73-3.86.33-15.29-.47-30.6-.17-45.95-1.61.09-2.02-.09-2.18-1.68-.18-1.9-.59-5.3,1.89-5.28-.18-10.27.17-20.55,0-30.82-.01-.73-.32-1.4-.33-2.13-.09-3.99.13-8-.03-11.99-.24-.72-1.21-.48-1.81-.5v-3.7s-1.85,0-1.85,0l-.31-4.62,1.96-.04.47-.46-.29-5.18c-.31-5.93.46-12.34.03-18.21-.07-.98-.51-4.11-1.26-4.6-.31-.2-.87-.14-1.19-.35-1.4-.9-1.92-1.92-2.7-2.61-.34-.3-1.58-.6-1.96-1.06-.44-.55-.21-1.23-.75-2.02-1.14-1.68-6.38-4.21-8.42-4.53-.95-.15-5.6-.28-6.34-.08-.35.09-.55,1.25-1.36,1.48-.76.22-1.65-.08-2.39.08-1.29.27-4.01,2.15-4.48.44l-.45-.15c-1.13.6-2.63.94-3.67,1.6-.62.4-3.25,2.84-3.66,3.43-.49.72-2.34,5.54-2.04,6.02.09.14.59.17.72.36.39.57-.64,4.81-2.31,4.03l-.33,3.07-1.23-.31.31,19.42,2.17.18c-.16,1.35.19,3.01.02,4.31-.07.57-.58.4-.63.65-.2.86.18,2.06-.05,2.98-.32.95-2.05.21-2.12.68l.6,47.11,1.9.69c.79,1.09-.13,2.53-.04,3.31.03.22.58.04.66.63.07.51.06,2.63-.17,2.96l-1.72.81.48,45.42c1.85,1.08,2.25,1.29,2.02,3.57-.05.47-.99,4.54-1.11,4.75-.35.66-1.12.44-1.6,2.09-1.65,5.68-1.67,15.99-4.65,20.64-4.2,6.54-9.21,12.68-13.48,19.2l-17.36,10.85c-.32.56.25,1.73-.26,2.13-.11.08-2.3,1.06-2.51,1.12-2.26.62-4.96.13-6.63.45-2.82.55-6.97,3.53-9.97,3.92-7.91,1.04-17.47-.06-25.53.84l-12.65-3.25c-.49.17-.26.89-.95.91s-6.14-2.23-6.34-2.51c-.11-.16.39-.77.17-1.21-.11-.23-2.06-1.54-2.5-1.84-3.81-2.59-14.26-7.83-16.62-10.82-5-6.34-8.84-14.83-13.81-21.34-1.54-5.56-1.71-11.6-2.85-17.19-.44-2.17-.52-1.52-1.57-2.74-1.39-1.59-.4-2.87-.76-4.44-.12-.52-.3.52-.3-1.27,0-.69-.14-1.87,0-2.41s1.69-.4,1.87-1.89c.61-4.95-.29-10.48-.34-15.42-.09-9.12.33-18.3-.29-27.38l-1.8-1.35-.36-2.87c.36-.47,5.95-1.4,6.97-1.52,8.82-1.02,17.97-.72,26.78-.64,3.82.03,10.58-.56,13.74.77.36.15.8.07,1.17.21l.33,3.44-1.82,1.01c.14,9.75-.23,19.5.64,29.23l-.02,13.58c.02.88,1.17.69,1.58,1.2.82,1.02-.01,4-.06,5.27-.03.7.47,1.48.3,2.1-.19.65-1.01.7-1.13.89-.22.37.46,5.78.72,6.4.08.21,2.29,3.47,2.49,3.68.89.93,2.42,1.21,3.22,2.36l.84-.07.54-.71c.82.67,1.77,1.08,2.71,1.55.19.1.17.52.45.6.53.15,2.81.17,3.12.67.22.35-.19,1.28.34,1.67.23.16,4.87,1.32,5.41,1.37,4.18.45,7.49-1.12,11.26-2.47-.77-2.29,1.63-1.97,3.17-2.53.97-.35,2.7-2.09,2.39-.25.53.47,6.1-2.59,6.78-3.23,1.74-1.65,3.47-5.32,3.43-7.71-.02-.94-.46-1.18-.64-1.86-.29-1.13.65-1.63-1.11-1.97-.17-.24-.12-.51-.15-.78-.09-.68-.06-2.33.15-2.96.36-1.04,1.16-.73,1.43-1.1.85-1.14-.01-6.09-.04-7.65-.2-12.34.03-24.69-.28-37.02.31-1.29-1.79-1.2-1.89-1.56l-.14-6.91,1.95-.97c-.57-10.04-.09-20.23-.24-30.33-.07-4.57.22-11.81-.31-16.03-.04-.33.01-.72-.3-.93l-1.56-.13-.27-2.6,1.2-.49v-.91s-.94-.17-.94-.17l.36-3.81,2.13-.03c-.28-10.69.26-21.32,1.57-31.91.17-1.07-1.16-.97-1.2-1.77-.02-.39,1.56-5.53,1.82-5.91.56-.81,1.01-.08,1.51-.32.84-.39,6.28-15.08,7.28-17.09,6.31-6.79,13.41-12.9,20.19-19.28l19.8-6.72c.82-.15.6-1.6,1.06-1.79.67-.28,6.06-1.32,6.73-1.26,1.28.12.94.85,1.51,1.29.92.7,2.06-.01,3.1-.04,2.86-.06,7.15-.3,9.86.04,7.62.96,16.97,5.66,24.77,6.99,2.62,1.87,5.13,3.94,7.87,5.63.21.13.21.57.44.61.73.13,1.43-.38,2.03-.25.17.03,2.68,1.48,2.68,1.63l-.61,1.7c1.21-.43,2.64.04,3.41,1.06.68.9-.23,1.52.12,2.32,5.32,6.09,10.01,11.6,13.34,19.06,6.29,14.1,5.36,29.29,5.33,44.46h2.47s0,4.62,0,4.62Z"/>
    </g>
  </g>
</svg>