<svg width="96" height="96" viewBox="0 0 96 96" fill="none" xmlns="http://www.w3.org/2000/svg">
<path d="M43.5945 29.4724C43.8771 29.2708 44.8526 28.8008 45.1918 28.6663C45.799 28.4254 46.9302 27.8607 47.5208 27.7162C49.0205 27.3491 50.7118 27.1939 52.2477 26.9254C52.8983 26.8116 53.7483 26.7382 54.3783 26.5214C54.5625 26.458 54.5941 26.2037 54.7112 26.0977C55.0989 25.7467 55.6845 25.8062 56.1531 25.7847C56.2429 25.8667 56.5193 26.124 56.5659 26.2119C57.5702 28.1071 57.781 31.4014 57.9102 33.4991C58.0268 35.3933 58.0395 40.2948 56.9878 41.7863C56.4987 41.8735 55.8084 42.0011 55.3672 41.6887C55.0522 41.4657 55.1671 41.3251 54.6942 41.4078C53.7259 41.5771 52.6348 41.7294 51.6819 41.9009C50.9675 42.0295 48.9416 42.2582 48.351 42.4859C47.6721 42.7478 45.4416 44.1544 44.9179 44.7412C44.6982 44.9874 44.2488 45.859 44.0535 46.1625C42.9432 47.8886 43.097 48.4474 43.082 50.4074C43.6278 51.027 43.8084 52.6344 43.6084 53.3862C43.5367 53.452 43.4636 53.5156 43.3904 53.5798C43.2998 53.6593 43.2125 53.7246 43.1053 53.7814C40.1542 55.3492 32.0504 55.2163 28.8706 54.1885C28.4636 54.0568 27.6722 53.8291 27.477 53.4435C27.4264 52.8428 27.2928 51.7764 27.4355 51.2205C27.5883 50.6254 28.0027 50.3374 28.0056 49.6017L28.0016 31.7541C27.4265 31.1822 27.4013 31.1567 27.3856 30.3551C30.2328 32.4628 39.0342 32.1561 42.4458 30.9835C42.8482 30.8452 43.2559 30.5137 43.5711 30.2292C43.5767 29.9768 43.5845 29.7246 43.5945 29.4724Z" fill="#008CBF"/>
<path d="M10.5141 12.9332C10.453 11.7138 10.5636 7.65123 11.3806 6.51847C11.5564 6.27482 12.005 6.19992 12.2874 6.19214C13.0461 6.17125 13.3958 6.82118 13.8962 6.81051C14.6597 6.79421 15.4719 6.7489 16.2377 6.71347L20.439 6.53352C21.0153 6.50888 22.099 6.44579 22.6507 6.48117C23.455 6.53267 24.7905 6.962 25.6033 7.19612L28.969 8.14865C30.3903 8.5505 32.0312 8.96649 33.4103 9.47782C33.6863 9.58014 34.2587 10.2049 34.4694 10.4481C35.5976 11.7506 36.7801 12.9907 37.9016 14.3005C38.5579 15.0668 40.1122 16.5807 40.6005 17.3557C40.8935 17.8207 41.2865 20.4459 41.4106 21.1188C41.7653 22.9689 42.1043 24.8219 42.4275 26.6777C42.4955 27.0674 42.6097 27.8771 42.7967 28.1844C43.21 28.864 43.575 28.423 43.5944 29.4725C43.5843 29.7247 43.5766 29.9769 43.571 30.2292C43.2558 30.5138 42.8481 30.8453 42.4457 30.9836C39.0341 32.1562 30.2327 32.4628 27.3855 30.3551C27.2812 29.3842 27.3908 29.1072 27.9601 28.3171C27.9489 27.3167 27.9623 25.852 27.7422 24.9245C27.653 24.5486 26.5589 22.8951 26.2774 22.6207C25.9231 22.2754 23.7468 21.3966 23.2548 21.3628C22.0041 21.2767 20.5424 21.3929 19.2859 21.4556L14.1165 21.6731C13.8554 21.9491 13.7071 22.1078 13.411 22.3401C12.7213 22.3713 12.5114 22.4285 11.9378 22.0557C11.3365 20.7677 10.883 18.8986 10.8187 17.4818C10.5632 16.2606 10.5871 14.2266 10.5141 12.9332Z" fill="#008CBF"/>
<path d="M10.827 11.8977L10.8349 11.8386C10.9609 10.8505 10.8918 8.64302 11.6621 7.93994C11.7943 7.89843 11.8646 7.87237 11.9898 7.95198C12.6954 8.40073 13.0321 10.905 13.1365 11.7347C13.3589 13.5004 13.7005 19.0377 12.6323 20.4361C12.5355 20.5628 12.4123 20.6735 12.3011 20.7871C11.4579 19.9616 11.212 18.2961 11.091 17.1379C10.8298 15.5161 10.8185 13.5358 10.827 11.8977Z" fill="#008CBF"/>
<path d="M56.1533 25.7846C56.5376 25.713 56.8433 25.7513 57.2108 25.7061C57.5583 25.975 57.6558 26.0422 57.8917 26.4286C58.7095 26.3602 60.5282 26.5601 61.4176 26.609C61.885 26.6346 64.1267 26.7614 64.5333 26.864C65.565 27.1241 67.3088 27.8071 68.3593 28.1823C69.8141 28.6982 71.266 29.2227 72.7151 29.7559C73.4816 30.0359 74.7752 30.3919 75.3924 30.8614C75.7263 31.1152 76.5087 32.0281 76.8239 32.3876C78.5898 34.4048 80.5732 36.447 82.2784 38.496C82.6452 38.9366 82.9558 41.0398 83.0876 41.7187L83.8326 45.4621C84.0228 46.4662 84.2329 47.7999 84.5174 48.76C84.937 48.9851 85.033 49.0325 85.3067 49.4425C85.3367 49.8092 85.3674 50.2797 85.4327 50.6356C85.0778 50.8818 84.5208 51.2568 84.1136 51.3772C80.2916 52.5072 72.6197 52.7553 69.2371 50.8368C69.1866 50.6749 69.1469 50.5097 69.1185 50.3424C68.993 49.5989 69.3331 49.2079 69.7272 48.648C69.5534 47.043 69.9361 46.4102 68.8828 44.8807C68.6432 44.5327 68.3667 43.9427 68.0419 43.5787C67.4502 42.9151 65.7422 41.9894 64.9302 41.7185C64.6394 41.6216 63.0785 41.5338 62.6993 41.5065L58.3292 41.1871L57.7983 41.718C57.4645 41.7707 57.3253 41.7841 56.9881 41.7862C58.0397 40.2947 58.027 35.3933 57.9104 33.499C57.7813 31.4014 57.5704 28.1071 56.5661 26.2119C56.5196 26.124 56.2431 25.8666 56.1533 25.7846Z" fill="#008CBF"/>
<path d="M69.2371 50.8369C72.6197 52.7554 80.2916 52.5073 84.1136 51.3773C84.5207 51.2569 85.0778 50.882 85.4327 50.6357C85.4946 51.2331 85.5042 51.6408 85.0897 52.1462C84.9972 52.2586 84.8995 52.3676 84.7984 52.4732L84.8024 62.7146C84.8081 63.5158 84.8058 64.3164 84.7944 65.1176C84.7842 65.7133 84.6264 66.9506 85.0488 67.3554C85.1664 67.4673 85.2856 67.578 85.4049 67.687C85.4798 68.1913 85.5054 68.4808 85.4338 68.9896C83.1341 71.1508 73.4158 70.7862 70.3955 69.7028C70.2291 69.6432 69.3632 69.206 69.2842 69.2588C69.2093 68.6302 69.1565 68.1521 69.3473 67.549L69.8311 67.1067C69.8958 66.3929 69.8663 65.422 69.8657 64.6798L69.8612 60.546C69.8589 58.1595 69.9736 54.8252 69.8197 52.509L69.7964 52.4766C69.387 51.8901 69.2473 51.5727 69.2371 50.8369Z" fill="#008CBF"/>
<path d="M85.4335 68.9895C85.4381 69.1139 85.4551 69.5585 85.425 69.6516C85.1996 70.3421 84.8225 70.5936 84.8112 71.3636C84.7856 73.121 84.7936 74.8853 84.793 76.6438C84.7839 79.3524 84.7896 82.0609 84.8106 84.7694C85.1064 84.9665 85.4034 85.1283 85.4682 85.5059C85.5329 85.8824 85.5119 86.2645 85.2791 86.5802C84.613 87.4859 82.1861 87.7619 81.1368 87.9027C78.4231 88.2667 71.7915 88.286 69.4622 86.8074C69.0364 85.9903 69.1079 85.2447 69.837 84.6354C69.912 83.6349 69.9091 82.4294 69.8802 81.4175C69.7785 77.8805 70.0091 74.2175 69.8393 70.6947C69.4236 70.195 69.3288 69.9128 69.2839 69.2587C69.3629 69.2058 70.2288 69.6431 70.3952 69.7027C73.4155 70.7861 83.1338 71.1507 85.4335 68.9895Z" fill="#008CBF"/>
<path d="M43.6131 70.8145C43.5792 71.6758 43.5511 71.7673 43.0101 72.4487C42.9424 74.0488 42.9718 75.7358 42.9722 77.3439L42.9681 86.4377C43.2823 86.683 43.584 86.8641 43.6416 87.2888C43.6949 87.6823 43.6472 88.0849 43.3894 88.4006C42.5891 89.3807 39.6719 89.6345 38.4187 89.7225C36.2003 89.8787 29.3841 89.9764 27.7183 88.5557C27.4684 88.3421 27.3963 87.8186 27.382 87.504C27.3667 87.2093 27.4764 86.9214 27.684 86.7119C27.7699 86.6267 27.9481 86.5047 28.0479 86.4286L28.0519 72.4453C27.6053 71.9615 27.4885 71.7849 27.4527 71.1154L27.4455 70.995C27.8027 71.0967 28.1848 71.3028 28.5277 71.4163C32.0379 72.5776 40.7047 72.8609 43.6131 70.8145Z" fill="#008CBF"/>
<path d="M27.477 53.4436C27.6722 53.8291 28.4636 54.0568 28.8706 54.1886C32.0504 55.2163 40.1542 55.3492 43.1053 53.7814C43.2126 53.7247 43.2998 53.6594 43.3904 53.5799C43.4636 53.5157 43.5367 53.4521 43.6084 53.3862C43.6651 54.1096 43.4655 54.4168 43.0111 54.9546L43.0005 63.8184C43.0002 65.448 43.0337 67.256 42.9681 68.872C43.712 69.4864 43.8105 69.8311 43.6132 70.8146C40.7047 72.861 32.0379 72.5777 28.5277 71.4165C28.1848 71.3029 27.8027 71.0968 27.4455 70.9951C27.332 70.0065 27.1847 69.4268 28.0619 68.813C27.8871 67.729 27.9134 65.4242 27.9149 64.2652L27.9462 57.7744C27.957 56.9312 28.0456 55.7473 27.9741 54.9546C27.5603 54.3856 27.4434 54.1539 27.477 53.4436Z" fill="#008CBF"/>
</svg>
