<svg width="96" height="96" viewBox="0 0 96 96" fill="none" xmlns="http://www.w3.org/2000/svg">
<path d="M52.5932 38.5299L52.9452 38.5593L52.9791 39.2295L52.5909 39.2949C52.6541 42.0862 52.5097 44.8911 52.5887 47.6801C52.6067 48.3075 52.7286 48.9709 52.6564 49.6185L53.0693 49.7381C53.0558 50.045 53.216 50.4647 52.8662 50.6046L52.9294 51.1823L52.5165 51.3019C52.5368 52.2045 52.5052 53.1071 52.5165 54.0097C52.5187 54.1744 52.5887 54.3256 52.5909 54.4903C52.6225 56.8597 52.5413 59.2313 52.6519 61.5916C52.6699 61.7451 52.9204 61.7789 53.0084 61.9346C53.1754 62.2257 53.0174 62.598 52.9994 62.9117C52.9903 63.0742 53.0761 63.3134 53.0603 63.3923C53.0332 63.5255 52.8391 63.5413 52.8121 63.5887C52.7692 63.6609 52.9001 65.0238 52.9542 65.193C53.0603 65.5338 53.7779 66.5537 54.1231 66.6688C54.3059 66.7297 54.4616 66.6801 54.6263 66.723C54.7572 66.7568 54.9039 66.9396 55.046 66.9983C55.2875 67.0998 55.7546 67.2014 55.9554 67.3413C56.1562 67.4812 56.075 67.7068 56.2578 67.8038C56.9551 68.1762 58.2052 68.386 58.916 67.9889C59.1123 67.8806 59.1191 67.6369 59.3673 67.5353C59.5884 67.4451 59.7938 67.5082 59.9833 67.4563C60.2428 67.3841 60.6625 67.1404 60.913 67.1224C61.0574 67.1134 60.9333 67.321 61.2357 67.2487C62.0435 67.0569 62.7746 65.9919 62.8062 65.1908C62.8153 64.9471 62.2737 64.4597 62.8875 64.4078V64.2024C62.6077 64.2295 62.2963 64.1212 62.2602 63.8256C62.1947 63.3066 62.303 63.2412 62.7566 63.0471L62.892 52.2722C62.8829 52.0352 62.567 52.1187 62.4452 52.0375L62.4091 50.5031L62.8965 50.388C62.9055 49.1379 62.8694 47.8855 62.8897 46.6376C62.9191 44.7512 62.9868 42.8264 63.0341 40.9399C63.0409 40.6827 63.077 39.5138 62.9642 39.4055C62.8739 39.3175 62.6438 39.322 62.6212 39.2949C62.6009 39.2723 62.5986 38.7894 62.6099 38.7082C62.6325 38.5525 62.7318 38.469 62.7498 38.3607C62.7927 38.0809 62.716 37.7559 62.7634 37.4694L63.2936 37.2685C63.4742 37.0655 63.3455 34.5539 63.3816 34.0507C63.4696 32.8164 63.7382 31.4648 63.8668 30.2214C63.8691 29.8762 63.6253 29.901 63.596 29.7972C63.5757 29.7205 63.7337 28.9826 63.7923 28.9081C63.8465 28.8404 63.9525 28.8991 64.009 28.8179C64.203 28.5268 64.018 28.0958 64.6002 28.0303L66.4844 23.8625L70.932 19.7511C72.3288 19.0561 74.3077 18.8756 75.6729 18.228C75.8512 18.1422 75.849 18.0159 75.9843 17.9143C76.2213 17.7383 76.4266 17.7902 76.6297 17.7225C76.729 17.6887 76.7177 17.542 76.7922 17.5239C77.0223 17.4675 78.0919 17.4043 78.295 17.454C78.3785 17.4743 78.4056 17.7541 78.6583 17.8015C79.4143 17.9459 80.5538 17.6842 81.3549 17.8195C83.0066 18.6409 85.9108 18.9094 87.3866 19.8594C87.8085 20.1325 88.5374 20.9313 88.9233 21.1073C89.1263 21.1998 89.264 21.0847 89.4174 21.1118C89.4603 21.1186 90.0019 21.4435 90.056 21.4887C90.1847 21.5947 90.1914 21.8835 90.2839 22.0438C90.3923 22.2265 90.7691 22.4567 90.8345 22.6056C90.9225 22.802 90.8233 23.0096 90.9496 23.2578C91.2971 23.937 92.3487 24.905 92.8067 25.6452C93.1723 26.2341 93.7297 27.4459 93.9666 28.1025C94.7993 30.4064 94.6909 32.9428 94.709 35.3618L94.7632 35.4453L95.2551 35.5807V36.5893L93.9012 36.7315C90.2839 36.6525 86.6464 36.912 83.0473 36.5284L83.0157 35.5919L83.5324 35.4137C83.5392 35.2151 83.6114 34.9894 83.6272 34.8067C83.6881 34.0146 83.7152 32.4396 83.634 31.6882C83.6137 31.5076 83.5031 31.0879 83.3519 30.9954C83.2729 30.948 83.142 30.9616 83.0382 30.8916C82.7471 30.693 82.6411 30.3658 82.4515 30.1582C82.3274 30.0228 81.9686 29.8604 81.8874 29.7475C81.7701 29.5828 81.8648 29.4091 81.8084 29.303C81.7926 29.2737 81.3594 28.9126 81.3007 28.872C80.9126 28.599 79.8904 28.3259 79.421 28.3823C79.0081 28.432 78.6561 28.7908 78.2318 28.793C78.031 28.793 77.855 28.6757 77.6767 28.6689C77.2796 28.6531 77.2615 28.7434 76.7741 28.6644C76.4875 28.617 75.6571 29.2872 75.5082 29.549C75.4157 29.7114 74.9892 30.7968 75.0163 30.9051C75.0456 31.0225 75.1946 31.0834 75.1946 31.2572C75.1946 31.3091 74.9937 31.9025 74.9712 31.9319C74.8877 32.0424 74.7117 31.9928 74.5876 31.9996C74.5966 32.2162 74.5334 32.5885 74.4499 32.7848C74.4093 32.8796 74.1701 32.7645 74.1069 33.2248L74.0956 37.3159L74.6552 37.5303V38.539H74.3754V39.4438C73.7053 39.4168 73.9873 39.6717 73.9648 40.035C73.8993 41.0415 73.8361 42.0862 73.8158 43.0926C73.7684 45.6222 73.8248 48.1473 73.7459 50.6746L74.2265 50.7942L74.1362 52.3895L73.7459 52.4843L73.536 63.5413L73.9941 63.7917C74.1205 64.0558 73.9512 65.1953 73.7549 65.4187C73.694 65.4887 73.5744 65.4277 73.5383 65.5067C73.2043 66.2942 73.0373 68.2145 72.8252 69.1645C72.5093 70.5703 71.9113 70.9743 71.117 72.0439C70.3227 73.1135 69.5645 74.1943 68.7341 75.2301C67.8812 75.9115 65.909 76.4148 65.1688 77.0737C64.9319 77.2858 65.0131 77.552 64.4919 77.807C64.0405 78.0304 64.0202 77.8702 63.6976 77.9131C63.596 77.9266 63.508 78.0327 63.3478 78.0575C63.0274 78.1049 62.7092 77.9695 62.4474 77.9876C61.9217 78.0237 61.0913 78.4975 60.4933 78.5449C58.7558 78.6826 56.3548 78.0304 54.5519 78.0778C53.7914 78.0124 52.8053 77.2745 52.1193 77.1639C51.8982 77.1278 51.7041 77.2361 51.4514 77.2158C51.2979 77.2023 50.6413 76.9676 50.5465 76.8796C50.4675 76.8074 50.5172 76.663 50.4382 76.5547C50.3502 76.4328 50.0478 76.3922 49.9801 76.2478C49.9124 76.1034 49.9937 75.9093 49.8786 75.7942C49.8244 75.7401 49.6823 75.7175 49.6033 75.652C48.4886 74.7607 47.3671 73.8649 46.2095 73.0277L43.2963 67.8354L42.7073 63.7805C42.1906 63.5458 42.4117 63.345 42.3418 62.8733C42.3057 62.6296 42.1613 62.6161 42.1477 62.5123C42.0981 62.1422 42.1184 61.7383 42.5381 61.6413C42.6126 58.191 42.4321 54.7363 42.4997 51.2725C42.1364 51.2928 42.0439 51.2522 42.0078 50.8934C41.9672 50.4647 41.8747 49.6975 42.4343 49.702C42.3937 47.3845 42.4727 45.0648 42.4343 42.7474C42.4321 42.5827 42.3621 42.4315 42.3598 42.2667C42.3395 41.3664 42.3892 40.4615 42.3531 39.5612C42.2989 39.3987 42.08 39.4529 41.9446 39.4483V38.6134H41.5272L41.4572 37.5709L41.8995 37.5619L42.0056 37.4581L41.9401 36.2892C41.8702 34.9511 42.0439 33.5047 41.9469 32.1801C41.9311 31.9589 41.8318 31.2526 41.6626 31.1421C41.5926 31.0969 41.4663 31.1105 41.3941 31.0631C41.0781 30.86 40.9608 30.6298 40.7848 30.4741C40.7081 30.4064 40.4283 30.3387 40.3425 30.2349C40.2432 30.1108 40.2951 29.9574 40.1733 29.7791C39.916 29.4 38.7336 28.8291 38.2733 28.7569C38.0589 28.7231 37.0096 28.6937 36.8426 28.7389C36.7637 28.7592 36.7185 29.0209 36.5358 29.0728C36.3643 29.1225 36.1634 29.0548 35.9964 29.0909C35.7054 29.1518 35.0916 29.576 34.9855 29.1902L34.884 29.1563C34.629 29.2917 34.2905 29.3684 34.0558 29.5174C33.9159 29.6076 33.3225 30.1582 33.2299 30.2914C33.1194 30.4538 32.7019 31.5415 32.7696 31.6498C32.7899 31.6814 32.9027 31.6882 32.9321 31.731C33.0201 31.8596 32.7877 32.8164 32.4108 32.6404L32.3364 33.3332L32.0588 33.2632L32.1288 37.6454L32.6184 37.686C32.5823 37.9906 32.6613 38.3652 32.6229 38.6586C32.6071 38.7872 32.4921 38.7488 32.4808 38.8052C32.4356 38.9993 32.5214 39.2701 32.4695 39.4777C32.3973 39.692 32.0069 39.5251 31.9911 39.6311L32.1265 50.2616L32.5552 50.4173C32.7335 50.6633 32.5259 50.9882 32.5462 51.1642C32.553 51.2139 32.6771 51.1733 32.6951 51.3064C32.7109 51.4215 32.7087 51.8999 32.6568 51.9743L32.2687 52.1571L32.377 62.4062C32.7944 62.6499 32.8847 62.6973 32.8328 63.2118C32.8215 63.3179 32.6094 64.2363 32.5823 64.2837C32.5033 64.4326 32.3296 64.383 32.2213 64.7553C31.8489 66.037 31.8444 68.3635 31.172 69.4128C30.2242 70.8885 29.0937 72.274 28.1302 73.7453L24.2129 76.1936C24.1407 76.32 24.2693 76.584 24.1542 76.6743C24.1294 76.6923 23.6352 76.9134 23.5878 76.927C23.0778 77.0669 22.4686 76.9563 22.0917 77.0285C21.4554 77.1526 20.5189 77.8251 19.842 77.9131C18.0571 78.1478 15.8998 77.8995 14.0811 78.1026L11.2266 77.3693C11.116 77.4076 11.1679 77.5701 11.0122 77.5746C10.8565 77.5791 9.62668 77.0714 9.58155 77.0082C9.55673 76.9721 9.66955 76.8345 9.61991 76.7352C9.59509 76.6833 9.15507 76.3877 9.05578 76.32C8.19604 75.7355 5.83797 74.5531 5.30543 73.8784C4.17717 72.4478 3.31067 70.532 2.18917 69.063C1.84167 67.8084 1.80331 66.4454 1.54606 65.184C1.44677 64.6944 1.42872 64.841 1.19179 64.5657C0.87813 64.2069 1.10153 63.9181 1.02029 63.5638C0.993213 63.4465 0.952596 63.6812 0.952596 63.2773C0.952596 63.1216 0.921004 62.8553 0.952596 62.7334C0.984187 62.6116 1.33395 62.6432 1.37457 62.307C1.51221 61.19 1.30913 59.9421 1.29784 58.8274C1.27754 56.7694 1.37231 54.6979 1.2324 52.649L0.82623 52.3444L0.744995 51.6968C0.82623 51.5907 2.08763 51.3809 2.31779 51.3538C4.30805 51.1236 6.37277 51.1913 8.36077 51.2094C9.22276 51.2161 10.7482 51.083 11.4612 51.3831C11.5425 51.417 11.6418 51.3989 11.7253 51.4305L11.7997 52.2067L11.389 52.4347C11.4206 54.6348 11.3371 56.8349 11.5334 59.0305L11.5289 62.0948C11.5334 62.2934 11.7929 62.2505 11.8855 62.3656C12.0705 62.5958 11.8832 63.2682 11.8719 63.5548C11.8652 63.7128 11.978 63.8888 11.9396 64.0287C11.8967 64.1754 11.7117 64.1866 11.6846 64.2295C11.635 64.313 11.7884 65.5338 11.8471 65.6737C11.8652 65.7211 12.3638 66.4567 12.409 66.5041C12.6098 66.7139 12.9551 66.7771 13.1356 67.0366L13.3251 67.0208L13.447 66.8606C13.632 67.0118 13.8464 67.1043 14.0585 67.2104C14.1014 67.2329 14.0969 67.3277 14.16 67.3458C14.2796 67.3796 14.7941 67.3841 14.8641 67.497C14.9137 67.5759 14.8212 67.7858 14.9408 67.8738C14.9927 67.9099 16.0397 68.1717 16.1616 68.1829C17.1048 68.2845 17.8517 67.9302 18.7024 67.6256C18.5287 67.1088 19.0702 67.181 19.4177 67.0547C19.6366 66.9757 20.027 66.5831 19.9571 66.9983C20.0767 67.1043 21.3335 66.4138 21.487 66.2694C21.8796 65.8971 22.27 65.0689 22.261 64.5296C22.2565 64.3175 22.1572 64.2634 22.1166 64.1099C22.0511 63.8549 22.2632 63.7421 21.8661 63.6654C21.8277 63.6112 21.839 63.5503 21.8322 63.4894C21.8119 63.3359 21.8187 62.9636 21.8661 62.8214C21.9473 62.5868 22.1278 62.6567 22.1888 62.5732C22.3806 62.316 22.1865 61.199 22.1797 60.847C22.1346 58.0624 22.1865 55.2756 22.1166 52.4933C22.1865 52.2022 21.7126 52.2225 21.6901 52.1413L21.6585 50.582L22.0985 50.3632C21.9699 48.0976 22.0782 45.7982 22.0443 43.5191C22.0285 42.4879 22.094 40.8542 21.9744 39.9019C21.9654 39.8274 21.9766 39.7394 21.9067 39.692L21.5547 39.6627L21.4938 39.076L21.7645 38.9654V38.7601L21.5524 38.7217L21.6337 37.862L22.1143 37.8552C22.0511 35.443 22.173 33.0443 22.4686 30.6547C22.5069 30.4132 22.2068 30.4358 22.1978 30.2553C22.1933 30.1673 22.5498 29.0074 22.6085 28.9217C22.7348 28.7389 22.8364 28.9036 22.9492 28.8494C23.1388 28.7614 24.3663 25.4466 24.592 24.993C26.0158 23.4609 27.618 22.0821 29.1479 20.6425L33.6158 19.1261C33.8008 19.0922 33.7512 18.765 33.855 18.7222C34.0062 18.659 35.2225 18.4243 35.3736 18.4378C35.6625 18.4649 35.5858 18.6296 35.7144 18.7289C35.922 18.8869 36.1792 18.7267 36.4139 18.7199C37.0593 18.7064 38.0273 18.6522 38.6388 18.7289C40.3583 18.9455 42.4682 20.0061 44.2282 20.3062C44.8195 20.7282 45.3858 21.1953 46.0041 21.5767C46.0515 21.606 46.0515 21.7053 46.1034 21.7143C46.2681 21.7436 46.4261 21.6286 46.5615 21.6579C46.5999 21.6647 47.1662 21.9919 47.1662 22.0257L47.0286 22.4093C47.3016 22.3123 47.6243 22.4183 47.7981 22.6485C47.9515 22.8516 47.7462 22.9915 47.8252 23.172C49.0256 24.5462 50.0839 25.7896 50.8354 27.473C52.2547 30.6547 52.0449 34.0823 52.0381 37.5055H52.5954V38.548L52.5932 38.5299Z" fill="#008CBF"/>
</svg>
