<svg width="96" height="96" viewBox="0 0 96 96" fill="none" xmlns="http://www.w3.org/2000/svg">
<path d="M36.819 12.3444L36.7929 13.0531L36.35 13.1729L36.4308 24.0868L36.9857 24.1311C36.9597 24.3343 37.0274 24.6026 36.9857 24.7902C36.9675 24.8684 36.6314 24.8423 36.9935 25.194C36.8633 25.5614 37.0665 25.8532 36.5871 25.8271L35.5007 30.6809L31.5171 35.6442L25.0219 38.3485L25.1183 39.1588L25.5768 39.2552C25.6654 39.3464 25.5117 39.9326 25.5169 40.0811C25.5273 40.3625 25.7644 40.8314 25.6185 41.0711C25.5143 41.2405 25.2329 41.1805 25.1782 41.5818C25.0011 42.9287 25.246 44.8645 25.2642 46.2532C25.285 47.8737 25.2798 49.4708 25.3424 51.0809C25.358 51.5056 25.2486 52.6181 25.4127 52.9099C25.5716 53.1861 25.866 53.1365 25.8973 53.6133C25.9286 54.0901 25.7358 54.0458 25.668 54.2647C25.6159 54.4392 25.6837 54.6503 25.6185 54.8483C25.5534 55.0463 25.3554 55.0671 25.2981 55.1609C25.0818 55.51 25.3971 58.8006 25.4205 59.4702L25.5742 65.8064C25.6263 66.0748 26.0797 66.0201 26.0979 66.6896C26.1109 67.1638 25.8712 67.3436 25.8139 67.6302C25.7853 67.7787 25.8452 67.9585 25.8139 68.0861C25.7931 68.1669 25.6524 68.1617 25.6159 68.219C25.3658 68.5968 26.137 70.0688 26.4418 70.3788C26.5252 70.4648 27.8982 71.2021 28.0102 71.2178C28.1926 71.2412 28.2525 71.0666 28.4479 71.0823C28.6433 71.0979 28.6564 71.2985 28.7189 71.3089C28.9664 71.3558 29.2269 71.2438 29.5578 71.4653C29.6646 71.5382 29.5813 71.7102 29.6907 71.8274C29.7272 71.8665 30.5739 72.2339 30.6781 72.2651C31.3399 72.4683 32.7781 72.4579 33.3929 72.1192C33.6665 71.9681 33.5831 71.8535 33.7004 71.7128C33.7525 71.6502 35.0656 71.1292 35.2167 71.0901C35.6466 70.9833 35.9123 71.0927 36.3031 70.6706C36.3865 70.5821 37.0456 69.6571 37.0587 69.592C37.0795 69.4982 37.1525 68.7322 37.1394 68.6619C37.1056 68.4457 36.8659 68.4066 36.8216 68.1799C36.7903 68.0158 36.7903 67.3149 36.8216 67.1534C36.8841 66.8329 37.1498 66.9241 37.202 66.8616C37.228 66.8303 37.2228 66.463 37.3557 66.2624C37.4521 66.1165 37.6449 66.0487 37.6787 65.9523C37.8663 65.4104 37.525 64.0843 37.7751 63.4355C37.5771 60.765 38.0279 57.7454 37.7725 55.1192C37.7256 54.6451 37.6006 54.8483 37.413 54.692C37.2072 54.5174 37.34 54.2386 37.2984 54.0146C37.2697 53.8556 37.1238 53.7957 37.1082 53.7384C37.0847 53.6472 37.0639 53.1574 37.0977 53.1027C37.1707 52.9828 37.5563 52.8448 37.6605 52.5894C37.684 52.5295 37.6944 51.49 37.697 51.3258C37.7673 48.1082 37.6344 44.8802 37.6996 41.6625L37.215 41.3395V40.5709L37.9289 40.2765L37.9445 39.1822L38.5567 38.9634C38.6479 37.137 38.4734 35.2481 38.5646 33.4296C38.7 30.6966 39.5338 28.3205 40.8104 25.9392L43.1187 23.1019L43.0875 22.56L43.6737 22.0754C43.8613 22.2265 43.9811 22.5131 44.2677 22.4688L44.041 21.5309C44.411 21.2183 44.5413 21.3746 44.8669 21.3642C45.1692 21.3563 46.8157 19.9182 47.3029 19.6837L53.9075 17.8157L57.1278 17.959C57.3492 17.2321 57.8416 17.6307 58.2845 17.7557C58.7014 17.873 59.0792 17.7401 59.1235 18.2794L63.9981 19.9599C65.9339 21.3537 67.5232 23.2583 69.3261 24.8449C70.0009 26.2492 70.4359 27.7707 71.0821 29.1855C71.2566 29.5711 71.2853 29.6544 71.7465 29.5893C71.7465 29.8316 71.8064 30.1833 71.908 30.3996C71.9471 30.4829 72.0747 30.4777 72.1451 30.6575C72.1946 30.7799 72.2571 31.1603 72.2258 31.2776C72.205 31.3609 72.0356 31.3531 71.9966 31.4599C71.8663 31.8325 72.1138 33.1091 72.1425 33.5885C72.2545 35.5451 72.3248 37.4757 72.218 39.4376L72.7625 39.6564C72.7182 39.9821 72.8459 40.4458 72.8329 40.7298C72.8277 40.8471 72.713 40.92 72.7 41.032C72.6766 41.2457 72.7443 41.5531 72.6844 41.7277C72.6114 41.9413 72.2649 41.9048 72.231 41.9465C72.2076 41.9752 72.1477 42.5718 72.1399 42.6864C72.0174 44.5441 72.1216 46.5893 72.0669 48.473C72.0252 49.9502 71.9184 51.4118 71.908 52.9047C71.9054 53.4023 71.6631 53.5769 72.3796 53.7358L72.2076 55.6585L71.7412 55.9191L71.5901 62.7217C71.6136 63.8967 71.314 65.4755 71.4234 66.6011C71.4755 67.1221 71.7334 66.9788 71.8611 67.1925C72.0383 67.4869 71.8168 68.4431 71.7256 68.7948C71.65 69.0918 71.4599 69.0475 71.525 69.506C71.6422 70.3424 72.674 71.3845 73.4868 71.5877C73.7786 71.6607 73.9193 71.5226 74.1408 71.5565C74.4065 71.5981 74.8651 71.9942 75.2272 71.9811L75.3887 72.5725C75.8317 72.4631 76.1677 72.8513 76.6263 72.9581C77.6997 73.2135 78.5543 72.9295 79.586 72.7289L79.6641 72.2912L81.1258 71.7727L81.2195 71.9421C81.6677 72.0098 82.6551 70.8739 82.8401 70.4752C82.9469 70.246 83.1527 69.2768 83.1423 69.0423C83.1319 68.787 82.8792 68.7036 82.8375 68.4926C82.8088 68.3467 82.8844 67.0831 82.9156 66.9137C82.973 66.6063 83.481 66.463 83.4732 66.1243C83.6113 61.9765 83.6894 57.8262 83.9369 53.6863C83.9239 53.4127 83.468 53.3346 83.4028 53.1235C83.2569 52.6415 83.4002 52.282 83.8614 52.1074C84.3642 51.9172 85.6148 51.8547 86.1958 51.8287C88.6839 51.7192 92.4356 51.7922 94.8221 52.394C94.9342 52.4227 95.6298 52.6728 95.6923 52.7119C95.9893 52.8995 96.0935 53.5821 95.906 53.84C95.8174 53.9625 95.4136 53.8869 95.3458 54.249C95.3172 58.5062 94.9342 62.7399 94.869 66.9919C94.9107 67.2081 95.3484 67.3071 95.3484 67.9376C95.3484 68.2945 95.1191 68.4769 95.1113 68.5108C95.0514 68.787 95.1634 69.1856 94.9863 69.48C94.8768 69.665 94.6684 69.6233 94.5564 69.9203C94.0796 71.163 94.1369 73.0441 93.6654 74.3338L89.8016 79.8102L85.3412 82.4573C85.2396 82.5433 85.3152 82.6996 85.2761 82.8064C85.1979 83.0226 84.0255 83.4056 83.752 83.4968L83.6191 83.1842C83.4758 83.0826 80.8209 83.9267 80.3441 83.971C78.9946 84.0961 77.2255 83.7964 75.829 83.7261C75.2376 83.6974 74.5081 83.8069 73.9454 83.7105C73.7891 83.6844 71.8715 82.9315 71.7204 82.8429C71.611 82.7777 71.5953 82.6214 71.5432 82.6136C71.3478 82.5823 71.215 82.8481 71.0117 82.8377C70.8997 82.8325 69.954 82.585 69.8185 82.5328C69.1906 82.2879 69.3 81.9492 68.9769 81.634C68.1068 80.7846 66.0746 80.1359 65.1419 79.2162C64.1153 77.4993 62.5235 75.8084 61.5517 74.0967C60.8196 72.807 61.0176 70.5638 60.4887 69.1439C60.4053 68.9172 60.2412 68.8234 60.176 68.6671C59.978 68.1903 59.5664 67.3306 59.8399 66.872C59.9337 66.7157 60.2724 66.7105 60.2776 66.5151C60.3063 65.1395 60.3115 63.769 60.348 62.3934C60.3845 61.0178 60.4053 59.7047 60.4262 58.3551C60.434 57.8835 60.6476 55.9191 60.4678 55.6273C60.4131 55.5361 60.2281 55.5205 60.1265 55.3329C59.8842 54.8769 60.0901 54.4288 60.1839 53.9963C60.2151 53.8556 60.1578 53.6785 60.2021 53.5404C60.2516 53.3788 60.4939 53.3815 60.5877 53.2929C60.6476 53.2356 60.7362 52.0944 60.7466 51.8703C60.8899 48.7491 60.8743 45.4195 60.8977 42.2852C60.8977 42.1159 61.0228 41.8996 60.9446 41.7746C60.8769 41.6651 60.6033 41.6052 60.5278 41.514C60.2829 41.2196 60.546 40.8757 60.4991 40.7142C60.4704 40.6126 60.2881 40.6204 60.2646 40.5318C60.2334 40.4146 60.2438 39.745 60.2646 39.5939C60.3089 39.2239 60.5434 39.3359 60.8248 39.2031L60.9811 34.4926L60.6711 34.4848C60.6007 34.3363 60.6216 33.9559 60.5486 33.8543C60.4678 33.7448 60.249 33.8152 60.1474 33.7006C60.1187 33.6667 59.9051 33.0127 59.9051 32.945C59.9025 32.7288 60.1786 32.8408 60.1057 32.4005C59.9337 31.387 58.902 29.9931 57.8338 29.8342C57.6462 29.8055 57.5134 29.9775 57.3023 29.9827C56.8724 29.9905 56.2367 29.6753 55.7573 29.7404L55.7183 29.4225C54.835 29.2584 53.5219 29.2975 52.7143 29.7534C52.6205 29.8055 51.594 30.5897 51.5497 30.6497C51.3882 30.8685 51.5679 31.0691 51.5549 31.0874C51.5419 31.1056 51.2292 31.1733 51.1276 31.2567C50.9895 31.3714 50.9505 31.5876 50.7655 31.7648C50.531 31.9862 50.2236 32.0019 50.0907 32.1191C49.9135 32.278 49.8275 32.9997 49.8093 33.2629C49.679 35.1361 49.9135 37.1579 49.8093 39.0468L49.8875 39.2057L50.3616 39.3255L50.2678 40.5735L49.6061 40.821L49.5331 41.4619L49.1059 41.6261L48.9313 52.6624C48.9443 52.8239 49.1397 52.8291 49.257 52.975C49.5149 53.2981 49.4498 54.21 49.4993 54.6451L49.481 54.7467C49.2283 54.7805 49.0225 54.9212 49.0147 55.1896L48.8531 65.9627C48.8688 66.0982 49.2101 66.2233 49.296 66.5516C49.4315 67.07 49.3299 67.3019 48.9417 67.6276C48.8349 67.7162 48.6499 67.7344 48.6343 67.7526C48.5952 67.7995 48.6343 68.0054 48.5796 68.133C48.4858 68.3388 48.2487 68.4873 48.1679 68.6723C47.712 69.7093 47.8865 71.8691 47.4723 73.0415L43.7961 78.7863C42.5117 79.5966 40.9797 80.3938 39.7735 81.3552C39.7057 81.4073 39.5546 81.4047 39.5259 81.4464C39.4764 81.5246 39.5572 81.7252 39.4426 81.8789C39.3618 81.9883 38.9502 82.0769 38.7834 82.2254C38.6636 82.3322 38.6062 82.5615 38.5437 82.6006C38.5125 82.6214 37.8715 82.783 37.8116 82.783C37.6162 82.783 37.4964 82.6423 37.3322 82.6214C36.6887 82.5407 35.3079 83.2962 34.5705 83.3197C33.1845 83.3666 31.6864 83.2181 30.2951 83.1712C29.649 83.1503 28.857 83.2493 28.2395 83.1686C27.4266 83.0617 26.3142 82.3218 25.4674 82.142C25.3502 82.4703 25.061 82.3843 24.7692 82.2853C24.6597 82.2489 24.6024 82.1264 24.5451 82.1056C24.3054 82.0222 23.8964 82.0248 23.6775 81.7903C23.5681 81.6731 23.6332 81.4933 23.5837 81.4438C23.5525 81.4125 23.43 81.4516 23.3857 81.4125C23.3362 81.3682 23.3649 81.2302 23.2372 81.1207C22.268 80.2922 20.3348 79.693 19.3214 78.7785L15.541 73.6121C15.0486 72.2417 14.9991 70.2876 14.4702 68.9824C14.3529 68.6932 14.0533 68.6801 14.0195 68.1591C14.0064 67.9585 14.0898 67.8152 14.0872 67.6875C14.0794 67.4139 13.9413 67.1456 14.0325 66.8408C14.0846 66.6662 14.3842 66.5359 14.4493 66.3874C14.6213 66.007 14.3503 63.8446 14.3295 63.2662C14.2435 60.9292 14.2644 58.5401 14.0976 56.2161C14.0429 55.4475 13.8397 55.7289 13.6286 55.3381C13.4958 55.0932 13.587 54.9134 13.527 54.7284C13.4827 54.5903 13.2639 54.619 13.2222 54.4002C13.1753 54.1552 13.2118 53.4883 13.4176 53.3241C13.4932 53.2642 13.6234 53.2746 13.6781 53.2303C13.7485 53.1756 13.7042 51.7062 13.6964 51.4691C13.6703 50.5598 13.5609 49.6115 13.5349 48.7022C13.4775 46.6388 13.6234 44.307 13.4619 42.2852C13.4515 42.1497 13.3942 41.6938 13.3421 41.6156C13.2613 41.4958 12.9513 41.5036 12.9148 41.4489C12.8939 41.4176 12.8236 40.7663 12.8288 40.7116C12.8392 40.5657 12.9721 40.4536 12.9825 40.3077C12.9981 40.0889 12.8262 39.7215 12.9018 39.4506L13.3733 39.3151L13.3863 38.5022L6.4639 35.751L2.19893 30.7539L0.948352 26.0069C0.896244 25.8636 0.607049 25.9105 0.562758 25.8584C0.440306 25.7099 0.591417 24.6104 0.403831 24.3317L0.523678 24.2196L0.948352 24.2092C1.0213 23.7715 0.878007 23.3156 0.86498 22.9065C0.794635 20.5565 0.820689 18.2013 0.713869 15.8538C0.669578 14.8951 0.495019 13.9311 0.552337 12.9671H0.00260536L0 12.3079C0.0260536 12.2011 0.820689 12.1073 0.990037 12.0969C4.40046 11.8806 7.94375 12.0891 11.3698 12.0969C15.145 12.1073 18.9827 12.0031 22.7735 12.0969C23.5603 12.1177 24.4409 12.3183 25.2225 12.2584C28.5365 11.9927 32.4446 11.9562 35.7534 12.1751C36.0817 12.1959 36.4855 12.2975 36.8164 12.3444H36.819Z" fill="#008CBF"/>
</svg>
