<svg width="96" height="96" viewBox="0 0 96 96" fill="none" xmlns="http://www.w3.org/2000/svg">
<g clip-path="url(#clip0_389_3045)">
<path d="M29.1504 2C29.2331 2.13783 29.2552 2.44106 29.3766 2.52376C29.5697 2.65332 31.1284 2.56787 31.5229 2.57062C33.0265 2.58716 34.5797 2.55133 36.1136 2.6037L46.1943 5.92545L52.8072 13.6413L54.6059 23.6286C54.7825 24.1882 55.2763 24.122 55.3618 24.3729L55.2653 25.4507C55.715 25.4755 56.1398 25.3101 56.5591 25.1861C57.1275 25.0207 59.1193 24.1799 59.4807 24.1799H66.3557V23.601C67.6303 23.4356 67.622 23.8353 67.7406 24.9325C68.0882 28.188 68.1379 33.7234 67.5171 36.8384C67.4592 37.1333 67.5558 37.6764 67.3378 37.93C67.1419 38.1588 65.986 38.0155 65.5998 38.0403C62.9623 38.2029 60.3084 38.1478 57.6544 38.1836C57.4254 38.5199 56.6281 38.6936 56.4488 38.8866C56.3219 39.0271 56.0626 39.6777 55.9108 39.9093C55.0363 41.238 54.4762 41.974 54.8239 43.741C54.8983 44.1214 55.2073 44.0442 55.2598 44.3364C55.3122 44.6286 55.2873 46.9993 55.2018 47.173C55.1163 47.3467 54.8183 47.388 54.7383 47.5176C54.5838 47.7684 54.708 49.1137 54.6859 49.5437C54.5728 51.7986 54.6197 53.9626 54.6363 56.2203C54.6418 56.9866 54.3769 59.4538 54.6252 59.9941C54.7052 60.165 55.0059 60.2918 55.0915 60.5675C55.1466 60.7412 55.1632 62.2435 55.1273 62.453C55.0722 62.7838 54.7163 62.9244 54.6252 63.1174C54.4487 63.5033 54.5949 64.9368 54.57 65.4881C54.5204 66.6514 54.2528 74.8248 54.5121 75.2466C54.559 75.3238 54.7439 75.3431 54.8018 75.4423C54.9894 75.7593 55.1411 77.0053 55.1273 77.3885C55.1135 77.7717 54.7549 77.9068 54.6528 78.1631C54.4128 78.7586 54.5976 80.6441 54.57 81.4325C54.4845 83.9658 54.2473 86.7556 54.4459 89.2889C54.5011 89.9891 54.7356 89.7989 54.8597 90.1435C54.9701 90.4522 55.0997 91.2737 55.0059 91.5742C54.9784 91.6679 54.2721 92.5996 54.1424 92.6685C51.4278 94.1323 47.3337 94.2922 44.3762 93.5837C43.5762 93.3908 43.4714 93.2006 42.9306 92.9194C42.5499 92.7237 42.252 92.7264 41.8547 92.4067C40.9967 91.7147 40.8008 90.8877 41.3029 89.8816C41.3774 89.73 41.5871 89.7272 41.6257 89.6059C41.8023 89.0436 41.6174 88.5143 41.6229 88.0208C41.6423 85.2807 41.9485 81.2533 41.6312 78.6538C41.5429 77.9205 40.8974 77.4491 40.9305 76.465C40.9498 75.8531 41.4574 75.4451 41.5209 74.8496C41.8961 71.3184 41.2202 67.1173 41.5209 63.5143C41.0326 62.5936 40.5912 61.7032 40.9332 60.6254C41.0353 60.3056 41.3912 60.0906 41.4078 59.9417C41.6312 58.0066 41.3112 55.7379 41.2809 53.8165C41.2643 52.8269 41.4519 48.1268 41.2257 47.6334C41.1567 47.4845 40.8919 47.3549 40.7953 47.1399C40.4891 46.448 40.936 46.5169 40.9526 46.3074C40.9719 46.0097 40.8229 45.7506 40.8229 45.4942C40.8229 45.0642 41.0822 44.6259 40.8146 44.1269L41.5181 43.6225C41.7774 37.9383 41.4271 32.2403 41.4105 26.5423L40.8229 25.7953L41.1705 25.7346C41.2202 25.4672 40.5691 25.0014 40.8367 24.2461C40.9332 23.9787 41.3415 24.2819 41.4022 23.5404C41.4464 22.9973 41.2836 20.4336 41.1015 20.0284C40.9995 19.8051 39.7221 17.7873 39.6145 17.7018C39.4821 17.5943 36.8806 16.4172 36.6709 16.3703L29.5697 16.3125C29.4207 16.8831 29.0317 16.9658 28.4745 16.8803C28.2455 16.4337 28.3862 15.9265 28.342 15.4524C27.9917 11.7888 27.8648 7.0667 28.1793 3.37281C28.2179 2.90418 28.2206 2.42177 28.4579 2H29.1504Z" fill="#008CBF"/>
</g>
<defs>
<clipPath id="clip0_389_3045">
<rect width="40" height="92" fill="white" transform="translate(28 2)"/>
</clipPath>
</defs>
</svg>
