<svg width="96" height="96" viewBox="0 0 96 96" fill="none" xmlns="http://www.w3.org/2000/svg">
<path d="M77.7625 37.2115C76.5361 39.681 76.7197 42.8458 75.5767 45.2986C75.115 46.2886 69.2388 53.4802 68.3434 54.181C66.6498 55.5103 58.6267 57.8964 58.3096 58.3358C61.5745 67.8439 39.2906 67.4657 37.4106 61.1112C36.9796 59.6512 37.825 58.4498 37.7416 58.3358C37.3606 57.7991 28.7896 55.26 26.0587 52.4985C21.3617 47.7459 19.9628 43.2407 18.2887 36.9307L22.8634 39.0247C26.5343 40.3652 30.7029 40.19 34.435 39.1721C35.6725 38.8356 38.0058 37.2616 38.4841 37.3033C39.1599 37.3617 41.7323 38.8412 43.2701 39.1832C46.2402 39.8479 50.3894 39.9341 53.3373 39.1832C54.6972 38.8356 57.0248 37.2449 57.9398 37.3283C60.1061 37.523 64.247 39.9953 68.0319 39.9814C71.23 39.9675 74.8536 38.4296 77.7597 37.2143L77.7625 37.2115Z" fill="#008CBF"/>
<path d="M65.9769 10.1327C68.5938 9.88801 77.0702 10.7195 76.0135 14.5823C73.911 18.8288 61.4078 18.662 59.6975 14.9744C58.193 11.729 63.6159 10.3552 65.9769 10.1355V10.1327Z" fill="#008CBF"/>
<path d="M47.6559 10.1134C50.6677 10.0356 54.5833 10.728 56.391 13.331C56.4188 17.8112 48.6988 18.0865 45.395 17.6109C36.0426 16.2705 39.6384 10.3192 47.6559 10.1106V10.1134Z" fill="#008CBF"/>
<path d="M29.1374 10.297C40.9871 10.5556 38.4786 18.8235 26.9182 17.7528C16.5924 16.7934 19.404 10.0829 29.1374 10.297Z" fill="#008CBF"/>
<path d="M67.6621 9.00118C70.3485 8.95668 77.3065 10.172 78.2048 13.1532L78.3216 35.7958C74.8843 41.2437 65.8934 40.5652 60.3704 38.7603C59.4138 38.4489 58.2346 37.1835 57.5783 37.2892C56.7718 37.4171 53.9492 39.3721 51.6715 39.7337C45.4005 40.732 40.6394 37.5061 38.067 37.7592C37.0131 37.8621 34.6604 39.5696 32.8917 39.8505C28.7369 40.5096 17.2487 40.1786 17.6909 34.1467C17.7799 32.9175 18.6976 32.1833 18.8839 30.8485C19.2482 28.2566 19.0953 21.8965 18.8839 19.1211C18.6726 16.3457 16.7676 15.0526 18.6114 12.2354C20.5553 9.25981 29.1707 9.04567 32.4217 9.47394C34.1431 9.70198 37.5248 11.6125 38.4925 11.5291C39.5521 11.4373 42.0661 9.74369 44.2019 9.49063C46.1374 9.25981 49.444 9.232 51.3879 9.4072C53.6766 9.61299 57.125 11.6042 57.9454 11.5319C60.0645 11.3372 63.8216 9.06792 67.6621 9.00118ZM36.4791 15.3752C36.8518 14.9608 37.0826 14.374 36.9352 13.8206C35.3973 9.19306 20.8445 9.8605 20.483 13.6065C20.0297 18.2952 33.6286 18.5482 36.4819 15.3752H36.4791ZM45.3977 10.6809C43.6429 10.9367 41.179 11.6987 40.0304 13.1254C38.1449 18.8875 58.9521 18.8291 55.8319 12.7527C53.0732 10.4195 48.8739 10.1775 45.3977 10.6837V10.6809ZM75.3682 15.3752C75.7325 14.9636 76.1024 14.2155 75.9883 13.6788C73.5717 9.88552 67.3951 10.0218 63.4184 10.9145C61.7804 11.2844 59.411 12.2271 59.4527 14.1627C59.767 18.145 72.8987 18.1673 75.3682 15.3752Z" fill="#008CBF"/>
<path d="M37.1939 62.2149C39.1016 62.7933 39.9721 64.1782 42.0773 64.829C45.8955 66.0081 51.9775 65.8107 55.6567 64.2811C57.0639 63.6971 57.787 62.4985 58.8604 61.6587C58.0623 66.6505 58.1735 71.8788 58.2848 76.9624C58.3209 78.6893 59.0412 80.3885 58.9188 81.9403C58.3765 88.8149 37.5832 88.5729 37.1939 81.8902C37.1271 80.7612 38.1617 79.2177 38.3341 77.5186C38.6316 74.5763 38.6261 68.194 38.3174 65.2517C38.1867 63.9919 37.7946 63.2605 37.1939 62.2149Z" fill="#008CBF"/>
</svg>
