<svg width="96" height="96" viewBox="0 0 96 96" fill="none" xmlns="http://www.w3.org/2000/svg">
<g clip-path="url(#clip0_389_3132)">
<path d="M61.2453 11.9141C61.8226 12.0477 61.5486 11.3833 62.0089 11.3833C62.1953 11.3833 63.0686 11.7841 63.1709 11.9033C63.3426 12.0983 63.1709 12.3836 63.3061 12.6147C63.3755 12.7302 64.0332 13.0697 64.2195 13.1961C66.5616 14.7922 69.0462 16.3305 71.3884 18.0242L77.5962 28.074C78.1589 30.4465 77.9616 33.5377 78.5937 35.8235C78.7216 36.293 79.2806 36.5132 79.3683 36.8057C79.4633 37.1199 79.3135 38.113 79.4085 38.2213C79.4487 38.2683 79.7374 38.243 79.8762 38.3983C80.1174 38.6727 79.9201 39.6224 79.9858 40.0161C79.9456 40.1858 79.1601 40.2905 79.0541 40.9802L78.8678 59.5415C79.9676 60.4876 79.6168 61.5457 79.6278 62.8385C79.2953 63.1563 78.7472 63.5246 78.6814 64.023C78.4585 65.6805 78.7253 68.1938 78.6924 69.9741C78.6485 72.5489 78.4841 75.1922 78.4476 77.767C78.4366 78.5145 78.327 81.4323 78.517 81.9017C78.6193 82.1509 79.1893 82.5879 79.2551 82.8045C79.5218 83.6784 79.1016 84.8376 78.327 85.3323C75.8351 86.9285 70.1241 87.0512 67.1974 86.9212C65.2937 86.8346 61.0882 86.2785 59.4951 85.3323C59.3672 85.2565 58.2893 84.2057 58.2491 84.119C58.092 83.7687 58.0884 82.5193 58.2491 82.1401C58.4282 81.7067 58.7205 81.6815 59.0786 81.4467L59.1443 63.4488C59.1115 63.1563 58.4136 62.9974 58.3295 62.7374C58.2638 62.5316 58.3551 62.2679 58.304 62.0621C58.2455 61.8129 58.0957 61.7227 58.0665 61.3652C58.008 60.6935 58.2893 59.7293 58.958 59.4368C58.9397 53.1137 59.3051 46.7292 59.0274 40.4133C57.8838 40.1027 58.4136 39.1891 58.4172 38.4055C58.4172 37.8421 58.1432 37.1849 58.4538 36.5746C58.5488 36.3868 58.7607 36.4518 58.7899 36.2099C58.9726 34.7546 58.3624 32.9671 57.3686 31.8946C57.2955 31.8151 56.1811 30.9485 56.1043 30.9268C55.6988 30.8112 55.5343 31.1146 55.359 31.0893C54.767 30.999 54.0436 30.4176 54.303 29.7423H53.9486V30.0926L52.4176 29.7423C52.5528 29.5365 52.5894 29.0454 52.3299 28.9298C50.8903 28.5868 49.754 28.222 48.2303 28.3412C47.5763 28.3918 46.2719 28.7962 45.6653 29.0707C45.468 29.1609 45.3292 29.569 44.8834 29.5148L44.993 30.089L43.5498 30.4429C43.2465 30.934 42.64 30.8907 42.1978 31.2374L41.5365 30.8076C41.4013 30.8185 39.2675 31.9018 39.1103 32.021C38.1055 32.7721 37.3894 34.7654 37.4369 35.9716C37.4552 36.4266 37.7767 36.6974 37.8096 37.2463C37.8607 38.1419 37.3894 39.0844 37.5721 40.0233L36.7317 40.6227C37.0752 46.8917 36.6477 53.2003 36.9729 59.4693C38.0946 60.0399 37.6525 61.0293 37.7109 61.9104C37.7694 62.7916 38.2444 62.8313 37.035 63.3946L37.0898 81.277C37.0313 81.7609 37.6159 81.6562 37.7767 81.9956C37.9923 82.447 38.1421 83.6243 37.9484 84.0937C37.89 84.2418 36.9911 85.1048 36.8304 85.1987C35.3652 86.0618 31.5871 86.784 29.8479 86.9176C26.7713 87.156 22.8471 86.9321 19.8656 86.1846C19.2664 86.0365 17.7281 85.3684 17.3664 84.9279C16.8292 84.2743 16.6502 83.5773 16.906 82.7431C17.0339 82.3243 17.5162 82.0823 17.5417 81.6237L17.4248 64.0302C17.3262 63.2971 16.23 63.2177 16.4785 62.1921C16.5041 62.0838 16.8037 62.1596 16.7123 61.8238C16.7014 61.7768 16.4967 61.7804 16.4748 61.6865C16.431 61.4952 16.4419 60.7549 16.4967 60.5671C16.5991 60.2204 17.3371 59.9604 17.3042 59.5018C17.3335 55.5837 17.1252 51.6403 17.0558 47.7403C17.0192 45.5267 17.2531 43.1794 17.0521 40.9911C16.9973 40.4097 16.3835 40.4963 16.1679 40.0052C16.2081 39.0844 15.766 37.6869 16.1825 36.8527C16.3287 36.5602 16.8329 36.4663 16.9206 36.1846C17.2604 35.0941 17.4102 33.5449 17.6842 32.3965C18.1958 30.2443 18.8023 28.1101 19.2919 25.9506L26.3658 16.6375L34.1302 12.3763C34.2398 12.1958 34.0169 11.7552 34.2617 11.5169C34.3129 11.4663 35.4857 10.9427 35.5625 10.9247C35.8219 10.8633 35.9132 11.1197 36.1946 11.1124C36.4759 11.1052 36.918 10.7838 37.035 10.7946C37.1921 10.8091 37.225 11.1919 37.8279 11.0908C39.0702 10.8849 41.003 9.5488 42.2271 9.37547C45.8151 8.8663 50.1084 9.45491 53.7695 9.01074C55.3809 9.18769 57.1165 10.0652 58.6218 10.3866C59.5645 10.5888 59.7216 10.0508 60.1126 10.0652C60.4707 10.0796 60.9603 10.4552 61.3695 10.4733L61.2489 11.9285L61.2453 11.9141Z" fill="#F0EAD6"/>
</g>
<defs>
<clipPath id="clip0_389_3132">
<rect width="64" height="78" fill="white" transform="translate(16 9)"/>
</clipPath>
</defs>
</svg>
