<svg width="96" height="96" viewBox="0 0 96 96" fill="none" xmlns="http://www.w3.org/2000/svg">
<g clip-path="url(#clip0_389_2579)">
<path d="M63.3604 16.6789C63.3943 16.7361 63.5506 16.7227 63.5982 16.9751C63.836 18.1936 63.87 19.4389 64.0297 20.6675C64.3864 23.3972 64.8485 26.0765 65.0014 28.8197C65.0727 29.1933 65.9187 29.3582 65.9934 29.8934C66.0274 30.1324 65.9221 31.6975 65.8677 31.9365C65.7318 32.5356 65.2018 32.2529 65.1101 32.9496C64.7465 35.7669 65.2222 39.0285 65.0047 41.8659C65.212 44.2018 64.716 47.0326 64.9912 49.318C65.0455 49.7657 65.5891 49.8599 65.691 50.0181C65.8541 50.2705 65.5721 50.8562 65.776 51.1793C65.5212 51.7987 65.8134 52.7209 65.2426 53.283C65.0489 53.4749 64.8043 53.2628 64.8077 53.9057C64.8451 59.0084 64.7771 64.2289 64.7941 69.409C64.7941 69.7692 65.3819 70.1024 65.4702 70.4053C65.4974 70.4928 65.6027 71.8089 65.5959 71.9503C65.5789 72.334 65.1474 73.4784 64.6922 73.5255C64.6752 77.4131 64.7329 81.3007 64.7024 85.1883C64.6956 86.1947 64.434 87.807 64.7194 88.7898C64.7839 89.0187 65.3241 89.5573 65.3717 89.7121C65.5653 90.355 65.1746 91.6879 64.648 92.0918C61.716 94.3469 54.2143 94.3065 50.725 93.4583C49.9198 93.2631 49.1893 92.7145 48.3671 92.563C48.1361 92.1524 47.229 91.6711 47.0659 91.3042C46.9606 91.0652 46.8587 89.4866 46.9674 89.2476C47.0931 88.9716 47.7964 88.6316 47.7998 88.423C47.5212 83.4145 47.8881 78.3084 47.6129 73.3101C46.6582 72.849 47.2086 72.4754 47.1169 71.9604C47.1033 71.8863 46.9334 71.9402 46.9096 71.7551C46.8756 71.506 46.8756 70.2 46.9368 70.0014C47.0455 69.6446 47.6367 69.8331 47.7148 69.0085C48.0172 65.784 47.6435 61.7112 47.6027 58.4194C47.5857 56.9956 47.6265 55.6021 47.5993 54.1985C47.5925 53.8788 47.8201 53.5254 47.5585 53.2696C47.3921 53.1046 47.0183 53.1484 46.9334 52.9094L46.8111 49.7993C46.8485 49.668 47.4328 49.7993 47.5144 49.2036V32.7241C47.4023 32.4313 47.1067 32.3337 46.8281 32.2765C46.8858 32.0173 46.716 31.6437 46.7261 31.4485C46.7465 31.1455 46.9096 30.6373 46.8926 30.2031C46.8858 29.9978 46.6956 29.7722 46.7601 29.5366C46.8756 29.1024 47.5246 29.3885 47.6129 28.712C47.3479 27.2546 47.6129 25.272 47.229 23.8887C47.1339 23.5521 46.2845 21.96 46.067 21.6099C45.7918 21.1656 45.1837 20.8392 44.6707 20.7415C44.2731 20.6675 40.5936 20.9873 40.1724 21.1118C40.0942 21.1354 39.2788 21.859 38.8032 22.0307C38.0081 22.3168 36.0919 22.4985 35.3343 22.162C34.5767 21.8254 33.1259 20.5766 32.6469 19.927C30.1327 16.5173 29.6197 12.3672 30.238 8.24398C30.3332 7.60782 31.135 5.38633 31.4713 4.85789C31.6752 4.53813 33.1803 2.85182 33.4657 2.71718C34.0534 2.44454 35.8609 2.00024 36.4996 2.00024C37.2505 2.00024 38.2256 2.68352 39.0682 2.69362C40.2471 2.70708 41.8066 2.36713 43.0195 2.30317C44.2324 2.23922 44.426 2.44791 45.4351 2.74747C49.0466 3.81783 52.5835 5.23823 56.161 6.4163C56.6876 7.02889 57.2958 7.70207 57.7715 8.34832C59.5653 10.7785 61.879 14.0838 63.357 16.6789H63.3604Z" fill="#EFEAD8"/>
</g>
<defs>
<clipPath id="clip0_389_2579">
<rect width="36" height="92" fill="white" transform="translate(30 2)"/>
</clipPath>
</defs>
</svg>
