<svg width="125" height="96" viewBox="0 0 125 96" fill="none" xmlns="http://www.w3.org/2000/svg">
<g clip-path="url(#clip0_389_3022)">
<path d="M71.8457 19.6181L78.2315 19.6226C81.3174 20.5803 84.3214 21.4947 87.3891 22.4889C87.7623 22.6098 88.3836 22.6508 88.6817 22.8993C88.8775 23.0612 89.0231 23.417 89.1619 23.5925C91.176 26.1304 93.2173 28.7117 95.1358 31.3157C95.2428 31.4593 95.773 32.0727 95.8003 32.1639C95.8595 32.3669 95.7821 32.6154 95.8185 32.8252C95.839 32.9392 95.9414 33.019 95.9619 33.1353C96.1235 33.9972 96.21 34.8865 96.3511 35.6983C96.4466 36.241 96.722 38.1929 96.9473 38.5075C97.0679 38.6763 97.3137 38.7356 97.3319 38.8838C97.2295 39.9122 97.5549 41.1298 97.3979 42.1377C97.3296 42.5732 96.8768 42.6234 96.813 42.8377C96.722 43.1364 96.6651 44.0553 96.6469 44.4133C96.6241 44.8534 96.6606 45.2981 96.6469 45.7382C96.8654 45.7154 97.4525 45.8681 97.6164 45.7245C97.7029 45.6492 97.6118 45.2046 97.9714 45.1339C98.1352 45.102 98.6223 45.1088 98.7975 45.1362C98.9864 45.1658 99.1707 45.3277 99.3482 45.3414C99.5439 45.3574 99.7419 45.257 100.004 45.2867C100.495 45.3437 101.428 45.7427 101.984 45.8795C103.713 46.3014 105.848 46.7597 107.473 47.4825C107.643 47.5578 108.058 47.95 108.262 48.0686C109.136 48.5793 110.108 49.0559 110.945 49.6054C112.147 50.3944 112.9 51.4684 113.883 52.5104C114.286 52.9369 114.976 53.3861 115.308 53.8854C115.451 54.0998 115.495 54.378 115.609 54.5695C116.806 56.6217 117.791 58.3912 118.49 60.6942C119.327 63.4556 119.459 65.4006 119.63 68.26C119.7 69.4343 120.383 70.1116 119.75 71.3269C119.409 71.9814 118.499 72.5354 117.834 72.8136C115.103 73.956 110.666 73.6778 108.046 72.3074C107.523 72.0338 106.817 71.5458 106.403 71.0556C105.959 70.5288 105.757 69.8653 105.875 69.1698C105.943 68.7731 106.294 68.2897 106.367 67.845C106.581 66.5111 106.48 64.0233 105.984 62.7692C105.465 61.4558 103.827 60.2724 102.646 59.6043C102.157 59.3283 101.476 59.1391 100.916 59.2029C100.773 59.2189 100.777 59.3876 100.579 59.4766C100.368 59.57 99.7874 59.5723 99.7556 59.5997C99.7283 59.6225 99.7465 59.7958 99.6373 59.8961C99.4734 60.0489 99.1275 60.0352 98.9181 60.0512L98.8726 60.2746L98.3173 60.261L97.96 59.5222C97.4138 59.4287 96.829 59.5792 96.3101 59.5906C94.2801 59.6385 92.2774 59.5404 90.2611 59.7411L84.2122 59.8095L84.1302 60.0466C83.716 60.1264 83.7365 59.9007 83.6091 59.8847C83.2472 59.8368 82.783 59.9326 82.4075 59.887L82.2072 60.4593C81.9114 60.701 81.5404 60.5027 81.2605 60.5095C80.91 60.5209 80.5072 60.6235 80.134 60.5756L79.9679 60.0375C79.5719 60.0945 79.1418 60.0284 78.7685 60.0375C75.3913 60.1378 72.005 60.2746 68.6369 60.3476C67.2896 60.375 65.5259 60.1971 64.2469 60.343C63.6643 60.4092 63.9351 60.6509 63.7963 60.9496C63.7007 61.1548 63.1705 61.1297 62.9679 61.0978C62.8519 61.0796 62.7608 60.9519 62.663 60.9519C62.4513 60.9519 61.755 61.4216 61.3704 61.1092L61.2315 60.644C61.095 60.4411 60.2666 60.644 60.0208 60.6509C58.0273 60.7079 56.036 60.6828 54.0424 60.7193C53.6259 60.7261 53.23 60.8493 52.7634 60.7945C52.6223 60.7786 52.4926 60.644 52.3788 60.6463C52.2355 60.6486 52.1763 60.8607 51.9282 60.8812C51.6938 60.8994 51.2501 60.8698 50.9474 60.8766C49.5614 60.9108 48.3894 60.7922 47.0149 60.9519C46.3799 61.0248 45.6608 60.8675 45.0099 61.0271L44.9234 61.6223C44.2566 61.5675 43.5284 61.8138 42.8753 61.6861C42.3268 61.5789 42.5953 61.2437 42.4429 61.1343C40.6746 61.1776 38.8859 61.2073 37.1039 61.2506C34.7554 61.3076 32.4136 61.4102 30.0787 61.4832C29.1615 61.5128 28.1852 61.417 27.2795 61.4809C27.1589 61.49 26.5239 61.5675 26.483 61.5926C26.2668 61.7203 26.3328 62.3816 25.5818 62.1695L25.5408 62.3907L25.2836 62.377L25.2654 62.1764C24.9081 62.247 24.519 61.8571 24.3142 61.8001C24.1367 61.7499 23.9296 61.8115 23.7407 61.7682C23.3515 61.6815 23.4266 61.3828 22.6733 61.4877C22.0521 61.5744 20.1359 63.0018 19.6375 63.4784C17.9876 65.0563 17.876 67.7036 18.247 69.8425C18.2925 70.1047 18.354 70.4855 18.4108 70.7386C18.4723 71.0191 18.9274 71.6142 18.9821 71.8309C19.0481 72.0885 19.0663 73.0211 18.9752 73.2674C18.9707 73.2834 18.8888 73.297 18.8569 73.3518C18.5952 73.8352 18.2151 74.3779 17.7623 74.6994C14.9267 76.7083 8.65467 77.894 5.52777 76.1405C5.33206 76.031 4.45134 75.3082 4.35121 75.16C4.1919 74.9206 3.99391 73.8511 4.02122 73.5479C4.05308 73.1899 4.32162 72.9755 4.33528 72.8752C4.41948 72.1615 4.20328 71.4364 4.20783 70.7637C4.22832 68.146 4.66526 65.5876 5.25923 63.0497C5.6188 61.5128 6.44035 60.0375 7.10715 58.6146C7.66699 57.4221 7.90139 56.9181 8.81625 55.8624C9.4398 55.1441 10.1476 54.3164 10.828 53.5616C11.6632 52.6336 12.5417 52.0567 13.6135 51.3384C15.4205 50.1276 16.9111 49.3751 18.957 48.6044C20.1177 48.1689 21.3557 47.991 22.5687 47.6034C22.7962 47.5304 23.0397 47.307 23.2855 47.2614C23.5586 47.2112 23.8545 47.2887 24.098 47.2408C24.2618 47.2089 24.3642 47.0242 24.585 46.9718C24.8057 46.9193 25.6273 46.8349 25.7775 46.9626C25.8685 47.0402 25.9504 47.2659 25.9504 47.3936L26.219 47.3252C26.2577 47.3229 26.2167 47.4575 26.3601 47.4757C27.4502 47.6102 28.8816 47.4004 29.9922 47.389C33.6175 47.3526 37.3588 47.4141 40.9591 47.1656C41.2003 47.1496 41.9012 47.234 42.0173 47.0903C42.0833 47.0105 42.0674 46.8372 42.1516 46.7323C42.3769 46.4519 42.9139 46.6069 43.2212 46.5568C43.3418 46.5362 43.4305 46.4291 43.5989 46.4063C43.7059 46.3903 44.3386 46.3949 44.3841 46.4222L44.6344 47.0037L53.7375 46.8669C53.9172 46.8623 54.0811 46.7893 54.2609 46.7848C56.4411 46.7323 58.6303 46.762 60.8037 46.6366C60.8447 46.5955 60.7127 46.1646 60.9289 46.1167C61.1018 46.0597 61.7709 46.1258 61.9598 46.1874C62.0372 46.2124 62.0167 46.4131 62.242 46.3333L62.3649 45.8727L63.2274 45.9092L63.4208 46.4884C64.3516 46.4701 65.2847 46.4975 66.2177 46.4884C67.5991 46.4724 68.9919 46.3584 70.3687 46.331C73.4319 46.2717 76.5064 46.2991 79.5582 46.1828L79.6015 45.6447C79.7175 45.5626 81.5063 45.46 81.6747 45.5398C81.8431 45.6196 81.9114 45.9274 81.9045 46.1053L82.8854 46.0323L82.8148 42.7419C82.7966 42.6576 82.6305 42.7465 82.5782 42.6507C82.2709 42.0898 82.1412 41.1024 82.2072 40.4708C82.2231 40.3272 82.3346 40.2018 82.3574 40.0148C82.3915 39.7297 82.3119 39.3877 82.3597 39.1095C82.428 38.7196 82.808 38.6261 82.717 38.1359C82.6919 38.0036 82.3733 37.6707 82.296 37.4974C82.2573 37.4062 82.3073 37.2466 82.2687 37.1873C82.2368 37.1371 82.0047 37.1531 81.8954 37.0482C81.6542 36.8156 81.3583 36.1543 81.1444 35.8533C80.8782 35.4771 80.6324 35.11 80.3092 34.7976C80.2182 34.711 80.1704 34.5605 80.0816 34.4966C80.0088 34.4442 78.4932 34.1021 78.3043 34.0816C76.8159 33.9037 74.7063 34.1979 73.1702 34.2321C72.9562 34.2367 72.2212 34.0474 72.0892 34.2435C72.0459 34.3073 72.0892 34.4692 72.005 34.5741C71.8912 34.7224 70.8034 34.793 70.6919 34.5126L70.4097 19.2761C70.487 18.8611 71.3905 19.0389 71.7228 19.0207L71.8366 19.1347L71.8457 19.6158V19.6181Z" fill="#008CBF"/>
</g>
<defs>
<clipPath id="clip0_389_3022">
<rect width="116" height="58" fill="white" transform="translate(4.01672 19)"/>
</clipPath>
</defs>
</svg>
