<svg width="96" height="96" viewBox="0 0 96 96" fill="none" xmlns="http://www.w3.org/2000/svg">
<path d="M76.9076 21.8608C77.9474 23.7096 77.1756 29.0899 77.7241 31.2365C77.801 31.5343 78.3246 31.4971 78.3916 31.7651C78.5108 32.2291 78.3122 33.0158 78.3916 33.5469C76.6421 35.0433 66.842 35.2816 65.7576 33.8422C64.8741 32.6709 65.8593 31.9983 66.0008 31.239C66.1124 30.6483 66.1025 28.3627 65.9958 27.7597C65.8767 27.0797 65.0776 26.2905 64.9436 25.7669C64.7823 25.1291 65.1247 24.7916 64.6458 23.732C63.7474 21.7392 62.6456 21.9104 60.7769 21.5332C60.0249 21.3818 59.9579 20.8011 58.8635 21.2975C58.2133 21.5928 57.0271 23.4069 56.0965 23.9007C55.625 24.1514 55.151 24.0645 54.816 24.2556C52.8927 25.3426 52.3815 26.4816 52.6867 28.6928C52.7562 29.204 53.0664 29.4571 53.1458 29.8691C53.3865 31.1198 52.9622 31.9859 52.9423 33.3434C52.9026 35.9342 52.5974 40.0786 52.92 42.4808C53.054 43.4785 54.0293 43.7787 53.6272 45.4613C52.5949 49.7943 53.4957 53.6855 53.8829 58.1078C53.9896 59.3313 53.5106 59.5844 53.3865 60.448C53.2624 61.3116 53.5528 70.593 53.7563 71.0844C54.6894 73.3303 54.1211 72.3302 53.8531 74.2336C53.5851 76.137 53.7042 80.9067 53.8556 82.902C54.0541 85.4804 55.9153 86.6567 52.6619 87.5328C50.6815 88.0638 43.6733 88.3591 42.0975 87.1952C41.1793 86.5178 42.0975 85.7608 42.2042 85.0089C42.4598 83.1948 42.2315 76.3827 41.9709 74.4693C41.8766 73.7745 41.2215 72.953 41.3232 72.1688C41.3803 71.7271 41.899 71.4392 41.9759 70.7469C42.0578 70.0024 41.7327 69.3522 41.7153 68.6499C41.6756 66.9648 42.0429 61.1875 41.6012 60.1179C40.6383 57.7951 41.2959 58.7257 41.5093 56.7379C41.7649 54.3605 41.6036 48.8364 41.2711 46.4267C41.1867 45.8162 40.7946 45.5283 40.7648 44.8086C40.7276 43.9078 41.1718 43.6398 41.2711 42.9449C41.4547 41.6594 41.0353 40.3789 41.0155 39.2026C40.9659 36.3536 41.4001 34.145 40.4323 31.4921C40.0154 30.348 40.7847 29.9609 41.0031 29.1221C41.3431 27.8143 41.2463 26.3278 41.2637 24.9852C40.2089 24.5459 39.0302 22.5184 38.2187 22.1164C37.7273 21.8707 37.5983 22.6574 36.8364 22.372C35.5856 21.9055 34.8089 19.6571 33.4365 19.6571C32.6002 19.6571 32.218 20.476 31.6745 20.7242C30.8879 21.0816 30.1955 20.6895 29.8654 22.1809C29.6396 23.1984 30.2203 24.4119 28.8901 24.943C26.4432 25.9183 19.7725 24.263 18.0478 22.233C16.9708 20.9649 17.9932 20.6597 18.3878 19.5727C19.7998 15.7038 21.4452 13.3611 24.5994 10.7182C25.6168 9.86449 25.4828 9.18949 27.2944 8.83957C31.3916 8.04793 35.2233 7.3208 39.3255 9.11255C40.2536 9.51706 41.9635 11.0954 42.9958 11.7555C43.2515 11.9193 43.6038 11.7431 43.8073 11.8647C44.8695 12.495 46.0706 13.4058 45.2666 14.6293C46.8226 16.7536 48.3711 13.4877 49.9072 12.5695C53.7017 10.3037 57.5731 9.39794 61.916 9.42028C62.4718 9.42276 63.0178 9.11504 63.5514 9.14482C63.9087 9.16467 69.5321 11.9863 69.9813 12.3089C73.2447 14.6566 75.0638 18.5974 76.8952 21.8558L76.9076 21.8608Z" fill="#EFEAD8"/>
</svg>
