<svg width="96" height="96" viewBox="0 0 96 96" fill="none" xmlns="http://www.w3.org/2000/svg">
<g clip-path="url(#clip0_389_2707)">
<path d="M63.1782 4.01685H68.4032C69.306 4.15973 70.1363 4.11125 71.0784 4.31709C71.873 4.49068 72.4262 4.86379 73.1404 5.0691C74.5807 5.48316 75.7002 5.56911 76.6607 6.93436C77.5965 8.31376 77.6692 10.3125 77.4337 11.9232C77.0335 14.6635 75.4275 17.1309 73.3092 18.8226C71.2405 20.4747 68.4444 20.4037 66.512 18.5255C66.1682 18.7868 65.7336 19.2096 65.438 19.3996C64.6656 19.8366 63.3224 20.2161 62.5635 20.5124C61.5492 20.9084 59.8773 23.5284 59.8876 24.6044C59.904 26.3081 60.0922 25.938 59.1207 27.4935C58.5558 28.3982 58.678 30.8172 58.7224 32.0044C60.1354 33.4399 59.2893 35.9469 58.6132 37.5085C58.5311 37.698 58.5613 40.282 58.5616 40.6025L58.5682 45.9804C58.5691 46.7485 58.5387 47.7059 58.5719 48.4486C58.6112 49.3275 59.2839 49.5234 59.1868 50.6966C59.142 51.2391 59.2528 52.1338 59.0707 52.7465C58.9105 53.2857 58.6575 53.486 58.6371 54.0719C58.5959 55.2555 58.6174 56.4515 58.621 57.6353L58.6187 63.3319C58.6187 64.054 58.5182 64.9384 58.9652 65.5317C59.3173 65.9991 59.2423 66.5601 59.199 67.1005C59.1735 68.3083 58.5929 69.2203 58.2793 70.3093C57.9085 71.7352 57.8728 73.2493 57.4826 74.667C57.3432 75.1739 56.8646 76.0865 56.5521 76.5698C55.5012 78.1951 54.6319 80.5883 53.3757 82.0095C52.4515 83.055 51.1465 83.9482 50.207 84.996C49.8613 85.3371 49.8044 86.1938 49.3005 86.4872C48.4229 87.1746 47.4463 87.3016 46.4685 87.7062C45.8481 87.9626 44.6546 89.0574 44.0496 89.2938C42.7243 89.7895 41.3305 90.2035 39.9745 90.6139C39.0857 90.8832 38.0673 91.2854 37.1674 91.4618C35.9302 91.7047 34.9894 91.1984 33.7938 91.9834H33.2492C32.8604 91.8593 31.8053 91.6611 31.3538 91.56C30.1028 91.2813 29.8529 90.6656 28.9298 90.1982C27.9458 89.699 26.4789 89.2709 25.5087 88.7105C25.0048 88.4159 24.5494 88.0437 24.1593 87.6074C23.4859 86.8571 22.5311 85.2824 21.9106 84.4063C21.5231 83.8588 20.7753 82.8133 20.46 82.2959C19.5832 80.7806 19.8236 78.7049 19.3619 77.0896C18.9965 75.8113 18.3674 74.7723 18.3383 73.3528C18.3248 72.6954 18.9436 72.1927 18.9703 71.7846C19.0733 70.2075 19.0311 68.5688 19.0317 66.9829L19.0308 63.1197C19.0298 61.832 19.1252 60.7458 18.6224 59.5457C18.4612 59.161 18.3989 58.3986 18.2197 58.0976V56.9082C18.3774 56.7794 18.8651 56.0171 18.8762 55.82C19.0282 53.1179 18.9863 50.1355 18.8946 47.4282C18.8866 47.1902 18.3198 45.9187 18.2197 45.7438V44.7209C18.4904 44.354 18.8172 43.6506 19.0795 43.3832C20.4775 41.9574 23.9404 41.3453 25.9065 41.3131C28.4348 41.408 31.4 41.6292 33.3971 43.363C34.0736 43.8251 34.3769 45.3355 34.0622 46.1287C33.4021 47.7921 33.5731 48.9639 33.5726 50.7881C33.5667 52.476 33.5713 54.1639 33.5863 55.8518C34.3074 56.6131 34.1349 57.1706 34.2437 58.0765C34.3801 59.2135 33.6718 60.4123 33.6652 61.2275C33.6523 62.838 33.6151 64.6067 33.6457 66.2185C33.6791 67.9778 33.5695 70.1052 33.678 71.8146C33.9687 72.1392 34.0848 72.3832 34.2933 72.7672C34.3339 73.7497 34 75.2868 34.0914 76.0194C34.0662 76.0065 35.9764 76.5216 35.9484 76.5193C37.5581 76.6774 38.2194 74.9798 39.2964 74.1919C39.9743 73.6962 40.9734 73.6057 41.6023 72.9888C42.6096 72.1968 43.9922 69.9823 43.7116 68.7252C43.3504 67.1064 43.0054 66.4825 43.8579 64.9578C44.0547 64.6056 43.9963 63.6195 43.9962 63.1914L43.9968 60.5931C43.9975 58.5489 44.0095 56.4769 43.9831 54.4325C43.9739 53.7191 43.6369 53.1845 43.4628 52.5212C43.3061 51.9244 43.2688 51.162 43.2196 50.5424C43.1708 49.9264 43.5887 49.422 43.7454 48.8874C43.8285 48.6038 43.8475 47.8668 43.8489 47.5597L43.845 41.4531C43.8438 39.5145 44.0639 38.0097 43.3589 36.2139C43.1365 35.6473 43.3864 34.0594 43.3699 33.4116C43.3568 32.8954 43.6344 32.4213 44.037 32.0896C44.1434 30.9942 44.1013 29.6634 44.2013 28.5192C44.1275 27.8327 44.5955 25.8388 44.4862 25.2828C44.0862 23.2474 44.2178 23.234 45.1108 21.3387L45.5724 21.0809C46.5871 18.6867 46.917 16.3441 48.6709 14.3887C49.8215 13.106 50.9441 11.0576 52.1794 9.90696C53.3781 9.00849 54.7159 8.2588 55.9187 7.37113C56.7512 6.75668 57.7309 5.42378 58.7812 5.08687C60.5194 4.52934 61.3613 5.09668 63.132 4.04475L63.1782 4.01685Z" fill="#F0EAD6"/>
</g>
<defs>
<clipPath id="clip0_389_2707">
<rect width="59.5607" height="87.9665" fill="white" transform="translate(18.2197 4.01685)"/>
</clipPath>
</defs>
</svg>
