<svg width="96" height="96" viewBox="0 0 96 96" fill="none" xmlns="http://www.w3.org/2000/svg">
<path d="M49.921 18.2483L50.1386 18.2054C50.1202 18.0307 50.3685 17.8468 50.5156 17.856C50.5738 17.859 51.3093 18.2268 51.3829 18.2881C51.6097 18.4812 51.4687 18.8459 51.6158 18.9991C52.6547 19.6856 53.7274 20.3415 54.7572 21.0402C55.8451 21.7788 56.9515 22.591 58.0579 23.3419L62.9921 31.4603L63.8993 38.3008L64.4724 38.7667L64.5091 39.9803C65.1803 40.1979 64.7819 40.8231 64.8463 41.3747L64.1628 42.0858V45.1229C64.8003 45.0616 65.4071 45.2945 66.0078 45.4754C68.8856 46.3335 71.6101 47.3969 74.494 48.2306C75.1897 49.0059 75.7444 49.8978 76.3788 50.7222C77.7917 52.5549 79.4037 54.455 80.7369 56.3643C81.5981 57.5964 81.6594 59.4536 81.9812 60.9124C82.0088 61.0319 82.1589 61.6357 82.1865 61.6847C82.257 61.8196 82.3827 61.7705 82.4562 61.8502C82.6217 62.031 82.7964 62.4233 82.8056 62.6716C82.8178 63.0209 82.6432 63.5542 82.6585 63.8546C82.6585 63.8975 82.7841 63.8883 82.7995 63.9404C82.8301 64.066 82.8178 64.6115 82.7841 64.7525C82.6861 65.1908 82.1742 65.0896 82.1007 65.816C81.8739 68.0778 82.0639 70.5786 81.8923 72.8679C81.8708 73.4594 81.6011 75.9204 81.8157 76.2729C81.8586 76.3403 81.9904 76.3587 82.0609 76.4629C82.2662 76.7632 82.4164 77.747 82.2723 78.0627C82.1651 78.3017 81.7789 78.4212 81.6992 78.504C81.6563 78.5499 81.6808 78.6725 81.6103 78.7277C81.549 78.7767 80.2557 79.2058 80.0994 79.2426C77.1634 79.9475 73.1088 79.5858 70.2126 78.8135C70.0257 78.7645 69.9766 78.5929 69.8969 78.5591C69.3575 78.3232 68.9101 78.3354 68.4504 77.8573C67.9263 77.3118 67.8344 76.7601 68.2021 76.0736C68.3217 75.853 68.6588 75.6354 68.6925 75.4484C68.7354 72.7882 68.8181 70.1465 68.7599 67.4955C68.7446 66.8273 68.8825 65.485 68.7599 64.9241C68.7477 64.8629 68.2236 64.5104 68.2083 64.2867C68.4013 63.6063 68.2267 62.644 68.3584 61.9943C68.4044 61.7767 68.9101 61.1637 68.8978 61.081C68.5117 60.6519 68.0765 60.2688 67.6811 59.852C67.5003 59.662 66.7219 58.6966 66.5993 58.6323C66.4154 58.5342 64.7512 58.3595 64.6501 58.4606C64.5674 58.8069 64.6195 59.944 64.4938 60.2167C64.3559 60.5171 64.0065 60.8113 63.8104 61.0718V65.1938C63.8104 65.3593 63.743 65.5126 63.7368 65.6781C63.7 67.1951 63.7123 68.6968 63.5958 70.2139C63.7675 71.8596 63.3353 73.7751 63.5284 75.3841C63.6081 76.043 64.3344 76.1717 64.2302 77.2015C64.1996 77.4987 63.8594 78.2067 63.6479 78.3967C63.5805 78.458 62.1677 79.1169 62.0083 79.166C58.8853 80.1589 53.9971 79.9904 50.8098 79.3039C50.3899 79.2119 48.3886 78.6174 48.1619 78.3875C48.0975 78.3232 48.1619 78.1822 48.0822 78.0902C47.9657 77.9554 47.4754 77.6888 47.3712 77.5079C47.1842 77.1861 47.3558 76.9379 47.3221 76.7203C47.3037 76.6069 47.1689 76.5211 47.1566 76.4292C47.1474 76.3587 47.2639 75.6814 47.3007 75.6262C47.411 75.4515 47.8952 75.4147 47.9504 75.2278C48.0668 70.3334 48.1098 65.4176 48.1067 60.514C48.1098 60.3148 47.5397 60.2014 47.4876 60.1217C47.4232 60.0206 47.5152 59.5884 47.4753 59.4138C47.4631 59.3555 47.3466 59.3617 47.316 59.282C47.1811 58.951 47.2516 57.7649 47.5489 57.5198C47.7696 57.3359 47.9228 57.5351 48.0086 57.0876C47.978 52.0002 48.171 46.8913 48.1097 41.7548L47.4876 41.4912L47.4723 41.3993C47.4141 40.9579 47.5458 40.4921 47.5489 40.0722C47.555 39.7198 47.3742 38.9751 47.5796 38.7084C47.6408 38.6318 47.7665 38.6471 47.8217 38.6012C48.0362 38.4357 47.7236 36.7439 47.7389 36.3823C47.7175 36.2904 46.8532 34.8561 46.7735 34.7672C46.7245 34.7151 45.7959 34.0133 45.7346 33.9918C45.3637 33.8753 45.1339 34.0837 45.0297 34.0684C44.9899 34.0623 44.3861 33.7497 44.3371 33.7129C44.0919 33.5321 44.3217 33.3206 44.2666 33.0509C44.0367 32.9712 43.8682 33.1888 43.6843 33.1888C43.4268 33.1888 43.0315 32.9467 42.7342 32.9774L42.722 32.3614C42.2132 32.2112 41.7014 32.0855 41.1804 31.9844C40.5061 31.8496 39.4887 31.7883 38.7807 31.8618C38.2474 31.917 37.61 32.3491 37.1595 32.5575C37.0706 32.6004 36.5435 32.7506 36.522 32.7812L36.5864 33.3329L35.3298 33.5444L35.3972 33.8202L34.3859 34.2247L33.9997 33.8539C33.4113 34.237 32.5011 34.4914 31.9555 34.8836C31.7992 34.994 30.748 36.321 30.7235 36.4436C30.7634 37.0872 30.463 37.7614 30.5059 38.3989C30.5274 38.7023 30.6714 38.7054 30.745 38.9322C30.8369 39.2141 30.745 39.8087 30.7174 40.1397C30.7082 40.2408 30.5948 40.3113 30.5887 40.4185C30.5734 40.6944 30.8063 41.2859 30.5519 41.5096C30.4201 41.6261 30.0278 41.6444 29.9665 41.8314C29.939 42.1992 29.9604 42.5669 29.9543 42.9347C29.8746 47.7279 30.0953 52.5641 30.0248 57.3818L30.0615 57.486C30.6224 57.7128 30.886 58.4913 30.7909 59.0521C30.7664 59.1962 30.5948 59.3218 30.6561 59.5088L30.8706 59.5486C31.0147 60.3179 30.6929 60.3608 30.1657 60.7469C30.227 61.0289 30.1044 61.412 30.1167 61.6541C30.1382 62.0985 30.2332 62.6716 30.2393 63.1711C30.2914 67.2503 30.1657 71.3478 30.2699 75.4209C30.6959 75.6231 30.9105 76.2238 30.9871 76.659C31.0116 76.7939 30.9779 77.5662 30.9289 77.6673C30.9043 77.7194 30.1811 78.4182 30.1044 78.4672C29.847 78.6358 28.1369 79.2855 27.7936 79.3682C24.5266 80.1405 18.8109 80.3673 15.6849 79.1108C15.3018 78.9576 14.9984 78.6787 14.5663 78.6235C13.7817 77.5907 13.5855 76.6038 14.5295 75.5955C14.4529 73.0733 14.4406 70.5203 14.4008 67.9858C14.3854 66.9867 14.3333 65.8834 14.3119 64.8475C14.2996 64.2468 14.41 61.2802 14.2475 61.0013C14.0054 60.5845 13.4783 60.419 13.5457 59.7509C13.558 59.6314 13.7051 59.5486 13.6867 59.4046C13.6836 59.3678 13.558 59.3739 13.5426 59.3187C13.5151 59.2054 13.5212 58.479 13.5549 58.3687C13.6193 58.1572 14.1127 57.8354 14.2016 57.6178C14.3119 57.342 14.174 57.152 14.1678 56.8915C14.1495 56.0303 14.1709 55.1538 14.1678 54.3079C14.1464 50.2165 14.079 46.1343 13.9257 42.0582C13.7388 41.8896 13.3342 41.6996 13.2791 41.4514C13.2607 41.3655 13.1963 40.6974 13.2025 40.6239C13.2116 40.5166 13.3342 40.4431 13.3373 40.3481C13.3373 40.2592 13.2147 40.1734 13.1994 40.0661C13.1473 39.6616 13.227 39.542 13.3189 39.211C13.3404 39.1344 13.276 39.0364 13.3036 38.9843C13.3557 38.8862 13.7786 38.6931 13.8767 38.4449C14.0238 38.0771 14.082 37.4059 14.1801 37.0014C14.6551 35.0093 15.1394 32.9835 15.6236 30.9761C15.9117 29.787 15.9944 29.7839 16.6871 28.8308C18.3175 26.5935 20.0399 24.4421 21.6519 22.2048L27.9224 18.7386L27.8917 18.1165C28.1798 18.0429 28.7406 17.6415 28.9705 17.5894C29.0716 17.5679 29.1973 17.6966 29.3567 17.6997C29.6018 17.7027 29.9481 17.5097 30.1964 17.5526C30.3956 17.5863 30.2791 17.859 30.7511 17.761C31.7747 17.5495 33.2029 16.6301 34.248 16.3022C34.9896 16.2685 35.7405 16.3359 36.4822 16.3022C38.177 16.2255 39.979 16.0754 41.7137 16.0171C43.0407 15.9742 44.0367 15.9896 45.3147 16.3297C46.1728 16.5596 47.1382 16.9733 48.0025 17.1327C48.5787 17.24 48.6124 16.7956 48.8238 16.8017C48.8882 16.8017 49.8321 17.1021 49.9425 17.1511C49.9884 17.1695 50.0344 17.1787 50.0405 17.2369L49.921 18.2544V18.2483Z" fill="#008CBF"/>
</svg>
