<svg width="125" height="96" viewBox="0 0 125 96" fill="none" xmlns="http://www.w3.org/2000/svg">
<path d="M25.9023 34.2V48.5102C22.8108 47.3822 18.7377 50.8087 18.3176 53.8647C18.0557 55.7621 18.9973 59.5001 18.1312 60.6824C16.0073 63.585 4.64221 63.9673 4.01685 59.0116C4.87112 54.9408 5.34073 51.0541 7.11063 47.2264C10.5584 39.7622 17.8433 35.2548 25.9023 34.2Z" fill="#008CBF"/>
<path d="M61.8406 33.591C62.8742 33.4541 63.3745 34.1927 64.4223 34.2352C67.5066 34.3579 75.542 34.2966 78.4588 33.919C78.9803 33.8506 79.0251 32.8806 80.113 33.2842L79.8086 48.208C78.8434 48.5171 79.07 47.6416 78.4588 47.5732C75.844 47.2758 73.1066 47.8233 70.5343 47.913C68.3609 47.9909 65.5267 47.6133 63.4972 47.8776C62.9733 47.946 62.9332 48.9159 61.8429 48.5101V33.591H61.8406Z" fill="#008CBF"/>
<path d="M97.7791 47.9014V34.049C97.7791 33.7234 98.3973 33.6006 98.7678 33.6431C100.63 33.8602 104.642 35.2455 106.416 36.0714C115.407 40.2602 118.062 47.3422 119.419 56.5645C119.598 57.7751 120.505 57.9781 119.667 59.5875C117.916 62.9503 108.144 62.9409 106.003 59.9297C104.679 58.0654 106.057 57.2984 106.01 55.3775C105.897 50.7569 102.515 47.0307 97.7791 47.9038V47.9014Z" fill="#008CBF"/>
<path d="M61.8404 48.0548C61.7461 48.3899 61.149 48.6094 60.7832 48.5221C60.5543 48.2153 60.7054 47.9463 60.1862 47.8778C57.4558 47.5262 47.9503 47.5262 45.2223 47.8778C44.6984 47.9463 44.6583 48.9162 43.568 48.5103V33.5912C44.6583 33.1853 44.7007 34.1552 45.2223 34.2236C47.8063 34.5587 57.9844 34.4525 60.4198 33.8933C60.6558 33.839 60.6251 33.3033 60.7832 33.2773C61.0994 33.1452 61.8404 33.4968 61.8404 33.7446V48.0548Z" fill="#008CBF"/>
<path d="M25.6 34.6579C25.5929 34.5233 25.1799 34.2118 25.2932 33.898C26.3127 33.3104 26.6997 34.1552 27.5634 34.2189C31.2094 34.4809 38.6996 34.6225 42.2158 34.2236C42.827 34.1552 42.6005 33.2797 43.568 33.5912V48.5103C42.6005 48.8218 42.8294 47.9463 42.2158 47.8778C39.2613 47.5427 33.069 47.6702 30.0012 47.8896C28.5357 47.9935 27.1174 48.305 25.7557 48.8171C25.0643 48.4064 25.5976 48.1728 25.5976 48.0548C25.5976 43.7056 25.8549 38.9481 25.5976 34.6579H25.6Z" fill="#008CBF"/>
<path d="M79.8086 33.2867C80.5945 33.2159 80.9838 33.8012 81.772 33.9121C84.1838 34.2519 93.3755 34.2378 95.8133 33.9121C96.5236 33.8177 96.8941 33.3693 97.6209 33.282C98.579 33.1664 97.7767 33.6384 97.7767 33.7446V48.2082C96.8091 48.5197 97.038 47.6442 96.4245 47.5757C93.4699 47.2406 84.3585 47.2005 81.4605 47.5757C80.9367 47.6442 80.8965 48.6141 79.8063 48.2082V33.2867H79.8086Z" fill="#008CBF"/>
</svg>
