<svg width="96" height="96" viewBox="0 0 96 96" fill="none" xmlns="http://www.w3.org/2000/svg">
<path d="M72.4526 13.2544C73.1684 14.0165 75.8439 15.3948 76.9812 16.3515C80.5948 19.3976 81.5284 21.4499 83.7104 25.3855C83.8934 25.7168 84.4285 25.7399 84.769 26.4997C86.826 31.0932 76.7751 33.8312 73.4301 33.3517C70.2729 32.8977 71.3824 30.9357 70.7014 29.2053C70.113 27.7043 66.1496 24.4891 64.2849 25.0079C67.9032 21.9387 71.5376 17.058 71.4612 12.1611C72.3298 11.9595 72.1677 12.951 72.4549 13.2544H72.4526Z" fill="#008CBF"/>
<path d="M41.5633 28.8993C41.4428 29.5433 40.6761 29.307 40.3471 29.6985C40.046 30.0575 39.1125 32.5176 39.0083 33.0666C38.4662 35.976 40.595 38.2229 37.0903 39.8189C34.292 41.093 28.4732 41.1856 25.9112 39.3139C23.5438 37.5836 25.0194 36.4555 25.3437 34.3498C26.0293 29.8931 26.2841 27.0508 28.6585 23.0179C29.2422 22.0242 30.2128 21.2343 30.6321 20.5069C30.9749 19.907 30.822 18.9271 31.5517 18.436C32.1586 23.1453 37.1458 27.6623 41.5656 28.8993H41.5633Z" fill="#008CBF"/>
<path d="M41.3548 38.962C42.7818 39.9743 45.2904 40.8892 46.495 42.0475C49.372 44.8133 51.334 49.7588 52.0081 53.5693C52.3833 55.6958 51.7486 56.5807 49.9024 57.4053C47.0625 58.6724 38.0632 58.9851 37.7736 54.709C37.7435 54.248 38.0331 53.7408 38.003 53.252C37.8941 51.4035 35.5823 51.6421 35.5916 51.1626C38.545 47.7968 39.9001 42.5849 40.3704 38.1628C41.1047 37.9659 41.0537 38.7489 41.3548 38.962Z" fill="#008CBF"/>
<path d="M10.2638 56.8955C13.4929 59.3277 21.4799 59.4134 24.2226 56.094C24.2689 56.9349 23.706 57.4746 23.618 58.327C23.4072 60.3632 23.4002 64.9867 23.611 67.0206C23.8033 68.8644 25.0819 69.7053 23.296 71.4565C20.646 74.0578 9.4739 74.0671 9.54107 69.3903C9.55497 68.4984 10.0854 68.0097 10.1943 67.0275C10.4097 65.0446 10.3889 60.3261 10.1827 58.3293C10.0947 57.4769 9.53181 56.9372 9.57814 56.0963C10.009 56.1033 10.0345 56.7264 10.2615 56.8978L10.2638 56.8955Z" fill="#008CBF"/>
<path d="M85.7189 55.9994C85.9459 55.8279 85.9714 55.2048 86.4022 55.1979C86.4694 55.9623 85.8973 56.3538 85.7907 57.1251C85.5567 58.8509 85.5915 64.0466 85.7861 65.8302C85.9413 67.2734 87.2639 68.9481 85.7143 70.3473C83.2959 72.534 75.0425 72.5571 72.6844 70.2616C71.0003 68.6215 72.2257 67.8895 72.3508 66.1059C72.5199 63.6922 72.601 59.4856 72.3694 57.1274C72.2744 56.1731 71.964 55.7515 71.7601 54.9014C74.3916 58.3552 82.4898 58.4339 85.7189 56.0017V55.9994Z" fill="#008CBF"/>
<path d="M71.3779 11.9384C72.5292 13.1823 69.9974 17.9796 69.2214 19.3394C68.4894 20.625 65.9482 24.688 64.4333 24.6903C63.2658 24.6903 63.1222 23.6085 62.5686 23.2078C60.9031 21.9986 55.4155 21.7577 53.4465 22.3438C53.2936 22.3901 52.8906 23.4371 52.059 22.8835C51.4567 22.4851 49.8723 9.23051 50.2568 8.60276C51.1116 8.13484 51.4938 8.89695 52.4667 8.90621C60.8753 8.99192 61.0398 8.61203 69.0638 11.4195C69.5804 11.6002 70.6668 11.1694 71.3779 11.9384Z" fill="#008CBF"/>
<path d="M86.0316 40.7641C86.1821 40.6205 86.1845 38.7766 86.4161 40.7062C85.7351 43.5994 85.3783 48.5218 85.793 51.4753C85.9922 52.9068 87.25 54.3129 85.8161 55.9506C83.4997 58.5959 72.1678 58.4824 71.7601 54.4218C71.6651 53.4859 72.2859 52.7007 72.3577 51.7602C72.5361 49.4206 72.6056 45.0634 72.3716 42.7748C72.2605 41.6838 71.7022 41.0166 71.7601 39.9534C72.2628 40.1016 72.2767 40.741 72.7955 41.1556C75.8347 43.5716 83.2079 43.479 86.0316 40.7618V40.7641Z" fill="#008CBF"/>
<path d="M52.0334 70.1434L52.6311 70.2963C52.4388 70.9588 52.096 71.3294 52.0195 72.0753C51.7833 74.3593 51.8412 78.7258 52.0149 81.063C52.1423 82.7633 53.3584 83.8242 51.8551 85.36C49.4715 87.7946 41.1439 87.827 38.6677 85.5893C37.0902 84.1624 38.4384 82.2375 38.5959 80.7735C38.8043 78.8509 38.7858 74.3107 38.5843 72.3741C38.4963 71.5217 37.9334 70.982 37.9797 70.1411C40.4976 73.4883 48.6283 73.5787 51.591 71.0399C51.862 70.8082 51.9917 70.4909 52.0311 70.1434H52.0334Z" fill="#008CBF"/>
<path d="M23.5253 71.2296C23.5785 71.1902 24.5283 69.7309 24.2294 70.8914C24.0997 71.3917 23.6943 71.6744 23.611 72.367C23.3816 74.2896 23.3839 79.7378 23.6179 81.6581C23.794 83.1105 24.9614 83.9699 23.6318 85.5381C21.3594 88.2229 13.0249 88.114 10.4676 85.8393C8.5797 84.1599 10.002 83.1569 10.1966 81.3709C10.3958 79.534 10.4328 74.146 10.1919 72.367C10.0877 71.5956 9.51322 71.2041 9.58039 70.4397C12.5176 73.9329 20.0182 73.8402 23.5276 71.2296H23.5253Z" fill="#008CBF"/>
<path d="M29.124 50.8403C28.8692 50.9677 28.714 51.8318 27.5141 51.1577C26.0733 50.3469 22.1586 38.7208 23.0272 37.8614C24.8618 37.4097 24.7947 38.466 25.8 39.1262C28.955 41.1948 37.7689 41.6928 39.175 37.2661C39.7402 37.5093 40.2406 37.6506 40.3703 38.3108C40.7756 40.3609 37.8384 49.1702 36.305 50.6944C35.061 51.9314 34.3545 50.4257 33.2774 50.1778C31.6443 49.8026 30.5301 50.1292 29.1194 50.8403H29.124Z" fill="#008CBF"/>
<path d="M50.2312 8.57043L52.0264 22.7631C51.4751 23.5994 51.3546 22.6126 50.4698 22.6659C48.8066 22.7678 44.4563 25.1467 43.4858 26.481C42.6264 27.6601 43.1198 29.1356 40.896 28.8345C38.0375 28.4476 31.6651 22.1562 31.672 19.1773C31.6766 17.3844 32.6241 17.989 33.6456 17.2431C37.5117 14.4171 39.4691 11.9964 44.3984 10.361C45.8809 9.86994 47.4468 9.77265 48.7602 9.33021C49.4945 9.08236 49.2351 8.30635 50.2312 8.57043Z" fill="#008CBF"/>
<path d="M27.8107 51.6098C26.8725 51.4893 25.3113 51.7766 24.658 52.4923C23.4095 53.859 25.4896 56.2241 22.1308 57.7367C19.2608 59.027 12.8651 59.1984 10.4051 56.9955C8.58671 55.3647 10.0808 54.0073 10.5626 52.4483C11.9154 48.0633 12.9925 44.4567 16.9027 41.4523C18.6909 40.0786 21.334 39.7011 22.8813 37.8665C23.4095 41.8461 24.57 45.9438 26.4996 49.4879C26.7034 49.8609 28.0539 51.4152 27.8107 51.6121V51.6098Z" fill="#008CBF"/>
<path d="M37.9797 55.7951C38.4407 55.8901 38.4222 56.4043 38.9411 56.7726C42.1076 59.0196 48.3643 58.6489 51.51 56.4043L52.323 54.301C53.0481 55.7488 52.1006 56.5757 52.0172 57.727C51.8366 60.245 51.8273 64.2037 52.0149 66.7147C52.147 68.4822 53.4326 69.6033 51.7045 71.1623C49.2213 73.4022 40.002 73.6617 38.26 70.604C37.345 68.9987 38.4175 68.2505 38.5913 67.0159C38.8113 65.4476 38.809 59.5894 38.5913 58.0189C38.4778 57.1966 37.7898 56.6962 37.9797 55.7951Z" fill="#008CBF"/>
<path d="M86.4022 69.5434C86.3327 70.4885 85.8926 71.0561 85.7907 72.0683C85.6123 73.852 85.5521 78.7674 85.7907 80.4677C85.9691 81.7417 87.0647 82.6961 86.1219 84.3546C84.4032 87.3776 74.6835 87.1529 72.4481 84.6952C71.1023 83.215 72.2605 82.161 72.3578 80.7549C72.5222 78.3435 72.6056 74.1207 72.3717 71.7695C72.2697 70.7573 71.8296 70.1897 71.7601 69.2446C75.1305 72.9579 82.7932 72.9648 86.4022 69.5434Z" fill="#008CBF"/>
<path d="M72.1492 40.7593C71.1624 39.3648 72.2256 38.5703 72.3414 37.697C72.5244 36.3118 72.6009 33.905 71.7577 32.7839C75.5149 34.2317 79.7563 32.7908 82.9692 30.6898L85.508 27.7017C85.1952 30.4327 85.9156 33.1591 86.1195 35.9342C86.1566 36.4438 85.8508 36.9442 85.8948 37.3774C85.9898 38.3294 86.7704 38.6769 86.2724 40.2706C85.1721 43.7938 74.2224 43.685 72.1515 40.7593H72.1492Z" fill="#008CBF"/>
</svg>
