<svg width="90" height="90" viewBox="0 0 90 90" fill="none" xmlns="http://www.w3.org/2000/svg">
<path d="M9.5914 28.2232C9.65796 28.221 9.72452 28.2196 9.79112 28.2189C10.8914 28.2119 12.6674 28.1812 13.7294 28.2586C15.7447 28.3976 17.7201 28.8982 19.5647 29.7374C19.8268 29.8536 20.3882 30.0879 20.621 30.2383C21.1349 30.5702 21.768 31.1976 22.2275 31.61C22.8944 32.2086 22.8183 33.8926 22.866 34.7473C22.9333 35.9511 22.0121 36.1049 22.01 37.2132C22.0067 38.9094 22.0094 40.6245 22.0096 42.3235L22.003 53.2417C22.6792 54.0024 22.7398 54.1513 22.837 55.2292C22.9965 56.9978 23.0556 57.2039 21.9183 58.6539C21.2672 59.3406 19.9934 60.1171 19.0943 60.4757C18.0766 60.8817 16.3923 61.2269 15.3106 61.5291C14.8704 61.6521 13.7008 61.661 13.2091 61.7091C11.3817 61.9447 8.99844 61.6318 7.16182 61.4194C6.67304 61.3629 5.80545 61 5.25599 60.8681C3.28195 60.4099 0.532408 59.0818 0.0703365 56.8468C-0.178008 55.6455 0.259615 54.1346 0.938125 53.1448C1.01152 52.2328 0.970745 50.7625 0.970626 49.8155L0.969531 43.8721L0.970935 39.3253C0.971125 38.6304 0.987961 37.8666 0.959192 37.1665C0.925043 36.3353 0.179754 35.7435 0.0770638 35.0001C-0.039038 34.1597 0.19263 32.3127 0.682221 31.6291C0.851035 31.3935 2.26553 30.2293 2.55054 30.0942C3.46199 29.662 4.71611 29.1578 5.69102 28.83C5.88817 28.7637 6.53948 28.6999 6.77837 28.6534C7.70713 28.4728 8.65192 28.3283 9.5914 28.2232Z" fill="#F0EAD6"/>
<path d="M43.0078 28.5055C43.1125 28.4857 43.4008 28.4716 43.5149 28.4739C44.7036 28.4982 45.9228 28.4558 47.1065 28.5162C47.4355 28.533 48.0934 28.6802 48.4526 28.7409C49.4035 28.9016 50.4655 29.0513 51.3878 29.3232C51.8257 29.4524 52.4705 29.7679 52.9176 29.9459C53.3274 30.1093 53.89 30.3624 54.2633 30.6012C54.8413 30.9705 55.302 31.5667 55.8422 31.9967C55.9173 32.0564 56.0469 32.2346 56.0667 32.3356C56.2235 33.1388 56.393 34.0948 56.4106 34.9017C56.4391 36.1724 55.4878 36.2129 55.4593 37.2387C55.4413 37.9055 55.4483 38.5947 55.4483 39.2489L55.4478 42.9012L55.4579 53.182C55.7017 53.3758 55.8537 53.5064 56.0755 53.7247C56.1817 54.0922 56.3188 54.9951 56.3741 55.3963C56.5915 56.7497 56.4207 57.0249 55.6802 58.0459C54.8171 59.2361 53.637 59.6875 52.3629 60.3282C51.8841 60.5688 50.9104 60.6623 50.3728 60.8547C49.252 61.2558 48.1413 61.241 46.9923 61.4138C46.4754 61.4543 45.9575 61.4886 45.4393 61.5167C44.0443 61.5822 42.2734 61.307 40.8603 61.1531C40.1255 61.0731 39.0632 60.6455 38.3031 60.4853C37.0625 60.2238 35.7107 59.3281 34.717 58.5497C34.4893 58.3667 33.7661 57.0956 33.6415 56.7746C33.2936 55.8782 33.8851 53.8011 34.4842 53.1446C34.5559 52.599 34.518 50.8584 34.5176 50.2205L34.5166 44.383L34.5196 39.3172C34.5198 38.6102 34.537 37.7656 34.5019 37.0421C34.4744 36.4735 33.7276 35.7397 33.6272 35.0808C33.5014 34.256 33.8537 32.7136 34.2192 31.9624C34.3211 31.7528 34.9204 31.3019 35.0927 31.1396C35.8394 30.3976 36.651 30.1144 37.5881 29.7399C38.6217 29.3267 39.4284 29.0293 40.5443 28.905C41.3446 28.8158 42.21 28.6517 43.0078 28.5055Z" fill="#F0EAD6"/>
<path d="M76.6979 28.4945C78.0743 28.4448 79.5894 28.4926 80.9685 28.5475C81.6262 28.5769 82.253 28.8193 82.8966 28.8892C84.5836 29.0727 86.2268 29.7144 87.7216 30.4879C88.2208 30.7462 89.3463 31.8471 89.693 32.2871C89.7982 33.2504 90.1462 34.4172 89.9311 35.4729C89.8105 36.0641 89.0671 36.555 89.0649 37.2734C89.0587 39.2818 89.0618 41.2966 89.0614 43.3039L89.0698 53.1647L89.0874 53.1788C89.7672 53.7273 89.8384 54.1136 89.9302 54.9937C89.9757 55.435 90.0394 56.6512 89.9298 57.0566C89.8622 57.3084 89.174 58.2577 88.9898 58.5108C88.6678 58.9374 88.1368 59.1692 87.707 59.443C86.726 60.068 85.7383 60.5063 84.5964 60.7383C83.9546 60.8687 83.2332 61.1229 82.5777 61.199C81.8612 61.2822 81.1266 61.3529 80.4053 61.4279C78.9008 61.5991 77.4016 61.5387 75.9116 61.3152C75.4699 61.2489 74.8917 61.2576 74.4566 61.1751C73.191 60.9352 71.7064 60.5288 70.5177 60.0505C69.9408 59.8183 68.9796 59.1137 68.4368 58.7583C67.9102 58.4136 67.1783 57.1456 67.0961 56.4786C67.0016 55.7132 67.2573 54.4444 67.5652 53.7114C67.6218 53.5757 67.8718 53.2684 67.9738 53.1334C68.037 52.1958 67.9941 50.74 67.9937 49.7606L67.9933 43.4584V39.1404C67.9937 38.4981 68.0202 37.8354 67.9862 37.1781C67.9464 36.4144 67.1964 35.7879 67.1518 35.0677C67.097 34.1797 67.2529 32.6025 67.7768 31.8603C67.8828 31.7101 68.2786 31.4766 68.4235 31.3378C68.7711 31.0039 69.0918 30.6886 69.4995 30.4283C69.8701 30.1738 70.3194 30.0557 70.7218 29.8756C71.8478 29.3714 72.7917 29.0999 74.0096 28.9202C74.9023 28.7885 75.7857 28.6056 76.6979 28.4945Z" fill="#F0EAD6"/>
</svg>
