<svg width="96" height="96" viewBox="0 0 96 96" fill="none" xmlns="http://www.w3.org/2000/svg">
<g clip-path="url(#clip0_389_3187)">
<path d="M42.7396 78.4383C42.377 78.2203 41.9567 78.1829 41.5941 77.9481C39.9435 76.8798 39.4504 74.8774 40.0839 73.0546C40.3868 72.1836 40.7324 72.0416 40.8958 70.7879C41.4188 66.7703 40.9247 57.654 39.559 53.8583C39.1227 52.647 38.4523 51.0954 37.0239 51.0698C35.8753 51.0491 35.0675 51.2769 33.7895 51.0431C26.5178 49.7125 21.2184 40.8172 20.2382 34.0949C18.7361 23.7851 24.3482 11.9276 36.5925 14.9913C37.9742 15.3376 39.2024 15.6946 40.6488 15.9215C47.3287 16.9681 51.9328 19.4952 57.1704 23.6124C57.8149 24.1195 58.1377 24.4607 58.8698 25.0003C61.0762 26.6259 66.5818 34.2202 67.802 36.7986C70.7267 42.9794 73.3315 52.2761 74.1404 59.0152C74.6335 63.1235 74.3765 68.4018 75.1833 72.3158C75.3347 73.0516 75.9792 73.6731 76.0011 74.5431C76.0111 74.9337 75.8776 76.3117 75.781 76.6826C75.531 77.6463 73.6921 78.7648 72.7926 79.1821C65.9184 82.376 52.8722 81.9391 45.6881 79.8666C44.2109 79.4405 43.9001 79.1377 42.7416 78.4383H42.7396Z" fill="#008CBF"/>
</g>
<defs>
<clipPath id="clip0_389_3187">
<rect width="56" height="67" fill="white" transform="translate(20 14.5)"/>
</clipPath>
</defs>
</svg>
