<svg width="96" height="96" viewBox="0 0 96 96" fill="none" xmlns="http://www.w3.org/2000/svg">
<g clip-path="url(#clip0_389_3157)">
<path d="M21.5265 36.6988H22.1418C22.2316 36.7888 22.0127 37.6905 21.908 37.8011C21.7696 37.9454 20.4884 38.446 20.2191 38.521C17.7689 39.1977 12.3618 39.1508 9.82561 38.7291C9.64793 38.6991 8.57997 38.3241 8.39855 38.236C8.11238 38.0973 7.93283 37.3868 8.02822 37.0794C8.12361 36.7719 8.6286 36.7925 8.72586 35.8271L8.7483 23.5332C9.54506 22.4777 10.5644 21.6173 11.4565 20.6537C12.762 19.244 13.9834 17.7536 15.3319 16.3777C15.7452 15.954 16.3812 15.2191 16.8656 14.9379C17.4996 14.5686 18.2777 14.4393 18.8781 14.085C20.4491 13.1608 22.8881 12.1953 24.5938 11.4961C25.2765 11.2168 25.8432 10.7687 26.6456 10.9337L26.7671 10.3357C27.0421 10.2719 27.3488 10.3732 27.6219 10.3207C27.9211 10.2626 27.9137 9.95699 28.443 10.0057C29.0808 10.0657 29.1125 10.6731 29.2734 10.7275C29.4342 10.7818 29.6269 10.6375 29.7784 10.6431C29.9561 10.6487 30.1001 10.8081 30.2909 10.8306C32.3725 11.0912 34.832 10.9299 36.8034 11.5898C39.2947 12.424 41.9038 13.635 44.339 14.6099C44.8271 14.8048 45.5977 14.9023 46.1158 15.1891C46.546 15.4291 47.6701 17.2025 48.003 17.2044C48.536 16.8557 48.9194 16.1452 49.3814 15.7084C50.1875 14.9454 53.7711 13.9031 55.0074 13.4438C56.2362 12.9845 58.5685 11.811 59.7057 11.5842C61.7182 11.1811 64.0729 11.3817 66.0966 11.1211C66.2145 11.1061 66.9551 10.9599 66.9869 10.9262C67.0243 10.8868 66.9813 10.6337 67.0935 10.4688C67.4377 9.96449 68.5243 10.4556 69.048 10.3225L69.1434 10.8943C69.9869 10.8831 70.6939 11.2299 71.4551 11.5542C74.0811 12.6715 76.6341 14.0137 79.2376 15.1479L86.9098 23.3682L87.181 23.9194C87.2071 26.1783 87.1342 28.4429 87.1716 30.7018C87.1997 32.299 87.1529 34.5111 87.2801 36.0333C87.2932 36.1908 87.383 36.8263 87.4316 36.9088C87.5532 37.115 88.0058 37.0025 88.0058 37.4712C88.0058 37.7542 87.7103 38.0823 87.7757 38.431C87.3773 38.5003 86.9266 38.8303 86.5637 38.9109C86.2383 38.9821 85.9783 38.9184 85.6959 38.9653C82.6753 39.462 79.9932 39.4789 76.9633 38.984C75.9066 38.8115 73.3891 38.5828 73.8828 36.9781C73.9726 36.6894 74.3392 36.7363 74.4309 36.6032C74.6422 36.2958 74.3804 34.4755 74.371 33.9862C74.3373 32.4209 74.3691 30.8462 74.4552 29.2846C74.2214 28.7241 73.7145 28.3754 73.3554 27.9217C73.1366 27.6461 72.9178 27.2094 72.7382 26.9956C72.4072 26.5982 69.7793 25.0854 69.2594 24.9448C68.9994 24.8735 68.717 24.8679 68.4533 24.9148C68.2924 25.5184 68.096 25.7059 67.4564 25.4134L67.4638 24.896C67.0318 24.7967 67.2544 25.2541 67.2095 25.5128L66.495 25.5091L66.4464 25.0985C66.2238 24.7686 64.043 25.166 63.5717 25.2054C62.5243 25.2916 61.1197 25.2672 60.1153 25.4359C59.8403 25.4828 56.8702 27.0481 56.7562 27.2019C56.6421 27.3556 56.6683 27.5899 56.5785 27.7418C56.2904 28.2292 55.2075 29.7532 55.1308 30.1919C54.9569 31.1855 55.2356 32.6102 55.0336 33.66C55.0822 33.8344 55.4413 33.8643 55.5142 34.1043C55.5778 34.3105 55.561 36.1589 55.4825 36.292C55.4039 36.4251 55.0654 36.5001 54.9719 36.7044V50.1475C55.4899 50.4587 55.5517 51.291 55.4301 51.8253C55.4058 51.9303 55.1495 51.8441 55.2243 52.1496C55.2356 52.1965 55.4282 52.1553 55.4432 52.3502C55.5143 53.2669 54.9008 52.8545 54.8129 53.4788C54.8054 57.0743 54.8353 60.6699 54.8222 64.2655C54.8222 64.5354 54.7063 64.7885 54.7063 65.0809C54.7063 65.5084 54.9232 66.0239 54.8129 66.5019C54.8484 66.65 55.1589 66.6032 55.2113 66.6894C55.2318 66.7213 55.3815 67.3886 55.3852 67.4392C55.4039 67.6848 55.1963 68.0523 55.2225 68.2491C55.2337 68.3297 55.4263 68.2266 55.4413 68.5622C55.4768 69.3814 54.854 69.2314 54.8129 69.4076V81.9171C54.7736 82.204 55.0616 82.2939 55.1682 82.4833C55.3534 82.817 55.4413 83.893 55.2337 84.1761C55.1832 84.2454 54.3079 84.9259 54.1938 84.9822C51.6277 86.2176 45.5379 86.2851 42.8277 85.4058C42.6314 85.3421 42.5191 85.1378 42.3564 85.0572C41.7486 84.7497 40.8788 84.521 40.6264 83.8143C40.3196 82.9557 40.6656 82.532 41.1968 81.9134L41.1388 69.4432C41.036 69.2577 40.6357 68.9127 40.5946 68.7478C40.5366 68.519 40.7049 68.3372 40.6881 68.1685C40.6806 68.0954 40.4973 68.1554 40.4692 67.9585C40.4412 67.7617 40.458 67.3605 40.5048 67.1543C40.5759 66.8375 40.8788 66.7681 40.9761 66.6069C41.2043 66.2282 41.1126 59.6295 41.0958 58.6059C41.0921 58.3641 40.9892 58.1391 40.9855 57.8954C40.9611 56.6675 41.1912 54.448 40.9873 53.3775C40.9275 53.0626 40.5646 52.9707 40.4992 52.7383C40.4337 52.5058 40.3346 50.9367 40.3963 50.7268C40.4468 50.5562 40.6862 50.4475 40.7722 50.2825C41.0266 49.797 40.9013 44.2368 40.8919 43.2095C40.8732 41.2729 40.7554 39.3139 40.7797 37.3587C40.7816 37.1712 40.8863 36.9744 40.8788 36.8413C40.8658 36.5845 40.415 36.3895 40.3177 36.0858C40.2803 35.9658 40.1775 35.3134 40.1831 35.201C40.1906 35.0191 40.3421 34.901 40.3552 34.7792C40.3832 34.5017 39.9399 34.2262 40.6507 33.8287C40.9275 33.6731 41.0098 34.0312 41.0808 33.3469C41.1519 32.6627 41.3015 30.8312 41.1463 30.2257C41.0827 29.9707 39.7342 27.738 39.5098 27.4531C39.233 27.1044 36.4443 25.4453 35.9991 25.3272C35.5091 25.196 34.789 25.2541 34.284 25.1979C33.3545 25.0948 32.4193 24.9092 31.5234 24.7836C31.0053 24.7105 30.3339 24.8492 29.7934 24.7836L29.6232 25.4041L28.3457 25.0929L28.2859 25.3909C27.5003 25.6853 27.4723 24.8454 26.8925 24.8173C26.6848 24.8079 26.2322 25.0291 26.0171 25.1247C25.5795 25.3197 23.9093 26.1652 23.6268 26.4239C23.3931 26.6357 23.3463 26.8925 23.1724 27.0969C22.6 27.7661 22.0202 28.3979 21.476 29.1027C21.3488 29.2471 21.5321 29.4046 21.5321 29.4571V36.6932L21.5265 36.6988Z" fill="#EFEAD8"/>
</g>
<defs>
<clipPath id="clip0_389_3157">
<rect width="80" height="76" fill="white" transform="translate(8 10)"/>
</clipPath>
</defs>
</svg>
