<svg width="96" height="96" viewBox="0 0 96 96" fill="none" xmlns="http://www.w3.org/2000/svg">
<path d="M37.4831 23H40.3975C40.7263 23.1823 41.5484 23.1984 41.9595 23.2742C44.7217 23.7834 47.5266 23.9094 50.1988 24.8539C51.301 25.2448 52.3401 26.3029 53.3705 26.8786C54.0931 27.2726 55.0002 27.3487 55.7315 27.5728C56.0896 27.6825 57.5684 28.4436 57.8695 28.6717C58.8019 29.378 60.0185 30.3596 60.7875 31.2544C60.988 31.4878 61.2734 32.178 61.5035 32.3791C62.1675 32.9596 62.9612 33.4738 63.69 33.9716C64.1539 34.2885 64.5597 34.6069 65.0187 34.9196C65.6782 35.369 66.7461 35.4329 67.4654 35.6541C68.78 36.0583 70.2187 37.639 71.2774 38.5552C71.7548 38.9684 72.2611 40.6241 72.5043 41.2429C72.651 41.6159 72.8327 42.0046 73 42.379V45.9479C72.9413 46.1919 72.5923 47.1221 72.487 47.4005C72.1736 48.2279 71.9673 49.5353 71.5534 50.2681C70.8418 51.5292 69.8651 52.8426 69.0403 54.0394C68.8802 54.2717 68.3811 54.5562 68.1657 54.7759C67.446 55.3748 66.4675 56.3461 65.679 56.8074C64.5941 57.4422 62.9254 58.0286 61.7113 58.2996C61.4545 58.3569 58.8758 58.334 58.5951 58.2248C57.163 57.6466 55.3795 56.7803 54.2395 55.7213C53.7669 55.2823 53.3775 54.1596 52.7875 53.6863C51.627 52.7553 50.3511 51.95 49.153 51.0718C48.6014 50.6675 47.6085 50.8995 46.8338 50.4127C46.6491 50.9642 46.2322 51.7827 46.1537 52.2846C46.0952 52.6596 46.1143 53.5718 46.114 53.9952L46.1126 57.0089L46.1137 61.2044C46.1142 61.9062 46.1032 62.6957 46.1295 63.4036C46.1551 64.0902 46.6965 64.8823 46.9377 65.6093C47.3333 66.8016 46.8612 68.586 46.2172 69.5682C45.9728 69.9409 44.1753 71.1903 43.7157 71.4021C42.7627 71.8413 41.2309 72.3129 40.2022 72.5911C39.9937 72.6473 38.8471 72.7275 38.5287 72.7563C37.8956 72.814 37.115 72.9274 36.4929 72.9602C34.1347 73.0883 31.77 72.9069 29.4574 72.4204C28.9083 72.3036 28.2884 72.1887 27.7639 72.0166C27.3072 71.8664 26.818 71.5841 26.3929 71.3885C25.2431 70.8594 24.4985 70.4398 23.7281 69.3907C23.5979 69.2135 23.351 68.9399 23.2529 68.739C23.112 68.4506 23.1948 67.8442 23 67.5825V65.0915C23.4084 64.6624 23.9719 64.0977 23.9918 63.4881C24.0173 62.7084 24.0135 61.9321 24.014 61.152L24.0152 56.9901L24.0139 53.9503C24.0135 53.3521 24.0391 52.4194 23.9423 51.8628C23.8184 51.7203 23.4033 51.3306 23.3588 51.1624C23.1465 50.3587 23.2082 49.4264 23.1421 48.5921C23.1548 48.3416 23.113 48.0109 23.1502 47.7649C23.3387 47.07 23.2483 45.6654 23.4244 45.088C23.648 44.3548 24.1726 44.4739 24.2525 43.2627C24.3376 41.972 24.5664 40.62 24.7072 39.3317C24.7908 38.5663 24.8004 37.7763 24.9928 37.0339C25.094 36.6893 25.5705 36.093 25.7297 35.7398C26.8801 33.7743 28.1873 31.8356 29.4425 29.9317L31.3436 27.0453C31.6274 26.6115 32.2288 25.5279 32.6595 25.2481C33.7107 24.5654 34.6918 23.5885 35.9268 23.303C36.3762 23.1991 37.0869 23.2003 37.4831 23Z" fill="#008CBF"/>
</svg>
